<ttFont>
          <CharString index="0">
            rmoveto
            1 -4 -3 1 -4 hhcurveto
            -11 -11 -5 -7 -6 hvcurveto
            -227 -578 rlineto
            -57 -22 -11 -30 -50 hhcurveto
            -4 -4 -3 -15 -10 vvcurveto
            hintmask 01110000
            -4 0 -4 2 -1 vhcurveto
            hintmask 10110000
            34 43 7 40 hhcurveto
            hintmask 01110000
            47 35 -7 40 hhcurveto
            1 1 1 4 4 vvcurveto
            hintmask 10110000
            10 -4 15 1 callsubr
            -64 -22 15 27 12 4 15 7 18 hvcurveto
            39 105 rlineto
            253 hlineto
            39 -105 rlineto
            5 -15 4 -13 -12 vvcurveto
            -30 -22 -17 -54 8 callsubr
            hintmask 01110000
            -4 0 -4 2 -1 vhcurveto
            hintmask 10110000
            41 48 7 57 hhcurveto
            hintmask 01110000
            48 55 -7 34 hhcurveto
            1 1 1 4 4 vvcurveto
            hintmask 10110000
            10 -4 15 1 callsubr
            -61 -23 32 55 -22 hvcurveto
            -263 472 rmoveto
            103 21 callsubr
            -211 hlineto
            return
          </CharString>
          <CharString index="1">
            -37 callsubr
            -12 -9 vvcurveto
            return
          </CharString>
          <CharString index="2">
            21 408 rmoveto
            53 22 -12 -39 hvcurveto
            -1 -211 rlineto
            -92 -1 62 -64 92 hhcurveto
            84 65 74 13 15 hvcurveto
            0 9 -87 71 52 33 25 12 10 -4 13 1 callsubr
            -6 -15 -12 -3 -11 hhcurveto
            -29 -17 24 44 -1 hvcurveto
            -10 367 -42 callgsubr
            -105 callgsubr
            53 22 -14 -37 hvcurveto
            -228 vlineto
            -21 -26 -48 -56 -55 hhcurveto
            -66 -38 46 66 -1 hvcurveto
            -7 316 -42 callgsubr
            -4 -6 -2 -9 -8 vvcurveto
            -6 1 -5 2 -2 vhcurveto
            return
          </CharString>
          <CharString index="3">
            rmoveto
            -195 93 -167 198 203 104 166 196 197 -104 164 -203 -198 -93 -165 -196 vhcurveto
            308 -303 rmoveto
            -166 -55 174 165 141 49 125 149 175 51 -164 -169 -147 -47 -125 -156 hvcurveto
            return
          </CharString>
          <CharString index="4">
            875 rmoveto
            2 10 -9 65 -34 6 -41 -54 -63 -43 -59 -34 rrcurveto
            0 -1 -16 6 -12 vhcurveto
            2 -5 4 -6 3 -1 rrcurveto
            4 182 72 18 4 hvcurveto
            return
          </CharString>
          <CharString index="5">
            36 23 20 36 32 -27 26 -32 -33 -21 -25 -33 -32 22 -24 32 hvcurveto
            return
          </CharString>
          <CharString index="6">
            -85 -38 -37 -45 -64 hhcurveto
            -135 hlineto
            -51 -13 21 54 -2 hvcurveto
            -6 195 rlineto
            111 -68 callsubr
            38 -3 39 39 vvcurveto
            39 3 40 5 38 -68 callgsubr
            -112 hlineto
            return
          </CharString>
          <CharString index="7">
            875 rmoveto
            -18 4 182 -72 4 hhcurveto
            3 1 4 6 2 5 rrcurveto
            6 12 -1 16 0 vvcurveto
            -59 34 -63 43 -41 54 -34 -6 -9 -65 2 -10 rrcurveto
            return
          </CharString>
          <CharString index="8">
            -10 -100 -97 -3 -97 hhcurveto
            -56 -56 1 2 -56 hvcurveto
            -88 callsubr
            49 18 -17 -35 hvcurveto
            -9 -1 callgsubr
            -17 17 callsubr
            2 55 59 1 61 hhcurveto
            return
          </CharString>
          <CharString index="9">
            rmoveto
            -6 35 -51 4 0 vvcurveto
            -84 -141 -316 -482 -95 -135 rrcurveto
            10 -31 51 -3 0 vvcurveto
            83 142 312 477 96 134 rrcurveto
            return
          </CharString>
          <CharString index="10">
            -5 -6 -1 -7 -6 vvcurveto
            -17 9 -16 0 vhcurveto
            return
          </CharString>
          <CharString index="11">
            rmoveto
            -76 55 -91 97 96 53 91 76 80 -53 98 -96 -97 -55 -98 -80 vhcurveto
            60 2 rmoveto
            68 29 69 66 66 20 -69 -68 -63 -25 -67 -62 -62 -32 67 63 vhcurveto
            return
          </CharString>
          <CharString index="12">
            2 -3 -8 -5 callsubr
            -8 -9 -57 callgsubr
            hvcurveto
            return
          </CharString>
          <CharString index="13">
            rmoveto
            9 8 0 18 vvcurveto
            24 -22 13 -24 -30 -21 -21 -30 -51 48 -21 51 100 63 77 122 -2 vhcurveto
            -3 571 rlineto
            -73 callgsubr
            -42 -11 -41 -3 rrcurveto
            -35 callgsubr
            29 -13 -38 1 hvcurveto
            7 -465 rlineto
            return
          </CharString>
          <CharString index="14">
            -38 -36 43 -50 hhcurveto
            -47 -51 -35 -18 -16 hvcurveto
            0 -1 -2 -4 vvcurveto
            -9 2 -21 13 -3 vhcurveto
            18 18 23 18 26 hhcurveto
            return
          </CharString>
          <CharString index="15">
            47 -47 61 -60 39 -66 3 -2 4 -1 12 4 rrcurveto
            10 3 10 10 1 vvcurveto
            8 -60 103 -46 58 vhcurveto
            46 63 60 96 8 vvcurveto
            1 -10 10 -10 3 vhcurveto
            -12 4 -4 -1 -3 -2 -39 -65 -61 -58 -47 -47 rrcurveto
            -3 -3 -1 -4 -5 vvcurveto
            -4 1 -4 3 -3 vhcurveto
            return
          </CharString>
          <CharString index="16">
            25 67 6 35 hhcurveto
            return
          </CharString>
          <CharString index="17">
            hhcurveto
            68 39 28 26 28 hvcurveto
            1 1 0 1 1 vvcurveto
            9 -12 19 -4 4 vhcurveto
            -15 -27 -33 -12 -28 hhcurveto
            return
          </CharString>
          <CharString index="18">
            -41 -5 rrcurveto
            -35 callgsubr
            return
          </CharString>
          <CharString index="19">
            -79 callsubr
            3 -15 4 -3 vhcurveto
            return
          </CharString>
          <CharString index="20">
            hhcurveto
            -2 -2 -1 -5 -5 vvcurveto
            return
          </CharString>
          <CharString index="21">
            hstemhm
            32 165 -80 80 hintmask 10100100
            189 480 rmoveto
            -104 callgsubr
            -30 -30 -44 0 -41 -5 rrcurveto
            -105 callgsubr
            54 29 -13 -38 hvcurveto
            hintmask 10100010
            -21 callsubr
            hintmask 01100100
            -107 callgsubr
            hintmask 10100100
            -91 callsubr
            hintmask 01100100
            35 60 -6 25 hhcurveto
            2 2 0 4 6 vvcurveto
            hintmask 10100100
            -106 callgsubr
            return
          </CharString>
          <CharString index="22">
            rmoveto
            2 -2 -4 1 -6 hhcurveto
            -5 -5 -1 -2 -1 hvcurveto
            -32 -35 -47 -7 -40 -2 rrcurveto
            -3 -3 -2 -8 -7 vvcurveto
            -2 1 -2 1 -2 vhcurveto
            77 25 -2 -54 -1 hvcurveto
            -2 -250 rlineto
            -50 -1 -28 -9 -59 hhcurveto
            -3 -2 -2 -7 -6 vvcurveto
            return
          </CharString>
          <CharString index="23">
            14 -58 callgsubr
            return
          </CharString>
          <CharString index="24">
            -71 callgsubr
            243 -71 callsubr
            return
          </CharString>
          <CharString index="25">
            rmoveto
            10 -19 63 -35 vhcurveto
            -31 -61 -55 -53 -52 -44 rrcurveto
            0 2 -15 8 -11 vhcurveto
            -5 3 5 -5 3 hhcurveto
            4 167 102 19 hvcurveto
            endchar
          </CharString>
          <CharString index="26">
            rmoveto
            -160 -1 83 -98 160 hhcurveto
            162 104 96 162 1 hvcurveto
            2 365 rlineto
            35 22 17 60 vhcurveto
            32 callsubr
            14 10 vvcurveto
            return
          </CharString>
          <CharString index="27">
            4 -4 -23 9 -21 hhcurveto
            -13 -13 -4 -11 -7 hvcurveto
            21 -16 0 -70 -53 vvcurveto
            -27 0 -22 3 -10 vhcurveto
            0 13 -7 9 5 4 3 1 1 vhcurveto
            0 28 135 50 vvcurveto
            10 -1 6 -47 callgsubr
            return
          </CharString>
          <CharString index="28">
            -73 callsubr
            -11 return
          </CharString>
          <CharString index="29">
            -7 callsubr
            -48 -107 -102 -2 vhcurveto
            -2 -101 rlineto
            return
          </CharString>
          <CharString index="30">
            -97 callsubr
            76 -71 callsubr
            return
          </CharString>
          <CharString index="31">
            -27 callsubr
            221 rlineto
            60 12 -13 -111 93 hvcurveto
            58 -70 29 -39 -20 vvcurveto
            -15 -16 -5 -31 8 callsubr
            return
          </CharString>
          <CharString index="32">
            -35 callgsubr
            30 -13 -38 hvcurveto
            return
          </CharString>
          <CharString index="33">
            -72 callgsubr
            50 17 -16 -35 hvcurveto
            -4 -524 -29 callgsubr
            return
          </CharString>
          <CharString index="34">
            -2 -2 0 -3 -4 vvcurveto
            return
          </CharString>
          <CharString index="35">
            -106 callgsubr
            -7 311 rlineto
            return
          </CharString>
          <CharString index="36">
            hlineto
            -2 -311 -99 callgsubr
            return
          </CharString>
          <CharString index="37">
            3 -7 -5 1 -6 hhcurveto
            -14 -11 -9 -7 -15 hvcurveto
            return
          </CharString>
          <CharString index="38">
            -85 -38 -37 -45 -64 hhcurveto
            -135 hlineto
            -51 -13 21 54 -2 hvcurveto
            -6 195 rlineto
            106 hlineto
            49 16 -34 -62 8 callgsubr
            43 43 vvcurveto
            43 3 44 20 callsubr
            -65 -10 -16 -35 -49 hhcurveto
            -107 hlineto
            return
          </CharString>
          <CharString index="39">
            hlineto
            49 6 -30 -56 10 hvcurveto
            -3 2 9 -1 8 hhcurveto
            8 8 1 3 3 hvcurveto
            -5 return
          </CharString>
          <CharString index="40">
            567 451 rmoveto
            141 -113 121 -141 -141 -111 -121 -141 -141 111 -119 141 141 113 119 141 vhcurveto
            -36 -1 rmoveto
            -124 -95 -99 -124 -124 -91 99 124 124 91 103 124 124 95 -103 -124 vhcurveto
            return
          </CharString>
          <CharString index="41">
            656 398 rmoveto
            6 6 2 9 9 vvcurveto
            14 -5 14 0 vhcurveto
            -141 hlineto
            -2 87 rlineto
            142 -3 89 44 53 hhcurveto
            15 callsubr
            hvcurveto
            return
          </CharString>
          <CharString index="42">
            -19 callgsubr
            -8 571 rlineto
            2 -3 -8 -5 callsubr
            -7 -7 -1 -3 -3 19 callgsubr
            -3 89 44 53 hhcurveto
            return
          </CharString>
          <CharString index="43">
            rlineto
            -35 -18 -17 -49 vhcurveto
            -37 callsubr
            -36 callgsubr
            return
          </CharString>
          <CharString index="44">
            5 -47 callgsubr
            return
          </CharString>
          <CharString index="45">
            575 94 rmoveto
            2 2 1 1 2 vvcurveto
            9 -13 22 -4 4 vhcurveto
            -41 -49 -95 -34 -68 hhcurveto
            -140 -67 173 153 153 56 116 142 86 80 -54 -96 12 hvcurveto
            -13 callsubr
            209 rlineto
            return
          </CharString>
          <CharString index="46">
            -53 -21 26 callgsubr
            -7 247 rlineto
            92 -3 -58 64 -92 hhcurveto
            return
          </CharString>
          <CharString index="47">
            hvcurveto
            -70 callgsubr
            return
          </CharString>
          <CharString index="48">
            172 760 rmoveto
            -73 callgsubr
            -30 -12 -41 -3 rrcurveto
            -75 callsubr
            -10 -550 rlineto
            -38 -24 -13 -53 vhcurveto
            -6 -3 0 -12 -9 vvcurveto
            return
          </CharString>
          <CharString index="49">
            -47 -57 37 -63 hhcurveto
            -67 -74 -37 -17 -20 hvcurveto
            0 -1 -3 -5 vvcurveto
            -9 3 -15 14 -7 vhcurveto
            16 32 44 19 49 hhcurveto
            return
          </CharString>
          <CharString index="50">
            rlineto
            -51 callgsubr
            return
          </CharString>
          <CharString index="51">
            299 93 rmoveto
            -127 308 rlineto
            -3 7 -2 6 6 vvcurveto
            17 17 7 38 vhcurveto
            -53 callgsubr
            return
          </CharString>
          <CharString index="52">
            rmoveto
            -102 callsubr
            return
          </CharString>
          <CharString index="53">
            -29 callgsubr
            -107 callgsubr
            return
          </CharString>
          <CharString index="54">
            -8 -9 -57 callgsubr
            hvcurveto
            -2 -24 rlineto
            -8 -1 -1 -3 -4 hhcurveto
            -2 -3 1 1 -2 hvcurveto
            27 -50 -48 6 -44 hhcurveto
            -187 -107 -161 -199 -194 94 -169 171 131 77 55 49 49 hvcurveto
            return
          </CharString>
          <CharString index="55">
            77 3 35 -35 53 -45 -21 336 57 260 57 -35 35 13 -20 return
          </CharString>
          <CharString index="56">
            hlineto
            6 6 2 9 9 vvcurveto
            14 -5 14 0 vhcurveto
            return
          </CharString>
          <CharString index="57">
            rmoveto
            10 10 -1 19 vvcurveto
            21 -20 11 -22 -28 -21 -23 -35 -48 47 -30 47 100 66 68 109 vhcurveto
            11 0 7 11 vvcurveto
            -12 563 rlineto
            35 -1 19 17 49 hhcurveto
            -65 callgsubr
            return
          </CharString>
          <CharString index="58">
            58 13 12 5 69 17 21 0 25 hhcurveto
            23 6 0 -3 3 hvcurveto
            3 -3 -3 -5 0 vvcurveto
            -226 -379 rlineto
            0 -6 -19 -12 vvcurveto
            -4 0 -3 3 -1 vhcurveto
            1 26 29 0 29 hhcurveto
            return
          </CharString>
          <CharString index="59">
            -44 callgsubr
            hintmask 10100000
            4 -1 3 -1 2 vhcurveto
            hintmask 11000000
            return
          </CharString>
          <CharString index="60">
            -106 callsubr
            hintmask 01101110
            -107 callgsubr
            hintmask 10101110
            -91 callsubr
            hintmask 01101110
            35 59 -6 25 hhcurveto
            2 2 0 4 6 vvcurveto
            hintmask 10101110
            -103 callgsubr
            return
          </CharString>
          <CharString index="61">
            10 -2 13 -39 callgsubr
            return
          </CharString>
          <CharString index="62">
            10 -2 -20 callsubr
            return
          </CharString>
          <CharString index="63">
            -94 rmoveto
            39 -24 18 -24 -25 -16 -18 -25 vhcurveto
            -41 48 6 -18 vvcurveto
            -23 -18 -8 -29 -29 vhcurveto
            -3 -3 0 -3 3 -5 rrcurveto
            -10 5 14 -9 2 hhcurveto
            61 47 6 44 38 vvcurveto
            return
          </CharString>
          <CharString index="64">
            -4 0 -4 2 -1 vhcurveto
            39 49 9 55 47 35 -9 33 hhcurveto
            1 1 1 4 5 vvcurveto
            return
          </CharString>
          <CharString index="65">
            -218 -23 callgsubr
            32 callgsubr
            return
          </CharString>
          <CharString index="66">
            18 -16 4 9 vvcurveto
            19 27 12 37 39 37 -22 -55 -116 -180 -137 -18 -61 vhcurveto
            0 -6 -19 -11 vvcurveto
            -4 0 -3 3 -1 vhcurveto
            116 -1 rlineto
            return
          </CharString>
          <CharString index="67">
            53 -32 25 -33 -33 -23 -27 -31 vhcurveto
            return
          </CharString>
          <CharString index="68">
            vhcurveto
            -65 callgsubr
            return
          </CharString>
          <CharString index="69">
            -35 callsubr
            -28 25 -11 26 32 24 23 33 63 -68 26 -74 1 callgsubr
            return
          </CharString>
          <CharString index="70">
            -3 -3 -3 return
          </CharString>
          <CharString index="71">
            vhcurveto
            -11 7 13 -4 13 hhcurveto
            21 21 9 4 4 hvcurveto
            return
          </CharString>
          <CharString index="72">
            -10 -8 0 -17 vvcurveto
            return
          </CharString>
          <CharString index="73">
            -11 3 -15 -49 callgsubr
            return
          </CharString>
          <CharString index="74">
            rlineto
            -104 callgsubr
            -38 -23 -33 -10 -51 -3 rrcurveto
            -105 callgsubr
            63 return
          </CharString>
          <CharString index="75">
            137 7 31 -17 -21 230 56 429 -20 return
          </CharString>
          <CharString index="76">
            -103 callgsubr
            -50 -20 -84 callsubr
            return
          </CharString>
          <CharString index="77">
            -76 callgsubr
            -12 callsubr
            return
          </CharString>
          <CharString index="78">
            12 hvcurveto
            -3 2 9 -1 8 hhcurveto
            return
          </CharString>
          <CharString index="79">
            vhcurveto
            -44 callgsubr
            return
          </CharString>
          <CharString index="80">
            -46 callsubr
            -10 return
          </CharString>
          <CharString index="81">
            hlineto
            -3 137 rlineto
            104 -2 52 32 0 callgsubr
            -5 -7 hvcurveto
            return
          </CharString>
          <CharString index="82">
            rmoveto
            3 3 2 3 3 vvcurveto
            7 -11 return
          </CharString>
          <CharString index="83">
            hvcurveto
            -35 callsubr
            return
          </CharString>
          <CharString index="84">
            90 100 -3 -8 83 hvcurveto
            11 157 rlineto
            4 -4 -16 5 -9 hhcurveto
            -3 -3 -1 -1 -1 hvcurveto
            -2 -69 -2 -15 -47 -6 rrcurveto
            return
          </CharString>
          <CharString index="85">
            -87 callsubr
            hintmask 11000000
            -63 callgsubr
            return
          </CharString>
          <CharString index="86">
            -1 -271 -99 callgsubr
            return
          </CharString>
          <CharString index="87">
            13 -3 3 vhcurveto
            return
          </CharString>
          <CharString index="88">
            10 15 4 18 vvcurveto
            16 -16 6 -15 -20 -12 -12 -20 -55 58 -24 48 78 68 64 72 71 -52 46 -62 7 vhcurveto
            return
          </CharString>
          <CharString index="89">
            rmoveto
            -18 -18 -23 -18 -26 hhcurveto
            return
          </CharString>
          <CharString index="90">
            rmoveto
            128 36 89 101 51 69 -53 -55 vhcurveto
            -2 -211 rlineto
            -41 -23 -49 -39 -45 hhcurveto
            -96 -42 86 96 hvcurveto
            return
          </CharString>
          <CharString index="91">
            -77 callgsubr
            hintmask 10000000
            return
          </CharString>
          <CharString index="92">
            -25 -87 callsubr
            return
          </CharString>
          <CharString index="93">
            2 -3 -7 2 return
          </CharString>
          <CharString index="94">
            -3 2 9 -1 8 hhcurveto
            8 8 1 3 3 hvcurveto
            -14 return
          </CharString>
          <CharString index="95">
            49 -50 20 -54 return
          </CharString>
          <CharString index="96">
            242 rlineto
            -30 30 44 -29 60 hhcurveto
            131 78 117 144 128 -60 111 -143 return
          </CharString>
          <CharString index="97">
            -233 -50 callgsubr
            484 -20 return
          </CharString>
          <CharString index="98">
            hlineto
            -3 127 rlineto
            return
          </CharString>
          <CharString index="99">
            6 -2 7 -3 2 vhcurveto
            -58 -26 9 50 -2 hvcurveto
            return
          </CharString>
          <CharString index="100">
            -12 callsubr
            -109 return
          </CharString>
          <CharString index="101">
            hhcurveto
            hintmask 01100000
            return
          </CharString>
          <CharString index="102">
            2 -8 hhcurveto
            return
          </CharString>
          <CharString index="103">
            32 62 -5 23 hhcurveto
            1 1 1 3 4 vvcurveto
            return
          </CharString>
          <CharString index="104">
            -20 123 -43 callgsubr
            return
          </CharString>
          <CharString index="105">
            42 80 -1 hvcurveto
            -4 244 rlineto
            return
          </CharString>
          <CharString index="106">
            21 callsubr
            -38 return
          </CharString>
          <CharString index="107">
            -102 callgsubr
            hintmask 10100000
            -2 -22 -86 0 -86 hhcurveto
            return
          </CharString>
          <CharString index="108">
            -3 4 vhcurveto
            return
          </CharString>
          <CharString index="109">
            51 34 -20 161 145 -130 130 -6 callgsubr
            hstemhm
            return
          </CharString>
          <CharString index="110">
            -20 callsubr
            -49 -15 17 35 -2 hvcurveto
            return
          </CharString>
          <CharString index="111">
            -14 callsubr
            -8 hhcurveto
            return
          </CharString>
          <CharString index="112">
            hhcurveto
            hintmask 10100000
            return
          </CharString>
          <CharString index="113">
            -6 25 hhcurveto
            2 2 1 22 callgsubr
            9 -3 12 -3 3 vhcurveto
            return
          </CharString>
          <CharString index="114">
            32 19 18 30 28 -23 22 -28 -29 -17 -21 -29 -28 18 -20 28 hvcurveto
            return
          </CharString>
          <CharString index="115">
            vhcurveto
            -4 -4 -3 -15 -10 vvcurveto
            return
          </CharString>
          <CharString index="116">
            14 callsubr
            hstemhm
            return
          </CharString>
          <CharString index="117">
            hintmask 10100000
            1 20 80 1 80 -6 callsubr
            80 80 -1 -1 21 hvcurveto
            return
          </CharString>
          <CharString index="118">
            -41 callgsubr
            48 17 -17 -35 1 hvcurveto
            17 -478 rlineto
            return
          </CharString>
          <CharString index="119">
            191 613 rmoveto
            35 15 17 49 -39 callsubr
            return
          </CharString>
          <CharString index="120">
            -53 32 -25 33 33 23 27 31 vhcurveto
            return
          </CharString>
          <CharString index="121">
            -21 198 -20 return
          </CharString>
          <CharString index="122">
            46 51 -28 -46 return
          </CharString>
          <CharString index="123">
            hhcurveto
            3 3 2 11 10 vvcurveto
            hintmask 10101110
            6 -1 6 -47 callgsubr
            return
          </CharString>
          <CharString index="124">
            -24 callgsubr
            -107 callgsubr
            return
          </CharString>
          <CharString index="125">
            -5 -562 -57 callsubr
            return
          </CharString>
          <CharString index="126">
            0 2 -21 hvcurveto
            -5 -6 -1 -7 -9 vvcurveto
            -19 9 -22 0 vhcurveto
            return
          </CharString>
          <CharString index="127">
            5 40 vhcurveto
            -95 callsubr
            return
          </CharString>
          <CharString index="128">
            -311 rlineto
            return
          </CharString>
          <CharString index="129">
            6 -23 hhcurveto
            -2 -2 0 return
          </CharString>
          <CharString index="130">
            -290 47 -47 123 return
          </CharString>
          <CharString index="131">
            23 64 6 33 hhcurveto
            return
          </CharString>
          <CharString index="132">
            -9 -8 0 -18 vvcurveto
            return
          </CharString>
          <CharString index="133">
            hhcurveto
            -1 -2 -2 -7 -6 vvcurveto
            -3 1 -2 1 -1 vhcurveto
            return
          </CharString>
          <CharString index="134">
            -15 -24 -6 -28 vvcurveto
            -20 19 -14 30 30 19 19 30 return
          </CharString>
          <CharString index="135">
            rmoveto
            2 2 2 8 8 vvcurveto
            8 -2 7 -2 3 vhcurveto
            return
          </CharString>
          <CharString index="136">
            rlineto
            -3 -3 -1 -7 -8 vvcurveto
            -8 1 -8 3 -2 vhcurveto
            return
          </CharString>
          <CharString index="137">
            rrcurveto
            3 -2 -16 7 -16 hhcurveto
            -7 -8 -2 -4 -5 hvcurveto
            return
          </CharString>
          <CharString index="138">
            -103 callgsubr
            endchar
          </CharString>
          <CharString index="139">
            3 3 3 return
          </CharString>
          <CharString index="140">
            -3 2 16 -7 15 hhcurveto
            8 7 2 4 6 hvcurveto
            return
          </CharString>
          <CharString index="141">
            hvcurveto
            -5 -5 -1 -7 -8 vvcurveto
            -18 9 -20 0 vhcurveto
            return
          </CharString>
          <CharString index="142">
            -3 3 13 -1 12 hhcurveto
            12 12 1 3 4 hvcurveto
            return
          </CharString>
          <CharString index="143">
            -23 -45 4 2 -14 hvcurveto
            -73 callsubr
            return
          </CharString>
          <CharString index="144">
            -14 3 1 rrcurveto
            82 64 9 59 50 vvcurveto
            endchar
          </CharString>
          <CharString index="145">
            23 33 -3 16 hhcurveto
            2 1 0 3 4 vvcurveto
            return
          </CharString>
          <CharString index="146">
            -35 -19 -17 -48 vhcurveto
            -37 callsubr
            -36 callgsubr
            return
          </CharString>
          <CharString index="147">
            0 -10 59 451 -20 174 60 -1 -20 return
          </CharString>
          <CharString index="148">
            15 24 6 28 vvcurveto
            25 -25 9 -24 -30 -19 return
          </CharString>
          <CharString index="149">
            -32 -54 6 -23 hhcurveto
            -73 callsubr
            return
          </CharString>
          <CharString index="150">
            -269 -21 1060 -20 hstem
            return
          </CharString>
          <CharString index="151">
            17 -21 669 29 9 -20 hstemhm
            hintmask 11000000
            return
          </CharString>
          <CharString index="152">
            32 6 -3 callsubr
            return
          </CharString>
          <CharString index="153">
            20 -21 22 14 -11 20 102 36 161 return
          </CharString>
        <CharString name=".notdef">
          -264 endchar
        </CharString>
        <CharString name=".null">
          -534 endchar
        </CharString>
        <CharString name="A">
          -32 callsubr
          hstemhm
          hintmask 10110000
          351 713 -107 callsubr
          endchar
        </CharString>
        <CharString name="AE">
          398 0 -20 27 31 -31 49 -45 -21 240 56 40 57 104 -20 176 57 13 -20 hstemhm
          441 82 hintmask 1100111101000000
          444 630 rmoveto
          -6 -344 rlineto
          -187 hlineto
          260 357 -83 callgsubr
          hintmask 1100111011000000
          -14 176 rlineto
          hintmask 1100111101000000
          -10 -108 -106 -3 -105 hhcurveto
          -61 -61 1 2 -61 hvcurveto
          -88 callsubr
          28 21 -2 -5 17 hvcurveto
          -274 -493 rlineto
          -98 -55 -12 -29 -65 hhcurveto
          -5 -3 -14 -12 -5 1 -5 2 -2 hvcurveto
          27 37 7 33 47 35 -7 40 hhcurveto
          1 1 1 4 4 vvcurveto
          10 -4 15 1 callsubr
          -8 -8 0 -8 hhcurveto
          -20 -17 1 12 16 25 46 59 117 hvcurveto
          208 hlineto
          -2 -140 rlineto
          -35 -1 -18 -17 -48 hhcurveto
          -60 callgsubr
          55 59 1 61 hhcurveto
          hintmask 0001111101000000
          105 109 -3 -10 98 -91 callgsubr
          hintmask 1010111101000000
          -69 callsubr
          endchar
        </CharString>
        <CharString name="Aacute">
          -32 callsubr
          111 -43 callgsubr
          hintmask 00001100
          467 -103 callsubr
          hintmask 10110000
          -116 -162 -107 callsubr
          endchar
        </CharString>
        <CharString name="Acircumflex">
          137 152 214 65 195 endchar
        </CharString>
        <CharString name="Adieresis">
          137 156 234 65 200 endchar
        </CharString>
        <CharString name="Agrave">
          -32 callsubr
          111 -43 callgsubr
          hintmask 00001100
          188 -100 callsubr
          hintmask 10110000
          163 -162 -107 callsubr
          endchar
        </CharString>
        <CharString name="Aring">
          137 205 214 65 202 endchar
        </CharString>
        <CharString name="Atilde">
          -32 callsubr
          106 57 -13 56 hstemhm
          hintmask 10110000
          351 713 -107 callsubr
          hintmask 00001000
          267 608 -18 callsubr
          hintmask 00000100
          -93 callsubr
          hintmask 00001000
          -85 callgsubr
        </CharString>
        <CharString name="B">
          54 0 38 -38 56 279 44 273 51 -38 38 hstemhm
          117 70 226 83 -44 44 -44 90 hintmask 1011011000000000
          496 538 rmoveto
          105 -89 60 -121 vhcurveto
          -27 -75 -6 -38 -32 -42 -81 callgsubr
          hintmask 1010110010000000
          -72 callgsubr
          50 17 -16 -35 hvcurveto
          -5 -524 -64 callsubr
          -107 callgsubr
          23 64 6 33 38 56 -6 27 hhcurveto
          149 107 48 149 108 -85 74 -108 hvcurveto
          hintmask 1011011000000000
          92 28 55 51 80 vvcurveto
          -315 108 rmoveto
          4 24 22 2 22 hhcurveto
          101 63 -39 -89 -88 -75 -47 -100 hvcurveto
          -45 hlineto
          3 -60 rmoveto
          4 24 22 2 21 hhcurveto
          hintmask 0111010100000000
          97 92 -43 -97 -93 -70 -46 -93 -60 -21 15 60 -3 hvcurveto
          endchar
        </CharString>
        <CharString name="C">
          78 -10 69 441 -20 174 59 4 -20 hstemhm
          53 89 hintmask 11101000
          -62 callsubr
          hintmask 11011000
          2 -3 -8 -5 callsubr
          hintmask 11101000
          -53 callsubr
          endchar
        </CharString>
        <CharString name="CR">
          -264 endchar
        </CharString>
        <CharString name="Ccedilla">
          79 -235 29 196 69 -30 -20 491 -20 174 59 4 -20 hstemhm
          53 89 108 40 83 46 hintmask 0101101000000000
          -62 callsubr
          hintmask 0101011000000000
          2 -3 -8 -5 callsubr
          hintmask 0101101000000000
          -53 callsubr
          hintmask 1010000110000000
          -202 -238 -75 callgsubr
        </CharString>
        <CharString name="D">
          125 0 38 -38 56 596 51 -38 38 hstemhm
          117 76 -76 88 314 88 hintmask 10101010
          286 -33 callgsubr
          hintmask 10011010
          -72 callgsubr
          50 17 -16 -35 hvcurveto
          -5 -524 -54 callsubr
          23 64 6 33 38 56 -6 27 hhcurveto
          hintmask 01101010
          3 56 rmoveto
          hintmask 01100110
          -57 -24 17 58 -3 hvcurveto
          -23 515 -13 callgsubr
        </CharString>
        <CharString name="E">
          -52 callsubr
          hstemhm
          117 84 hintmask 10011001
          189 643 -83 callgsubr
          hintmask 10010011
          -14 176 rlineto
          hintmask 10010101
          -99 callsubr
          hintmask 00111001
          105 109 -3 -10 98 -91 callgsubr
          hintmask 01011001
          -101 callsubr
          endchar
        </CharString>
        <CharString name="Eacute">
          -52 callsubr
          113 44 callgsubr
          84 hintmask 0000000110000000
          428 -103 callsubr
          hintmask 1001100001000000
          -239 -232 -83 callgsubr
          hintmask 1001001001000000
          -14 176 rlineto
          hintmask 1001010001000000
          -99 callsubr
          hintmask 0011100001000000
          105 109 -3 -10 98 -91 callgsubr
          hintmask 0101100001000000
          -101 callsubr
          endchar
        </CharString>
        <CharString name="Ecircumflex">
          77 114 214 69 195 endchar
        </CharString>
        <CharString name="Edieresis">
          -52 callsubr
          112 105 hstemhm
          117 84 -46 103 76 103 hintmask 1001100010000000
          189 643 -83 callgsubr
          hintmask 1001001010000000
          -14 176 rlineto
          hintmask 1001010010000000
          -99 callsubr
          hintmask 0011100010000000
          105 109 -3 -10 98 -91 callgsubr
          hintmask 0101100010000000
          -101 callsubr
          hintmask 0000000101100000
          9 422 -98 callgsubr
        </CharString>
        <CharString name="Egrave">
          -52 callsubr
          113 44 callgsubr
          84 hintmask 0000000110000000
          148 -100 callsubr
          hintmask 1001100001000000
          41 -232 -83 callgsubr
          hintmask 1001001001000000
          -14 176 rlineto
          hintmask 1001010001000000
          -99 callsubr
          hintmask 0011100001000000
          105 109 -3 -10 98 -91 callgsubr
          hintmask 0101100001000000
          -101 callsubr
          endchar
        </CharString>
        <CharString name="Eth">
          134 0 38 -38 56 279 59 258 51 -38 38 hstemhm
          14 195 -81 68 -68 244 156 88 hintmask 1011001010000000
          295 -33 callgsubr
          hintmask 1010101010000000
          -72 callgsubr
          50 17 -16 -35 hvcurveto
          -2 -220 rlineto
          -49 -44 0 2 -14 hvcurveto
          hintmask 1011010010000000
          -5 -6 -1 -7 -9 vvcurveto
          -19 9 -22 0 14 41 1 1 48 vhcurveto
          -2 -245 -54 callsubr
          23 64 6 33 38 56 -6 27 hhcurveto
          hintmask 0111001010000000
          3 56 rmoveto
          -57 -25 17 58 -2 hvcurveto
          -9 204 rlineto
          71 68 -1 -1 20 hvcurveto
          hintmask 0111000110000000
          -70 callgsubr
          -20 -72 0 -73 hhcurveto
          -11 252 -13 callgsubr
        </CharString>
        <CharString name="Euro">
          77 -10 58 191 60 70 59 227 58 1 -20 hstemhm
          hintmask 11110000
          216 327 rmoveto
          12 0 15 1 15 vhcurveto
          37 hlineto
          93 93 -1 -1 25 -60 callsubr
          -25 -95 0 -94 hhcurveto
          -33 hlineto
          106 11 35 121 101 hhcurveto
          84 42 -52 -82 -29 callsubr
          8 8 1 3 3 hvcurveto
          -11 189 rlineto
          hintmask 11101000
          -95 callsubr
          -2 -21 rlineto
          -3 -2 -2 -57 callgsubr
          1 2 -3 vhcurveto
          hintmask 11110000
          21 -31 -28 5 -40 hhcurveto
          -154 -85 -140 -145 -22 hvcurveto
          -38 -31 1 1 -12 hvcurveto
          -5 -6 -1 -7 -9 vvcurveto
          -19 9 -22 0 vhcurveto
          11 27 1 35 hhcurveto
          -14 vlineto
          -19 0 -19 2 -17 vhcurveto
          -37 -29 1 1 -12 hvcurveto
          -5 -6 -1 -7 -9 vvcurveto
          -19 9 -22 0 vhcurveto
          12 32 1 38 hhcurveto
          -168 30 98 -81 123 hhcurveto
          83 64 43 46 45 hvcurveto
          30 -16 8 0 vhcurveto
          -36 -49 -45 -33 -75 hhcurveto
          -70 -70 62 130 -21 hvcurveto
          31 hlineto
          93 93 -1 -1 25 -60 callsubr
          -25 -95 0 -94 hhcurveto
          -38 hlineto
          endchar
        </CharString>
        <CharString name="F">
          5 4 34 -17 -21 326 57 260 57 -35 35 13 -20 hstemhm
          117 83 hintmask 10110010
          186 643 rmoveto
          173 hlineto
          68 40 -29 -86 -29 callsubr
          8 8 1 3 3 hvcurveto
          hintmask 10100110
          -23 185 rlineto
          hintmask 10101010
          -10 -100 -91 -3 -93 hhcurveto
          -53 -54 1 2 -56 hvcurveto
          -1 -1 -1 -3 -4 vvcurveto
          -10 4 -16 4 -4 vhcurveto
          50 17 -17 callgsubr
          -5 -523 -29 callgsubr
          hintmask 01110010
          -107 callgsubr
          hintmask 10110010
          23 64 4 33 hhcurveto
          hintmask 01110010
          32 54 -4 24 hhcurveto
          2 2 0 4 6 vvcurveto
          hintmask 10110010
          -45 callsubr
          -51 -13 17 35 -2 hvcurveto
          -11 236 rlineto
          113 -68 callsubr
          40 -3 38 38 vvcurveto
          38 3 39 5 40 -68 callgsubr
          -114 hlineto
          endchar
        </CharString>
        <CharString name="G">
          166 -10 69 450 -20 165 59 hstem
          52 90 363 84 vstem
          594 211 rmoveto
          49 1 16 77 9 vhcurveto
          2 2 2 9 8 vvcurveto
          9 -2 8 -2 3 vhcurveto
          -3 -43 -54 -1 -54 hhcurveto
          -54 -54 1 3 -42 hvcurveto
          -3 -3 -1 -8 -9 vvcurveto
          -8 1 -9 3 -2 vhcurveto
          121 -10 14 -12 -66 -20 -1 -25 -32 vvcurveto
          -19 0 -14 -1 -2 vhcurveto
          -15 -37 -48 -11 -50 hhcurveto
          -145 -82 181 145 157 64 112 174 86 80 -45 -96 12 hvcurveto
          -13 callsubr
          196 rlineto
          -95 callsubr
          -3 -22 rlineto
          -7 -1 -2 -2 -3 hhcurveto
          -2 -2 1 1 -2 hvcurveto
          27 -52 -55 6 -44 hhcurveto
          -208 -118 -166 -194 -200 97 -163 200 116 60 32 46 69 hvcurveto
          endchar
        </CharString>
        <CharString name="H">
          209 -20 callgsubr
          337 58 270 32 callgsubr
          hstemhm
          117 76 354 78 hintmask 10101110
          684 703 rmoveto
          hintmask 10110110
          -23 -41 -6 -32 hhcurveto
          hintmask 10101110
          -33 -56 6 -23 hhcurveto
          -73 callsubr
          hintmask 10110110
          40 callgsubr
          -2 -218 rlineto
          -351 hlineto
          -4 218 rlineto
          35 -1 17 17 50 16 callsubr
          hintmask 10110110
          -23 -41 -6 -32 hhcurveto
          hintmask 10101110
          -33 -56 6 -23 hhcurveto
          -73 callsubr
          hintmask 10110110
          -34 callsubr
          49 19 -17 -35 -1 hvcurveto
          -11 -1 callgsubr
          -17 -24 callgsubr
          hintmask 01110110
          -107 callgsubr
          hintmask 10110110
          -14 callgsubr
          hintmask 01110110
          32 55 -88 callgsubr
          hintmask 10110110
          -46 callsubr
          -7 247 rlineto
          350 hlineto
          -2 -247 -64 callsubr
          hintmask 01110110
          -107 callgsubr
          hintmask 10110110
          24 62 6 32 hhcurveto
          hintmask 01110110
          33 56 -6 23 hhcurveto
          2 2 0 4 6 vvcurveto
          hintmask 10110110
          -45 callsubr
          -49 -16 17 35 -1 hvcurveto
          -19 528 rlineto
          31 -1 19 16 48 16 callsubr
          endchar
        </CharString>
        <CharString name="I">
          -42 callsubr
          hstemhm
          117 81 hintmask 10101000
          12 callsubr
          hintmask 10011000
          -90 callgsubr
          hintmask 10101000
          -23 -41 -6 -33 hhcurveto
          hintmask 10011000
          -32 -56 6 -23 17 callgsubr
          49 16 -17 callgsubr
          -4 -523 -64 callsubr
          hintmask 01101000
          -107 callgsubr
          hintmask 10101000
          -14 callgsubr
          hintmask 01101000
          32 55 -88 callgsubr
          hintmask 10101000
          -45 callsubr
          -49 -16 17 35 -1 hvcurveto
          endchar
        </CharString>
        <CharString name="IJ">
          75 -156 60 -60 136 26 10 callgsubr
          665 32 callgsubr
          hstemhm
          117 81 48 91 91 72 hintmask 0010101000000000
          12 callsubr
          hintmask 0010011000000000
          -90 callgsubr
          hintmask 0010101000000000
          -23 -41 -6 -33 hhcurveto
          hintmask 0010011000000000
          -32 -56 -81 callgsubr
          hintmask 0010101000000000
          -72 callgsubr
          49 16 -17 callgsubr
          -4 -523 -64 callsubr
          hintmask 0001101000000000
          -107 callgsubr
          hintmask 0010101000000000
          -14 callgsubr
          hintmask 0001101000000000
          32 55 -88 callgsubr
          hintmask 0010101000000000
          -45 callsubr
          -49 -16 17 35 -1 hvcurveto
          hintmask 0100100110000000
          121 -170 -50 callsubr
          hintmask 1000010110000000
          -90 callgsubr
          hintmask 1000100110000000
          -22 -49 -6 -30 hhcurveto
          hintmask 1000010110000000
          42 callsubr
          hintmask 1000100110000000
          -34 callsubr
          48 19 -17 callgsubr
          4 -543 rlineto
          -9 0 -11 -9 vvcurveto
          -68 -10 -69 -63 -14 -16 2 14 vhcurveto
          endchar
        </CharString>
        <CharString name="Iacute">
          -42 callsubr
          123 44 callgsubr
          81 hintmask 00001100
          300 -103 callsubr
          hintmask 10100010
          -109 -262 rmoveto
          35 15 17 49 -39 callsubr
          hintmask 10010010
          -90 callgsubr
          hintmask 10100010
          -23 -41 -6 -33 hhcurveto
          hintmask 10010010
          -32 -56 -81 callgsubr
          hintmask 10100010
          -72 callgsubr
          49 16 -17 callgsubr
          -4 -523 -64 callsubr
          hintmask 01100010
          -107 callgsubr
          hintmask 10100010
          -14 callgsubr
          hintmask 01100010
          32 55 -88 callgsubr
          hintmask 10100010
          -45 callsubr
          -49 -16 17 35 -1 hvcurveto
          endchar
        </CharString>
        <CharString name="Icircumflex">
          -42 callsubr
          124 9 callsubr
          117 81 hintmask 10100010
          12 callsubr
          hintmask 10010010
          -90 callgsubr
          hintmask 10100010
          -23 -41 -6 -33 hhcurveto
          hintmask 10010010
          -32 -56 -81 callgsubr
          hintmask 10100010
          -72 callgsubr
          49 16 -17 callgsubr
          -4 -523 -64 callsubr
          hintmask 01100010
          -107 callgsubr
          hintmask 10100010
          -14 callgsubr
          hintmask 01100010
          32 55 -88 callgsubr
          hintmask 10100010
          -45 callsubr
          -49 -16 17 35 -1 hvcurveto
          hintmask 00001100
          -68 890 rmoveto
          -31 -61 -55 -53 -52 -44 -2 -2 0 -6 7 -12 rrcurveto
          -7 4 11 -9 1 hhcurveto
          3 83 60 46 49 hvcurveto
          -46 50 82 -60 3 hhcurveto
          1 11 9 7 4 hvcurveto
          7 12 0 6 -2 2 -48 48 -59 49 -31 61 rrcurveto
          -104 callgsubr
          endchar
        </CharString>
        <CharString name="Idieresis">
          -42 callsubr
          122 105 hstemhm
          10 103 4 81 -9 103 hintmask 10100010
          12 callsubr
          hintmask 10010010
          -90 callgsubr
          hintmask 10100010
          -23 -41 -6 -33 hhcurveto
          hintmask 10010010
          -32 -56 -81 callgsubr
          hintmask 10100010
          -72 callgsubr
          49 16 -17 callgsubr
          -4 -523 -64 callsubr
          hintmask 01100010
          -107 callgsubr
          hintmask 10100010
          -14 callgsubr
          hintmask 01100010
          32 55 -88 callgsubr
          hintmask 10100010
          -45 callsubr
          -49 -16 17 35 -1 hvcurveto
          hintmask 00001101
          -145 715 -98 callgsubr
        </CharString>
        <CharString name="Igrave">
          -42 callsubr
          123 44 callgsubr
          81 hintmask 00001100
          -10 -100 callsubr
          hintmask 10100010
          201 -262 rmoveto
          35 15 17 49 -39 callsubr
          hintmask 10010010
          -90 callgsubr
          hintmask 10100010
          -23 -41 -6 -33 hhcurveto
          hintmask 10010010
          -32 -56 -81 callgsubr
          hintmask 10100010
          -72 callgsubr
          49 16 -17 callgsubr
          -4 -523 -64 callsubr
          hintmask 01100010
          -107 callgsubr
          hintmask 10100010
          -14 callgsubr
          hintmask 01100010
          32 55 -88 callgsubr
          hintmask 10100010
          -45 callsubr
          -49 -16 17 35 -1 hvcurveto
          endchar
        </CharString>
        <CharString name="Itilde">
          -218 -50 234 73 196 endchar
        </CharString>
        <CharString name="J">
          -241 -156 60 -60 136 685 32 callgsubr
          hstemhm
          -70 91 91 72 hintmask 01101100
          11 -80 -50 callsubr
          hintmask 10011100
          -90 callgsubr
          hintmask 10101100
          -22 -49 -6 -30 hhcurveto
          hintmask 10011100
          42 callsubr
          hintmask 10101100
          -34 callsubr
          48 19 -17 callgsubr
          4 -543 rlineto
          -9 0 -11 -9 vvcurveto
          -68 -10 -69 -63 -14 -16 2 14 vhcurveto
          endchar
        </CharString>
        <CharString name="Jcircumflex">
          -241 -36 214 74 195 endchar
        </CharString>
        <CharString name="K">
          123 -23 callgsubr
          31 7 -20 hstemhm
          119 72 0 228 -218 244 hintmask 10101010
          187 613 rmoveto
          35 16 17 50 -39 callsubr
          hintmask 10011010
          -90 callgsubr
          hintmask 10101010
          -23 -41 -7 -33 hhcurveto
          hintmask 10011010
          -32 -56 7 -23 hhcurveto
          -2 -2 0 -4 -5 vvcurveto
          hintmask 10101010
          -72 callgsubr
          50 17 -17 callgsubr
          -523 vlineto
          -35 -4 -19 -17 -48 hhcurveto
          -37 callsubr
          -36 callgsubr
          hintmask 01101010
          -107 callgsubr
          hintmask 10101010
          -14 callgsubr
          hintmask 01101010
          32 55 -88 callgsubr
          hintmask 10101010
          -27 callsubr
          243 32 -1 12 -5 23 -25 rlinecurve
          82 -87 100 -133 -26 vvcurveto
          -13 -15 -5 -33 vhcurveto
          -4 -4 -2 -13 -11 vvcurveto
          hintmask 01101010
          -5 0 -4 2 -1 vhcurveto
          38 49 7 55 55 42 -7 39 hhcurveto
          1 1 1 4 4 vvcurveto
          hintmask 10101010
          10 -4 15 1 callsubr
          -72 -43 47 119 -109 hvcurveto
          -151 165 196 234 rlineto
          40 34 18 22 64 hhcurveto
          32 callsubr
          14 10 vvcurveto
          hintmask 10011010
          -45 callgsubr
          -38 -27 -8 -53 -54 -40 8 -38 hhcurveto
          -73 callsubr
          hintmask 10100100
          -34 callsubr
          40 17 -12 -17 -10 -5 -11 -9 -11 hvcurveto
          0 -88 -120 -58 -60 vhcurveto
          -30 -31 -11 -5 -23 -1 rrcurveto
          endchar
        </CharString>
        <CharString name="L">
          5 35 callgsubr
          118 80 -80 88 hintmask 10010100
          190 613 rmoveto
          35 17 17 49 -39 callsubr
          hintmask 10001100
          -90 callgsubr
          hintmask 10010100
          -24 -43 -6 -33 hhcurveto
          hintmask 10001100
          -32 -54 6 -24 hhcurveto
          -73 callsubr
          hintmask 10010100
          40 callgsubr
          -6 -523 -54 callsubr
          2 54 53 1 52 hhcurveto
          hintmask 00110100
          90 90 -3 -10 96 -91 callgsubr
          hintmask 01010100
          -85 -38 -37 -45 -65 hhcurveto
          -82 hlineto
          hintmask 10010010
          -51 -13 21 54 -2 hvcurveto
          endchar
        </CharString>
        <CharString name="Ldotaccent">
          5 333 114 hstem
          309 113 vstem
          190 613 rmoveto
          35 17 17 49 -39 callsubr
          -90 callgsubr
          -24 -43 -6 -33 -32 -54 6 -24 hhcurveto
          -88 callsubr
          49 18 -17 -35 hvcurveto
          -6 -523 -54 callsubr
          2 54 53 1 52 hhcurveto
          90 90 -3 -10 96 -91 callgsubr
          -85 -38 -37 -45 -65 hhcurveto
          -82 hlineto
          -51 -13 21 54 -2 hvcurveto
          157 202 -55 callsubr
          endchar
        </CharString>
        <CharString name="Lslash">
          11 35 callgsubr
          12 194 -83 74 hintmask 10010010
          194 613 rmoveto
          35 17 17 49 -39 callsubr
          hintmask 10001010
          -90 callgsubr
          hintmask 10010010
          -24 -43 -6 -33 hhcurveto
          hintmask 10001010
          -32 -54 6 -24 hhcurveto
          -73 callsubr
          hintmask 10010010
          40 callgsubr
          -3 -249 rlineto
          hintmask 10010100
          -42 -24 -68 -34 -6 vvcurveto
          -22 35 -28 0 vhcurveto
          15 10 27 16 32 19 -2 -205 rcurveline
          -35 -19 -17 -48 vhcurveto
          -60 callgsubr
          56 54 1 54 hhcurveto
          hintmask 00110010
          94 92 -3 -10 100 -91 callgsubr
          hintmask 01010010
          -85 -38 -37 -45 -65 hhcurveto
          -97 hlineto
          -51 -13 21 54 -2 hvcurveto
          -7 213 rlineto
          66 39 113 57 10 vvcurveto
          22 -29 30 0 vhcurveto
          -27 -18 -61 -37 -65 -37 rrcurveto
          endchar
        </CharString>
        <CharString name="M">
          338 -4 42 -38 -20 685 32 callgsubr
          hstemhm
          hintmask 01100000
          407 hmoveto
          hintmask 10100000
          -3 2 10 -1 9 -6 callsubr
          10 9 1 3 3 hvcurveto
          213 530 21 -440 rlineto
          hintmask 10100000
          -45 2 -37 -7 -32 hhcurveto
          -37 callsubr
          -36 callgsubr
          hintmask 01100000
          -107 callgsubr
          23 64 6 32 33 55 -6 23 hhcurveto
          2 2 0 22 callgsubr
          -45 callsubr
          -49 -14 17 35 -3 hvcurveto
          -46 523 rlineto
          35 -3 18 17 51 hhcurveto
          3 3 2 11 10 vvcurveto
          hintmask 10010000
          6 -1 6 -47 callgsubr
          hintmask 10100000
          -2 -14 -30 -4 -24 hhcurveto
          hintmask 10010000
          -23 -28 4 2 -16 hvcurveto
          -225 -575 -211 575 rlineto
          hintmask 10100000
          -2 -16 -35 -4 -23 hhcurveto
          hintmask 10010000
          -23 -37 4 2 -14 hvcurveto
          -2 -2 0 -4 -5 vvcurveto
          hintmask 10100000
          -72 callgsubr
          52 -1 8 -5 -46 vvcurveto
          -44 15 callgsubr
          -3 -14 -24 callgsubr
          hintmask 01100000
          -107 callgsubr
          23 44 6 33 32 59 -6 23 hhcurveto
          1 1 1 4 4 vvcurveto
          hintmask 10100000
          10 -4 15 1 callsubr
          -50 -19 17 35 2 hvcurveto
          27 440 rlineto
          endchar
        </CharString>
        <CharString name="N">
          27 callgsubr
          hstemhm
          117 73 372 65 hintmask 11010110
          631 613 rmoveto
          36 15 16 51 -28 callsubr
          hintmask 11001110
          4 -1 3 -1 2 vhcurveto
          hintmask 11010110
          -23 -48 -6 -32 hhcurveto
          hintmask 11001110
          42 callgsubr
          hintmask 11010110
          11 callsubr
          hintmask 11001110
          -356 568 rlineto
          hintmask 11010110
          -2 -14 -45 -4 -23 hhcurveto
          hintmask 11001110
          36 callsubr
          hintmask 11010110
          -34 callsubr
          49 19 -17 -35 -1 hvcurveto
          -11 -1 callgsubr
          -16 17 callsubr
          23 48 6 33 33 67 -6 24 hhcurveto
          1 1 1 4 4 vvcurveto
          10 -4 15 1 callsubr
          -50 -16 15 -58 callgsubr
          -18 507 394 -597 rlineto
          hintmask 00110110
          -3 2 11 -1 11 hhcurveto
          hintmask 11010110
          11 10 1 3 3 hvcurveto
          endchar
        </CharString>
        <CharString name="Nacute">
          27 callgsubr
          123 44 callgsubr
          73 372 65 hintmask 0000011000000000
          494 -103 callsubr
          hintmask 1101000110000000
          137 -262 rmoveto
          36 15 16 51 -28 callsubr
          hintmask 1100100110000000
          4 -1 3 -1 2 vhcurveto
          hintmask 1101000110000000
          -23 -48 -6 -32 hhcurveto
          hintmask 1100100110000000
          42 callgsubr
          hintmask 1101000110000000
          11 callsubr
          hintmask 1100100110000000
          -356 568 rlineto
          hintmask 1101000110000000
          -2 -14 -45 -4 -23 hhcurveto
          hintmask 1100100110000000
          36 callsubr
          hintmask 1101000110000000
          -34 callsubr
          49 19 -17 -35 -1 hvcurveto
          -11 -1 callgsubr
          -16 17 callsubr
          23 48 6 33 33 67 -6 24 hhcurveto
          1 1 1 4 4 vvcurveto
          10 -4 15 1 callsubr
          -50 -16 15 -58 callgsubr
          -18 507 394 -597 rlineto
          hintmask 0011000110000000
          -3 2 11 -1 11 hhcurveto
          hintmask 1101000110000000
          11 10 1 3 3 hvcurveto
          endchar
        </CharString>
        <CharString name="Ntilde">
          205 166 214 78 196 endchar
        </CharString>
        <CharString name="O">
          -10 59 605 59 hstem
          9 callgsubr
          vstem
          53 352 -66 callgsubr
        </CharString>
        <CharString name="OE">
          460 -10 66 -56 -20 346 57 104 -20 187 45 -45 59 hstemhm
          53 87 367 78 hintmask 10110111
          573 643 -83 callgsubr
          -14 176 rlineto
          hintmask 10111011
          -13 -139 -72 -1 -108 hhcurveto
          -59 hlineto
          hintmask 10110111
          -79 -33 14 -67 hhcurveto
          -195 -91 -165 -196 -195 91 -167 195 hvcurveto
          hintmask 01111011
          32 62 10 74 60 53 1 51 hhcurveto
          hintmask 10111011
          77 74 -2 -9 92 -91 callgsubr
          -69 callsubr
          -225 -334 rmoveto
          -162 -54 175 165 141 46 124 157 48 116 -10 -100 hvcurveto
          -404 vlineto
          -72 -78 -19 -73 vhcurveto
          endchar
        </CharString>
        <CharString name="Oacute">
          2 callgsubr
          505 -103 callsubr
          hintmask 11001100
          -452 -67 callgsubr
        </CharString>
        <CharString name="Ocircumflex">
          167 214 79 195 endchar
        </CharString>
        <CharString name="Odieresis">
          168 234 79 200 endchar
        </CharString>
        <CharString name="Ograve">
          2 callgsubr
          192 -100 callsubr
          hintmask 11001100
          -139 -67 callgsubr
        </CharString>
        <CharString name="Oslash">
          -107 22 75 59 605 59 52 22 hstemhm
          9 callgsubr
          hintmask 01101100
          53 352 -104 callsubr
          hintmask 10010000
          156 713 rmoveto
          -13 25 -59 0 0 vvcurveto
          -43 -155 -182 -546 -58 -151 rrcurveto
          -21 15 52 1 6 hhcurveto
          44 156 180 540 58 151 rrcurveto
          endchar
        </CharString>
        <CharString name="Otilde">
          -10 59 605 59 88 57 -13 56 hstemhm
          9 callgsubr
          hintmask 11001100
          53 352 -104 callsubr
          hintmask 00100000
          129 845 -18 callsubr
          hintmask 00010000
          -93 callsubr
          hintmask 00100000
          -85 callgsubr
        </CharString>
        <CharString name="P">
          14 -20 callgsubr
          289 38 325 51 -38 38 hstemhm
          117 76 234 90 hintmask 10110110
          249 289 rmoveto
          143 3 125 79 143 vvcurveto
          121 -102 68 -121 vhcurveto
          -27 -84 -6 -38 -32 -42 -81 callgsubr
          hintmask 10101110
          -74 callsubr
          hintmask 01110110
          -107 callgsubr
          hintmask 10110110
          24 callsubr
          hintmask 01110110
          32 54 -88 callgsubr
          hintmask 10110110
          -45 callsubr
          -50 -14 17 35 -2 hvcurveto
          -26 555 rlineto
          5 24 27 2 24 hhcurveto
          110 62 -42 -110 -121 -74 -52 -121 hvcurveto
          -1 -1 0 -1 -1 vvcurveto
          -9 14 -22 4 -4 vhcurveto
          endchar
        </CharString>
        <CharString name="Q">
          -155 64 31 111 603 59 hstem
          9 callgsubr
          vstem
          816 -27 rmoveto
          -32 -40 -68 -32 -59 hhcurveto
          -65 -88 53 38 -78 hvcurveto
          155 36 78 148 170 vvcurveto
          200 -103 159 -204 -198 -93 -160 -199 -185 83 -159 177 -16 vhcurveto
          -41 -3 -58 -44 -11 vvcurveto
          -9 12 -21 4 -4 vhcurveto
          25 31 15 13 39 62 125 -95 98 hhcurveto
          96 98 60 31 36 hvcurveto
          0 -5 34 -9 3 vhcurveto
          -455 78 rmoveto
          -166 -55 175 164 144 49 120 149 176 50 -161 -174 -145 -49 -123 -154 hvcurveto
          endchar
        </CharString>
        <CharString name="R">
          93 6 21 callgsubr
          230 89 hintmask 10110110
          255 652 -82 callgsubr
          hintmask 10101110
          -74 callsubr
          hintmask 01110110
          -107 callgsubr
          hintmask 10110110
          24 callsubr
          hintmask 01110110
          32 54 -88 callgsubr
          hintmask 10110110
          -76 callsubr
          hintmask 01110110
          -43 callsubr
          hintmask 10110110
          -52 callgsubr
        </CharString>
        <CharString name="Racute">
          93 -20 callgsubr
          311 54 287 51 -38 38 103 44 callgsubr
          68 230 89 hintmask 0000011000000000
          392 -103 callsubr
          hintmask 1011000110000000
          -137 -223 -82 callgsubr
          hintmask 1010100110000000
          -74 callsubr
          hintmask 0111000110000000
          -107 callgsubr
          hintmask 1011000110000000
          24 callsubr
          hintmask 0111000110000000
          32 54 -88 callgsubr
          hintmask 1011000110000000
          -76 callsubr
          hintmask 0111000110000000
          -43 callsubr
          hintmask 1011000110000000
          -52 callgsubr
        </CharString>
        <CharString name="Rcaron">
          93 89 214 82 207 endchar
        </CharString>
        <CharString name="Rcommaaccent">
          93 -202 -21 186 -20 63 21 callgsubr
          107 89 34 89 hintmask 1100000010000000
          381 -44 callsubr
          hintmask 0010110101000000
          -126 746 -82 callgsubr
          hintmask 0010101101000000
          -74 callsubr
          hintmask 0001110101000000
          -107 callgsubr
          hintmask 0010110101000000
          24 callsubr
          hintmask 0001110101000000
          32 54 -88 callgsubr
          hintmask 0010110101000000
          -76 callsubr
          hintmask 0001110101000000
          -43 callsubr
          hintmask 0010110101000000
          -52 callgsubr
        </CharString>
        <CharString name="S">
          40 callsubr
          hstemhm
          73 87 241 89 hintmask 11101100
          395 687 rmoveto
          -7 -1 -2 -2 -3 hhcurveto
          -2 -2 1 2 -3 hvcurveto
          17 -26 -31 16 -65 hhcurveto
          -92 -95 -71 -125 hvcurveto
          -220 328 -4 -130 vvcurveto
          -77 -65 -38 -57 -91 -84 54 96 -13 vhcurveto
          -95 callsubr
          14 -205 rlineto
          -3 2 9 -1 8 hhcurveto
          8 8 1 3 3 hvcurveto
          3 22 rlineto
          7 1 2 2 3 hhcurveto
          1 3 -1 -1 2 hvcurveto
          -28 55 47 -5 46 hhcurveto
          89 133 55 129 hvcurveto
          208 -330 11 146 vvcurveto
          57 45 58 77 101 19 -68 -82 10 vhcurveto
          -13 callsubr
          205 rlineto
          hintmask 11011100
          -95 callsubr
          endchar
        </CharString>
        <CharString name="Scaron">
          40 callsubr
          114 9 callsubr
          73 87 241 89 hintmask 11100011
          395 687 rmoveto
          -7 -1 -2 -2 -3 hhcurveto
          -2 -2 1 2 -3 hvcurveto
          17 -26 -31 16 -65 hhcurveto
          -92 -95 -71 -125 hvcurveto
          -220 328 -4 -130 vvcurveto
          -77 -65 -38 -57 -91 -84 54 96 -13 vhcurveto
          -95 callsubr
          14 -205 rlineto
          -3 2 9 -1 8 hhcurveto
          8 8 1 3 3 hvcurveto
          3 22 rlineto
          7 1 2 2 3 hhcurveto
          1 3 -1 -1 2 hvcurveto
          -28 55 47 -5 46 hhcurveto
          89 133 55 129 hvcurveto
          208 -330 11 146 vvcurveto
          57 45 58 77 101 19 -68 -82 10 vhcurveto
          -13 callsubr
          205 rlineto
          hintmask 11010011
          -95 callsubr
          hintmask 00001100
          -155 81 rmoveto
          -2 2 8 -2 8 hhcurveto
          8 8 2 2 2 hvcurveto
          31 61 59 49 48 48 2 2 0 6 -7 12 rrcurveto
          7 -4 -11 9 -1 hhcurveto
          -3 -82 -61 -46 -50 hvcurveto
          46 -50 -82 61 -3 hhcurveto
          -1 -11 -9 -7 -4 hvcurveto
          -7 -12 0 -6 2 -2 48 -48 59 -49 31 -61 rrcurveto
          endchar
        </CharString>
        <CharString name="T">
          38 -20 callgsubr
          650 52 11 -20 hstemhm
          248 81 hintmask 10101000
          403 650 rmoveto
          87 14 -41 -66 -29 callsubr
          8 8 1 3 3 hvcurveto
          hintmask 10011000
          -15 170 rlineto
          hintmask 10101000
          -8 -82 -86 -3 -85 hhcurveto
          hintmask 10011000
          -85 -87 3 8 -81 hvcurveto
          -17 -170 rlineto
          -3 2 9 -1 8 hhcurveto
          8 8 1 3 3 hvcurveto
          hintmask 10101000
          66 12 16 41 87 hhcurveto
          81 hlineto
          -4 -560 rlineto
          -35 -18 -17 -49 vhcurveto
          -3 -3 -2 -11 -10 vvcurveto
          hintmask 01101000
          -6 1 -6 2 -2 vhcurveto
          hintmask 10101000
          -14 callgsubr
          hintmask 01101000
          32 55 -6 23 hhcurveto
          2 2 1 6 6 vvcurveto
          hintmask 10101000
          10 -2 11 -39 callgsubr
          -18 560 rlineto
          endchar
        </CharString>
        <CharString name="Thorn">
          21 -20 callgsubr
          174 38 310 51 92 32 callgsubr
          hstemhm
          117 81 236 90 hintmask 10111011
          261 174 rmoveto
          140 3 123 73 134 vvcurveto
          121 -102 68 -121 -20 -52 -4 -1 -41 vhcurveto
          -1 45 rlineto
          35 -1 18 17 49 hhcurveto
          -65 callgsubr
          hintmask 10110111
          -90 callgsubr
          hintmask 10111011
          -23 -41 -6 -33 hhcurveto
          hintmask 10110111
          -32 -56 -81 callgsubr
          hintmask 10111011
          -72 callgsubr
          50 17 -16 -35 hvcurveto
          -4 -524 -64 callsubr
          hintmask 01111011
          -107 callgsubr
          hintmask 10111011
          24 callsubr
          hintmask 01111011
          32 54 -88 callgsubr
          hintmask 10111011
          -46 callsubr
          -16 426 rlineto
          4 24 27 2 21 hhcurveto
          110 62 -42 -110 -111 -72 -47 -118 hvcurveto
          -1 -1 0 -3 -2 vvcurveto
          -9 13 -19 5 -4 vhcurveto
          endchar
        </CharString>
        <CharString name="U">
          177 -10 59 616 32 callgsubr
          hstemhm
          102 94 345 70 hintmask 11011000
          102 248 -81 callsubr
          hintmask 10111000
          -45 callgsubr
          hintmask 11011000
          -32 -64 -6 -33 hhcurveto
          hintmask 10111000
          -32 -69 6 -24 -87 callsubr
          hintmask 11011000
          -93 callgsubr
          hintmask 10111000
          -90 callgsubr
          hintmask 11011000
          -23 -74 -6 -33 hhcurveto
          hintmask 10111000
          -32 -82 6 -23 -87 callsubr
          hintmask 11011000
          -41 callgsubr
          69 16 -17 callgsubr
          endchar
        </CharString>
        <CharString name="Uacute">
          -11 callgsubr
          513 -103 callsubr
          hintmask 11000110
          -411 -96 callgsubr
        </CharString>
        <CharString name="Ucircumflex">
          177 183 214 85 195 endchar
        </CharString>
        <CharString name="Udieresis">
          177 -10 59 616 32 callgsubr
          102 105 hstemhm
          102 94 19 103 76 103 44 70 hintmask 11001001
          102 248 -81 callsubr
          hintmask 10101001
          -45 callgsubr
          hintmask 11001001
          -32 -64 -6 -33 hhcurveto
          hintmask 10101001
          -32 -69 6 -24 -87 callsubr
          hintmask 11001001
          -93 callgsubr
          hintmask 10101001
          -90 callgsubr
          hintmask 11001001
          -23 -74 -6 -33 hhcurveto
          hintmask 10101001
          -32 -82 6 -23 -87 callsubr
          hintmask 11001001
          -41 callgsubr
          69 16 -17 callgsubr
          hintmask 00010110
          163 172 -98 callgsubr
        </CharString>
        <CharString name="Ugrave">
          -11 callgsubr
          188 -100 callsubr
          hintmask 11000110
          -86 -96 callgsubr
        </CharString>
        <CharString name="V">
          162 44 callsubr
          330 hmoveto
          -3 2 10 -1 9 hhcurveto
          10 9 1 3 3 hvcurveto
          230 578 rlineto
          55 22 24 32 48 hhcurveto
          -48 callsubr
          -39 -54 -9 -45 5 callsubr
          -46 -33 9 -38 hhcurveto
          hintmask 11000000
          -88 callsubr
          59 27 -21 -32 -10 -3 -12 -4 -12 hvcurveto
          -170 -451 -173 451 rlineto
          -5 13 -3 13 11 vvcurveto
          33 28 17 58 vhcurveto
          -48 callsubr
          -38 -54 -9 -52 5 callsubr
          -53 -58 9 -37 hhcurveto
          hintmask 11000000
          -88 callsubr
          72 9 -32 -55 23 hvcurveto
          endchar
        </CharString>
        <CharString name="W">
          447 44 callsubr
          641 hmoveto
          -3 2 9 -1 8 hhcurveto
          8 8 1 3 3 hvcurveto
          212 578 rlineto
          56 20 23 31 46 hhcurveto
          -48 callsubr
          -36 -51 -9 -42 5 callsubr
          -43 -31 9 -36 hhcurveto
          hintmask 11000000
          -88 callsubr
          60 22 -23 -32 -10 -2 -10 -4 -12 hvcurveto
          -158 -451 -160 451 rlineto
          -6 15 -3 13 11 vvcurveto
          30 27 18 61 vhcurveto
          32 callsubr
          14 10 vvcurveto
          hintmask 10100000
          -45 callgsubr
          hintmask 11000000
          -36 -48 -9 -51 5 callsubr
          -51 -40 9 -36 hhcurveto
          hintmask 11000000
          -88 callsubr
          58 -2 2 -26 23 -59 40 -102 rcurveline
          -121 -349 -160 451 rlineto
          -7 18 -4 14 14 vvcurveto
          26 15 15 47 vhcurveto
          -48 callsubr
          -38 -23 -9 -51 5 callsubr
          -51 -54 9 -36 hhcurveto
          -2 -2 0 -4 -5 vvcurveto
          hintmask 11000000
          -72 callgsubr
          70 11 -32 -55 21 hvcurveto
          223 -578 rlineto
          -3 2 9 -1 8 hhcurveto
          8 8 1 3 3 hvcurveto
          143 392 rlineto
          endchar
        </CharString>
        <CharString name="X">
          186 8 30 -17 -21 665 29 9 -20 hstemhm
          516 195 hintmask 10101000
          585 599 rmoveto
          65 49 7 1 62 hhcurveto
          4 4 4 16 10 vvcurveto
          hintmask 10011000
          4 -1 3 -1 1 vhcurveto
          hintmask 10101000
          -38 -43 -9 -52 hhcurveto
          hintmask 10011000
          -51 -45 9 -37 17 callgsubr
          43 26 -10 -21 -8 -4 -10 -9 -12 hvcurveto
          -138 -183 -97 136 rlineto
          -27 38 -15 27 17 vvcurveto
          18 17 8 36 -28 callsubr
          hintmask 10011000
          4 -1 3 -1 2 vhcurveto
          hintmask 10101000
          -37 -54 -9 -51 hhcurveto
          hintmask 10011000
          -52 -45 9 -36 17 callgsubr
          84 30 -60 -133 95 hvcurveto
          89 -125 -180 -243 rlineto
          -60 -45 -29 -6 -45 hhcurveto
          -4 -4 -4 -16 -10 vvcurveto
          hintmask 01101000
          -4 1 -3 1 -1 vhcurveto
          hintmask 10101000
          38 42 8 52 hhcurveto
          hintmask 01101000
          52 32 -8 37 hhcurveto
          1 1 1 4 4 vvcurveto
          hintmask 10101000
          10 -3 15 -4 4 vhcurveto
          -20 -40 -1 21 9 6 12 13 18 hvcurveto
          139 189 95 -137 rlineto
          28 -41 16 -28 -17 vvcurveto
          -18 -16 -7 -34 8 callsubr
          hintmask 01101000
          -4 0 -4 2 -1 vhcurveto
          hintmask 10101000
          36 69 8 50 hhcurveto
          hintmask 01101000
          53 34 -8 37 hhcurveto
          1 1 1 4 4 vvcurveto
          hintmask 10101000
          10 -4 15 1 callsubr
          -83 -1 -34 62 -96 135 -90 127 rcurveline
          endchar
        </CharString>
        <CharString name="Y">
          106 -23 callgsubr
          29 9 -20 hstemhm
          hintmask 10100000
          216 38 rmoveto
          -37 callsubr
          -36 callgsubr
          hintmask 01100000
          -107 callgsubr
          hintmask 10100000
          23 64 6 32 -6 callsubr
          33 55 -6 23 hhcurveto
          2 2 1 22 callgsubr
          10 -3 3 callsubr
          -12 185 159 300 rlineto
          53 28 26 37 68 hhcurveto
          32 callsubr
          14 10 vvcurveto
          hintmask 10010000
          -45 callgsubr
          hintmask 10100000
          -35 -22 -9 -48 hhcurveto
          hintmask 10010000
          -47 -30 9 -35 -37 callgsubr
          4 -15 3 -3 vhcurveto
          14 29 -2 -22 -16 -11 -23 -14 -27 hvcurveto
          -118 -227 -137 227 rlineto
          -12 20 -8 20 15 vvcurveto
          22 17 13 45 -28 callsubr
          hintmask 10010000
          4 -1 3 -1 2 vhcurveto
          hintmask 10100000
          -41 -38 -9 -57 hhcurveto
          hintmask 10010000
          -57 -42 9 -40 hhcurveto
          hintmask 10100000
          -88 callsubr
          79 23 -38 -52 30 hvcurveto
          181 -319 -5 -166 rlineto
          -35 -1 -17 -17 -49 hhcurveto
          endchar
        </CharString>
        <CharString name="Yacute">
          106 -23 callgsubr
          29 9 -3 callsubr
          hintmask 00001100
          486 -103 callsubr
          hintmask 10100000
          -270 -837 rmoveto
          -37 callsubr
          -36 callgsubr
          hintmask 01100000
          -107 callgsubr
          hintmask 10100000
          23 64 6 32 -6 callsubr
          33 55 -6 23 hhcurveto
          2 2 1 22 callgsubr
          10 -3 3 callsubr
          -12 185 159 300 rlineto
          53 28 26 37 68 hhcurveto
          32 callsubr
          14 10 vvcurveto
          hintmask 10010000
          -45 callgsubr
          hintmask 10100000
          -35 -22 -9 -48 hhcurveto
          hintmask 10010000
          -47 -30 9 -35 -37 callgsubr
          4 -15 3 -3 vhcurveto
          14 29 -2 -22 -16 -11 -23 -14 -27 hvcurveto
          -118 -227 -137 227 rlineto
          -12 20 -8 20 15 vvcurveto
          22 17 13 45 -28 callsubr
          hintmask 10010000
          4 -1 3 -1 2 vhcurveto
          hintmask 10100000
          -41 -38 -9 -57 hhcurveto
          hintmask 10010000
          -57 -42 9 -40 hhcurveto
          hintmask 10100000
          -88 callsubr
          79 23 -38 -52 30 hvcurveto
          181 -319 -5 -166 rlineto
          -35 -1 -17 -17 -49 hhcurveto
          endchar
        </CharString>
        <CharString name="Ycircumflex">
          106 151 214 89 195 endchar
        </CharString>
        <CharString name="Ydieresis">
          106 150 234 89 200 endchar
        </CharString>
        <CharString name="Ygrave">
          106 -23 callgsubr
          29 9 -3 callsubr
          hintmask 00001100
          151 -100 callsubr
          hintmask 10100000
          65 -837 rmoveto
          -37 callsubr
          -36 callgsubr
          hintmask 01100000
          -107 callgsubr
          hintmask 10100000
          23 64 6 32 -6 callsubr
          33 55 -6 23 hhcurveto
          2 2 1 22 callgsubr
          10 -3 3 callsubr
          -12 185 159 300 rlineto
          53 28 26 37 68 hhcurveto
          32 callsubr
          14 10 vvcurveto
          hintmask 10010000
          -45 callgsubr
          hintmask 10100000
          -35 -22 -9 -48 hhcurveto
          hintmask 10010000
          -47 -30 9 -35 -37 callgsubr
          4 -15 3 -3 vhcurveto
          14 29 -2 -22 -16 -11 -23 -14 -27 hvcurveto
          -118 -227 -137 227 rlineto
          -12 20 -8 20 15 vvcurveto
          22 17 13 45 -28 callsubr
          hintmask 10010000
          4 -1 3 -1 2 vhcurveto
          hintmask 10100000
          -41 -38 -9 -57 hhcurveto
          hintmask 10010000
          -57 -42 9 -40 hhcurveto
          hintmask 10100000
          -88 callsubr
          79 23 -38 -52 30 hvcurveto
          181 -319 -5 -166 rlineto
          -35 -1 -17 -17 -49 hhcurveto
          endchar
        </CharString>
        <CharString name="Z">
          54 3 52 -44 -21 644 66 13 -20 hstemhm
          484 47 hintmask 10101000
          523 703 rmoveto
          -2 -56 -54 -1 -53 hhcurveto
          hintmask 10011000
          -93 -91 3 10 -100 hvcurveto
          -17 -186 rlineto
          -3 2 9 -1 8 hhcurveto
          9 8 1 3 3 hvcurveto
          hintmask 10101000
          12 75 6 25 96 7 rrcurveto
          0 152 11 42 12 6 0 -5 1 vhcurveto
          1 -6 -1 -3 -3 -5 -377 -559 rcurveline
          0 -8 -33 -19 vvcurveto
          -8 1 -6 4 -1 vhcurveto
          2 56 58 1 60 hhcurveto
          hintmask 01101000
          103 106 -3 -10 100 hvcurveto
          12 224 rlineto
          4 -4 -29 7 -14 hhcurveto
          -3 -2 0 -1 -1 hvcurveto
          -2 -99 -11 -63 -68 -2 -270 -9 rcurveline
          -2 1 -1 2 2 vvcurveto
          6 7 10 0 vhcurveto
          395 579 rlineto
          0 1 10 12 vvcurveto
          13 -2 14 -8 3 vhcurveto
          endchar
        </CharString>
        <CharString name="Zcaron">
          54 133 214 90 207 endchar
        </CharString>
        <CharString name="a">
          13 callgsubr
          -2 callgsubr
          hintmask 11010100
          39 113 rmoveto
          -69 58 -54 73 58 51 25 29 34 vhcurveto
          -37 20 26 -17 26 hhcurveto
          42 35 18 11 11 hvcurveto
          2 2 0 4 5 vvcurveto
          10 -4 9 -3 5 vhcurveto
          -7 -16 -13 -3 -12 hhcurveto
          -29 -15 21 43 1 hvcurveto
          4 230 rlineto
          88 2 -44 64 -132 hhcurveto
          hintmask 11001100
          -54 callgsubr
          hintmask 10110100
          24 41 7 35 75 27 -42 -91 vhcurveto
          -8 0 -8 -9 vvcurveto
          -69 -14 rlineto
          -147 -30 -54 -48 -75 vvcurveto
          273 -27 rmoveto
          -19 -32 -55 -19 -28 hhcurveto
          -42 -25 33 39 49 24 20 104 26 hvcurveto
          52 13 rlineto
          endchar
        </CharString>
        <CharString name="aacute">
          13 callgsubr
          104 -21 194 -20 -94 callgsubr
          hintmask 00011000
          27 466 -82 callsubr
        </CharString>
        <CharString name="acircumflex">
          -54 38 -15 97 195 endchar
        </CharString>
        <CharString name="acute">
          -292 604 -21 194 -20 hstem
          226 704 -82 callsubr
        </CharString>
        <CharString name="adieresis">
          -54 57 18 97 200 endchar
        </CharString>
        <CharString name="ae">
          186 -10 63 192 51 28 166 -52 52 -2 callgsubr
          204 87 hintmask 11100111
          665 58 -25 callsubr
          18 -5 5 vhcurveto
          -33 -47 -63 -11 -41 hhcurveto
          -69 -48 91 101 hvcurveto
          291 hlineto
          134 -48 111 -120 -60 -50 -23 -35 -34 vhcurveto
          34 -28 -43 24 -80 hhcurveto
          -54 callgsubr
          hintmask 11011011
          24 41 7 35 75 27 -37 -95 vhcurveto
          -8 0 -9 -9 vvcurveto
          -69 -14 rlineto
          -146 -30 -55 -51 -72 vvcurveto
          -69 58 -54 73 69 66 37 43 41 vhcurveto
          -58 34 67 -22 43 hhcurveto
          74 54 21 47 47 hvcurveto
          -353 28 rmoveto
          -19 -32 -55 -19 -28 hhcurveto
          -42 -25 33 39 43 19 33 161 32 hvcurveto
          279 74 rmoveto
          -5 -7 -25 -1 -37 -37 -47 1 -49 hhcurveto
          88 6 45 57 66 hhcurveto
          62 24 -70 -54 hvcurveto
          -6 -1 -5 -5 vvcurveto
          endchar
        </CharString>
        <CharString name="agrave">
          -54 56 2 97 193 endchar
        </CharString>
        <CharString name="ampersand">
          245 -10 52 349 28 242 52 hstemhm
          62 84 -30 82 177 60 hintmask 11110100
          463 158 rmoveto
          -56 -39 -50 -60 -87 hhcurveto
          -75 -66 51 81 87 42 55 70 51 hvcurveto
          26 294 rmoveto
          59 32 -48 -49 -43 -43 -36 -54 -37 hvcurveto
          hintmask 11101100
          -43 35 -37 40 47 vvcurveto
          48 30 43 56 vhcurveto
          271 -597 rmoveto
          -37 38 47 -37 53 hhcurveto
          37 38 21 25 6 -2 8 -6 7 hvcurveto
          -7 -9 -18 -11 -36 hhcurveto
          -33 -25 7 75 -67 hvcurveto
          -42 47 104 176 rlineto
          38 22 26 9 34 3 4 0 4 hhcurveto
          4 4 4 16 10 vvcurveto
          4 -1 3 -1 1 vhcurveto
          -31 -35 -10 -34 -46 -44 10 -40 hhcurveto
          -88 callsubr
          37 31 -3 -22 -6 -2 -7 -5 -9 hvcurveto
          -76 -134 -172 198 rlineto
          67 47 47 44 82 vvcurveto
          76 -62 56 -91 -85 -81 -62 -88 -73 54 -50 43 -33 vhcurveto
          hintmask 11110100
          -67 -55 -84 -75 -103 vvcurveto
          -112 113 -72 107 98 62 49 81 58 vhcurveto
          endchar
        </CharString>
        <CharString name="approxequal">
          56 141 58 -21 21 -21 58 57 58 -21 21 -21 58 hstemhm
          hintmask 10001000
          496 381 rmoveto
          -14 -29 -24 -16 -42 hhcurveto
          hintmask 10000100
          -58 callsubr
          hintmask 01010000
          -46 callgsubr
          -152 vmoveto
          -14 -29 -24 -16 -42 hhcurveto
          hintmask 00110000
          -58 callsubr
          hintmask 10010000
          -46 callgsubr
          endchar
        </CharString>
        <CharString name="aring">
          -54 103 -10 97 202 endchar
        </CharString>
        <CharString name="asciicircum">
          -78 376 -21 352 -20 hstem
          22 359 rmoveto
          35 callsubr
          150 246 150 -246 rlineto
          35 callsubr
          -188 344 rlineto
          -104 callgsubr
          endchar
        </CharString>
        <CharString name="asciitilde">
          34 216 58 -21 21 -21 58 hstemhm
          hintmask 01000000
          489 304 rmoveto
          -14 -29 -24 -16 -42 hhcurveto
          hintmask 00100000
          -58 callsubr
          hintmask 10000000
          -46 callgsubr
          endchar
        </CharString>
        <CharString name="asterisk">
          -98 393 -21 398 -20 hstemhm
          51 181 -62 62 -33 64 -64 182 hintmask 11100000
          56 662 rmoveto
          -7 -11 1 -11 5 -10 34 6 48 -33 41 -26 -64 -19 -43 -21 -8 -5 rrcurveto
          -11 -7 -1 -6 -8 vvcurveto
          -20 20 -35 20 vhcurveto
          4 24 51 30 45 24 rrcurveto
          hintmask 11010000
          -10 -46 -11 -63 -25 vvcurveto
          -24 25 -4 24 12 12 5 10 6 vhcurveto
          -14 12 -3 38 39 vvcurveto
          17 0 17 1 16 vhcurveto
          40 -36 46 -35 18 -5 rrcurveto
          hintmask 11000100
          21 -6 23 34 22 vvcurveto
          3 -1 8 -2 4 vhcurveto
          -35 -9 -47 34 -43 26 63 21 43 20 11 6 rrcurveto
          8 4 2 13 9 vvcurveto
          19 -16 30 -23 vhcurveto
          -4 -25 -52 -30 -45 -23 rrcurveto
          hintmask 11001000
          10 45 13 64 25 vvcurveto
          12 -14 14 -36 -12 -12 -3 -10 -6 vhcurveto
          13 -12 3 -37 -39 vvcurveto
          -17 0 -18 -1 -16 vhcurveto
          -40 36 -33 27 -22 14 -11 7 -18 -10 -18 -30 rrcurveto
          endchar
        </CharString>
        <CharString name="at">
          213 -133 45 125 44 207 124 -39 39 106 41 hstemhm
          51 70 116 68 -55 55 -55 75 115 57 144 70 hintmask 1110110101100000
          443 108 rmoveto
          -13 -25 -41 -14 -22 hhcurveto
          -30 -20 25 28 37 19 14 78 20 hvcurveto
          39 10 rlineto
          270 64 rmoveto
          180 -153 100 -167 -197 -143 -170 -173 -202 153 -147 194 56 77 13 38 60 vhcurveto
          0 1 4 5 vvcurveto
          7 -2 10 -7 3 vhcurveto
          -14 -33 -50 -21 -72 hhcurveto
          -180 -127 121 182 137 97 166 164 151 108 -84 -161 -121 -41 -70 -50 -34 -22 15 47 1 hvcurveto
          4 154 rlineto
          66 2 -34 48 -99 hhcurveto
          -54 -64 -33 -55 -21 15 -15 22 hvcurveto
          hintmask 1101110011100000
          23 15 10 15 hvcurveto
          21 -19 5 11 vvcurveto
          17 31 6 27 64 16 -45 -74 -4 vhcurveto
          -52 -10 rlineto
          hintmask 1110111001100000
          -111 -21 -40 -37 -57 vvcurveto
          -51 44 -41 54 44 39 19 22 25 vhcurveto
          -29 14 33 -12 37 hhcurveto
          121 63 124 118 hvcurveto
          endchar
        </CharString>
        <CharString name="atilde">
          13 callgsubr
          95 57 -13 56 -94 callgsubr
          hintmask 00010000
          51 450 -18 callsubr
          hintmask 00001000
          -93 callsubr
          hintmask 00010000
          -85 callgsubr
        </CharString>
        <CharString name="b">
          12 -10 53 399 48 274 -20 hstem
          76 71 268 87 vstem
          415 235 -21 callgsubr
          55 -2 72 53 53 hhcurveto
          101 36 -79 -128 hvcurveto
          -270 -164 -18 callgsubr
          -10 329 rlineto
          -104 callgsubr
          -29 -29 -37 -4 -41 -3 rrcurveto
          -75 callsubr
          -5 -643 rlineto
          -3 2 8 -1 8 hhcurveto
          8 7 1 3 3 hvcurveto
          endchar
        </CharString>
        <CharString name="backslash">
          -139 6 -21 801 -20 hstem
          34 763 rmoveto
          53 -139 166 -496 40 -143 rrcurveto
          5 47 -1 19 15 hvcurveto
          -53 139 -167 502 -40 142 rrcurveto
          0 -54 0 -12 -23 vhcurveto
          endchar
        </CharString>
        <CharString name="bar">
          -302 43 callsubr
          86 60 vstem
          151 -277 rmoveto
          51 vlineto
          134 -5 214 205 vvcurveto
          163 3 157 12 108 vhcurveto
          -31 callgsubr
          -1 -23 0 -27 -31 -138 5 -205 -194 vvcurveto
          -158 -3 -152 -11 -104 -36 callsubr
          endchar
        </CharString>
        <CharString name="braceleft">
          33 callgsubr
          106 69 -69 203 cntrmask 11100000
          hintmask 11110000
          307 -248 rmoveto
          -1 -11 -10 -1 -10 hhcurveto
          -92 -9 66 97 hvcurveto
          5 187 3 94 -73 42 -28 4 rlinecurve
          28 4 73 40 -3 96 -5 187 rcurveline
          96 9 67 92 10 10 -1 -1 11 vhcurveto
          hintmask 11101000
          1 1 1 4 5 vvcurveto
          11 -4 17 1 callsubr
          -160 -36 -59 -160 -246 -12 -44 -70 hvcurveto
          -3 -3 -1 -9 -9 vvcurveto
          -9 1 -10 3 -2 vhcurveto
          70 12 -44 -246 -160 36 -59 160 hvcurveto
          3 3 4 17 12 vvcurveto
          5 -1 3 -1 2 vhcurveto
          endchar
        </CharString>
        <CharString name="braceright">
          33 callgsubr
          11 203 -69 69 cntrmask 11100000
          hintmask 11110000
          13 -248 rmoveto
          -1 -2 -1 -3 -5 vvcurveto
          -12 4 -17 3 -3 vhcurveto
          160 36 59 160 246 12 44 70 hvcurveto
          3 2 1 10 9 vvcurveto
          9 -1 9 -3 3 vhcurveto
          -70 -12 44 246 160 -36 59 -160 hvcurveto
          -3 -4 -4 -17 -11 vvcurveto
          -5 1 -4 1 -1 vhcurveto
          1 11 10 1 10 hhcurveto
          hintmask 11101000
          92 12 -67 -96 -3 hvcurveto
          -5 -187 -3 -96 73 -40 28 -4 rlinecurve
          -28 -4 -73 -42 3 -94 5 -187 rcurveline
          -97 3 -12 -66 -92 hhcurveto
          -10 -10 1 1 -11 hvcurveto
          endchar
        </CharString>
        <CharString name="bracketleft">
          30 callgsubr
          83 64 hintmask 10011000
          361 770 rmoveto
          hintmask 10101000
          -8 -79 -58 -3 -67 hhcurveto
          -22 -22 0 1 -25 hvcurveto
          -10 -1041 rlineto
          1 28 26 0 26 hhcurveto
          hintmask 01101000
          67 63 -3 -7 75 hvcurveto
          4 5 2 8 8 vvcurveto
          20 -9 22 0 vhcurveto
          hintmask 10101000
          -2 -25 -105 0 -80 hhcurveto
          -5 940 rlineto
          34 hlineto
          73 84 -2 -2 22 hvcurveto
          0 9 22 19 vvcurveto
          hintmask 10011000
          9 -2 7 -4 6 vhcurveto
          endchar
        </CharString>
        <CharString name="bracketright">
          30 callgsubr
          228 65 hintmask 10011000
          15 770 rmoveto
          -5 -6 -1 -7 -9 vvcurveto
          -19 9 -22 0 vhcurveto
          hintmask 10101000
          2 22 84 2 73 hhcurveto
          34 hlineto
          -5 -940 rlineto
          -80 -105 0 2 -25 hvcurveto
          hintmask 01101000
          0 -9 -22 -20 vvcurveto
          -8 1 -8 5 -5 vhcurveto
          hintmask 10101000
          7 75 63 3 67 hhcurveto
          26 26 0 -1 28 hvcurveto
          -10 1041 rlineto
          -1 -25 -22 0 -22 hhcurveto
          hintmask 10011000
          -67 -58 3 8 -79 hvcurveto
          endchar
        </CharString>
        <CharString name="brokenbar">
          -301 -268 -21 1060 -20 hstem
          86 60 vstem
          82 758 rmoveto
          -1 -2 0 -15 -25 -115 5 -308 -2 vvcurveto
          -1 5 -1 4 17 34 5 0 vhcurveto
          1 259 1 162 13 41 rrcurveto
          -31 callgsubr
          69 -1034 rmoveto
          2 1 13 20 108 -6 318 3 vvcurveto
          1 -1 -6 2 -6 hhcurveto
          -16 -31 -5 0 hvcurveto
          -1 -35 0 -40 -40 -38 0 -39 -37 vvcurveto
          -107 -1 -95 -12 -29 -36 callsubr
          endchar
        </CharString>
        <CharString name="bullet">
          -202 178 151 hstem
          92 149 vstem
          163 178 rmoveto
          49 29 27 47 43 -36 34 -42 -44 -27 -33 -44 -43 28 -31 43 hvcurveto
          endchar
        </CharString>
        <CharString name="c">
          -83 -10 63 273 164 -48 48 hstemhm
          44 87 207 74 hintmask 10111000
          412 59 -25 callsubr
          19 -5 4 vhcurveto
          -28 -34 -61 -17 -47 hhcurveto
          -98 -30 98 111 114 56 66 77 29 45 -14 -19 hvcurveto
          hintmask 11011000
          27 callsubr
          65 -60 50 -87 -142 -79 -115 -135 -143 66 -107 133 79 51 27 42 39 vhcurveto
          endchar
        </CharString>
        <CharString name="caron">
          -178 593 14 callsubr
          hstem
          160 576 rmoveto
          -2 2 8 -2 8 hhcurveto
          8 8 2 2 2 hvcurveto
          31 61 59 49 48 48 2 2 0 6 -7 12 rrcurveto
          7 -4 -11 9 -1 hhcurveto
          -3 -82 -61 -46 -50 hvcurveto
          46 -50 -82 61 -3 hhcurveto
          -1 -11 -9 -7 -4 hvcurveto
          -7 -12 0 -6 2 -2 48 -48 59 -49 31 -61 rrcurveto
          endchar
        </CharString>
        <CharString name="ccedilla">
          -83 119 0 99 203 endchar
        </CharString>
        <CharString name="cedilla">
          -313 -235 29 235 -20 hstem
          27 40 83 46 vstem
          150 -144 -75 callgsubr
        </CharString>
        <CharString name="cent">
          -74 -101 -21 113 62 273 163 125 -20 hstemhm
          47 87 95 38 -38 50 38 98 -74 74 hintmask 1111110010000000
          262 -116 rmoveto
          4 107 rlineto
          55 52 26 42 42 hvcurveto
          3 3 2 3 3 vvcurveto
          9 -12 17 -4 4 vhcurveto
          -33 -27 -58 -17 -46 -1 rrcurveto
          hintmask 1111101010000000
          3 119 3 146 6 123 rrcurveto
          28 -3 34 -13 -16 vvcurveto
          hintmask 1111110100000000
          27 callsubr
          61 -54 48 -79 5 vhcurveto
          2 43 3 39 3 33 30 callsubr
          -2 -32 -2 -41 -1 -48 rrcurveto
          -119 -18 -65 -106 -123 vvcurveto
          -132 55 -101 113 -15 vhcurveto
          -2 -39 -2 -35 -3 -30 rrcurveto
          33 callsubr
          -128 378 rmoveto
          95 38 61 57 18 vhcurveto
          -3 -115 -3 -140 -5 -120 rrcurveto
          -63 25 -21 83 93 vvcurveto
          endchar
        </CharString>
        <CharString name="circumflex">
          -178 593 14 callsubr
          hstem
          160 766 rmoveto
          -31 -61 -55 -53 -52 -44 -2 -2 0 -6 7 -12 rrcurveto
          -7 4 11 -9 1 hhcurveto
          3 83 60 46 49 hvcurveto
          -46 50 82 -60 3 hhcurveto
          1 11 9 7 4 hvcurveto
          7 12 0 6 -2 2 -48 48 -59 49 -31 61 rrcurveto
          -104 callgsubr
          endchar
        </CharString>
        <CharString name="colon">
          -286 0 114 252 114 hstem
          68 113 vstem
          122 366 -55 callsubr
          -366 vmoveto
          -102 callsubr
          endchar
        </CharString>
        <CharString name="comma">
          -309 114 -20 hstemhm
          52 121 vstemhm
          173 36 rmoveto
          53 -32 25 -33 -33 -23 -25 -33 vhcurveto
          hintmask 11000000
          -55 66 8 -24 vvcurveto
          -31 -23 -14 -40 -37 vhcurveto
          -3 -3 -1 -5 4 -7 7 -12 17 37 callsubr
        </CharString>
        <CharString name="copyright">
          93 191 36 48 44 188 114 -33 33 56 36 hstemhm
          61 36 73 60 127 68 106 36 hintmask 1101111110000000
          -67 callsubr
          -105 -127 rmoveto
          2 2 1 3 -1 3 -3 8 -5 7 -3 4 rrcurveto
          -20 -23 -43 -11 -32 hhcurveto
          -68 -21 67 77 79 39 46 53 21 31 -10 -13 hvcurveto
          -11 -17 -4 -19 vvcurveto
          hintmask 1110111110000000
          -14 13 -10 21 21 13 13 21 45 -42 35 -60 -98 -55 -80 -93 -99 46 -74 92 45 38 13 35 35 vhcurveto
          endchar
        </CharString>
        <CharString name="currency">
          15 54 83 -40 40 311 42 -42 80 hstemhm
          86 67 247 67 hintmask 10011100
          447 528 rmoveto
          -65 -71 rlineto
          hintmask 10101100
          21 -31 -36 12 -39 hhcurveto
          -40 -38 -13 -22 -30 hvcurveto
          hintmask 10011100
          -67 73 rlineto
          -28 -1 -18 -41 0 vvcurveto
          9 -9 27 -27 34 -37 rrcurveto
          -25 -34 -14 -41 -45 vvcurveto
          -46 14 -42 25 -33 vhcurveto
          -36 -39 -27 -28 -10 -9 rrcurveto
          0 18 -41 28 -1 vhcurveto
          70 77 rlineto
          hintmask 01101100
          -22 31 37 -12 40 hhcurveto
          39 36 12 20 31 hvcurveto
          hintmask 10011100
          33 -37 27 -29 9 -9 rrcurveto
          28 1 18 41 0 vvcurveto
          -10 8 -27 28 -35 38 rrcurveto
          26 33 16 43 47 vvcurveto
          46 -16 43 -26 34 vhcurveto
          34 35 24 26 10 9 rrcurveto
          0 -19 41 -27 1 vhcurveto
          -47 -235 rmoveto
          -80 -45 -76 -79 -79 -44 77 79 85 38 70 85 84 40 -70 -85 vhcurveto
          endchar
        </CharString>
        <CharString name="d">
          36 -10 53 399 48 198 36 40 -20 hstem
          44 87 256 76 vstem
          131 225 -17 callsubr
          346 -235 rmoveto
          52 33 25 12 10 -4 13 -3 4 hvcurveto
          -6 -14 -13 -3 -10 hhcurveto
          -30 -14 25 45 -1 hvcurveto
          -19 645 -33 callsubr
          35 -13 -38 hvcurveto
          -2 -206 rlineto
          30 -30 -46 29 -60 hhcurveto
          -131 -78 -127 -144 -128 70 -101 133 62 53 38 43 34 hvcurveto
          0 10 -81 71 vhcurveto
          endchar
        </CharString>
        <CharString name="dagger">
          -80 -182 -21 653 59 262 -20 hstem
          193 70 vstem
          418 448 rmoveto
          -69 callgsubr
          1 -84 2 -90 -87 vvcurveto
          -145 -3 -138 -11 -94 -36 callsubr
          46 vlineto
          125 -5 202 188 27 0 26 26 vvcurveto
          73 68 -1 -1 19 hvcurveto
          endchar
        </CharString>
        <CharString name="daggerdbl">
          -67 -182 -21 413 59 181 59 262 -20 hstem
          199 65 vstem
          424 208 rmoveto
          -70 callgsubr
          -19 -70 0 -74 hhcurveto
          95 vlineto
          29 0 29 28 vvcurveto
          73 68 -1 -1 19 hvcurveto
          -69 callgsubr
          3 -181 rlineto
          -75 -71 0 2 -18 hvcurveto
          -5 -6 -1 -7 -9 vvcurveto
          -19 9 -22 0 vhcurveto
          1 18 69 1 74 hhcurveto
          -21 vlineto
          -145 -3 -138 -11 -94 -36 callsubr
          46 vlineto
          90 -3 128 -2 136 vhcurveto
          73 68 -1 -1 19 hvcurveto
          endchar
        </CharString>
        <CharString name="degree">
          -193 446 50 167 50 hstem
          41 49 161 49 vstem
          300 579 rmoveto
          72 -58 62 -72 -72 -57 -62 -72 -74 55 -59 74 74 56 59 74 vhcurveto
          -49 hmoveto
          -46 -35 -37 -46 -46 -34 37 46 49 31 35 49 49 32 -35 -49 vhcurveto
          endchar
        </CharString>
        <CharString name="dieresis">
          -188 571 105 hstem
          32 103 76 103 vstem
          83 571 -98 callgsubr
        </CharString>
        <CharString name="divide">
          -19 45 98 78 59 -40 -21 63 -20 84 98 hstemhm
          208 97 hintmask 10001100
          254 346 rmoveto
          7 callsubr
          -301 vmoveto
          7 callsubr
          hintmask 00110000
          194 174 -77 callgsubr
          hintmask 01000000
          -2 -22 -86 0 -86 hhcurveto
          hintmask 00110000
          -86 -86 19 callsubr
          hintmask 01000000
          1 21 84 1 85 hhcurveto
          hintmask 00110000
          23 callgsubr
          endchar
        </CharString>
        <CharString name="dollar">
          -1 -69 -21 80 -20 21 58 451 -20 233 -20 77 -20 hstemhm
          71 87 90 38 -32 42 -42 55 -55 187 -42 89 hintmask 1111111000100000
          65 -6 rmoveto
          -3 2 9 -1 8 hhcurveto
          8 8 1 3 3 hvcurveto
          3 22 rlineto
          7 1 2 2 3 hhcurveto
          1 3 -1 -1 2 hvcurveto
          42 -22 37 -7 36 -3 -6 -71 rcurveline
          33 callsubr
          3 75 rlineto
          hintmask 1111111010010000
          88 7 116 55 121 vvcurveto
          115 -101 55 -91 50 vhcurveto
          hintmask 1111111001010000
          3 91 5 90 5 77 76 -12 16 -63 9 -73 rrcurveto
          -13 callsubr
          205 rlineto
          -95 callsubr
          -3 -22 rlineto
          -7 -1 -3 -2 -3 hhcurveto
          -7 -27 23 8 -39 hvcurveto
          1 18 2 17 2 16 30 callsubr
          -3 -50 rlineto
          -95 -95 -71 -125 hvcurveto
          hintmask 1111111100010000
          -116 91 -56 86 -46 vhcurveto
          -3 -87 -3 -86 -5 -75 -75 14 -62 51 -11 82 rrcurveto
          -95 callsubr
          242 77 rmoveto
          58 -31 48 -32 -49 vvcurveto
          -73 -58 -38 -55 -4 vhcurveto
          2 67 2 79 3 81 rrcurveto
          -42 144 rmoveto
          -53 33 -40 34 52 vvcurveto
          51 37 53 63 9 vhcurveto
          endchar
        </CharString>
        <CharString name="dotaccent">
          -359 569 114 hstem
          31 113 vstem
          85 569 -55 callsubr
          endchar
        </CharString>
        <CharString name="dotaccentcmb">
          -359 569 114 hstem
          31 113 vstem
          85 569 -55 callsubr
          endchar
        </CharString>
        <CharString name="dotlessi">
          -10 callsubr
          hstemhm
          32 165 -80 80 hintmask 10110000
          189 480 rmoveto
          -104 callgsubr
          -30 -30 -44 0 -41 -5 rrcurveto
          -105 callgsubr
          54 29 -13 -38 hvcurveto
          hintmask 10101000
          -21 callsubr
          hintmask 01110000
          -107 callgsubr
          hintmask 10110000
          -91 callsubr
          hintmask 01110000
          35 60 -6 25 hhcurveto
          2 2 0 4 6 vvcurveto
          hintmask 10110000
          -106 callgsubr
          endchar
        </CharString>
        <CharString name="e">
          14 callgsubr
          hstem
          44 88 224 87 vstem
          -100 callgsubr
          endchar
        </CharString>
        <CharString name="eacute">
          -49 127 -10 101 194 endchar
        </CharString>
        <CharString name="ecircumflex">
          14 callgsubr
          88 9 callsubr
          44 88 224 87 hintmask 11100110
          -100 callgsubr
          hintmask 00011000
          -122 449 rmoveto
          -31 -61 -55 -53 -52 -44 -2 -2 0 -6 7 -12 rrcurveto
          -7 4 11 -9 1 hhcurveto
          3 83 60 46 49 hvcurveto
          -46 50 82 -60 3 hhcurveto
          1 11 9 7 4 hvcurveto
          7 12 0 6 -2 2 -48 48 -59 49 -31 61 rrcurveto
          -104 callgsubr
          endchar
        </CharString>
        <CharString name="edieresis">
          -49 80 18 101 200 endchar
        </CharString>
        <CharString name="egrave">
          14 callgsubr
          104 -21 194 -20 hstemhm
          44 88 224 87 hintmask 11100110
          -100 callgsubr
          hintmask 00011000
          -259 392 -62 callgsubr
        </CharString>
        <CharString name="eight">
          4 -10 52 619 52 hstemhm
          51 84 -54 54 -54 84 203 84 -46 84 hintmask 11010100
          267 713 rmoveto
          -108 -78 -61 -108 -79 72 -65 40 -24 hvcurveto
          hintmask 11100010
          -64 -30 -78 -74 -98 vvcurveto
          -112 113 -72 107 110 109 79 115 103 -94 68 -64 30 vhcurveto
          hintmask 11100100
          40 24 80 55 82 vvcurveto
          108 -77 59 -108 vhcurveto
          hintmask 11100010
          139 -539 rmoveto
          -81 -55 -51 -75 -75 -66 51 81 85 35 47 73 36 vhcurveto
          117 -40 46 -47 -81 vvcurveto
          hintmask 11001100
          -241 396 rmoveto
          56 43 35 56 56 48 -35 -56 -68 -33 -57 -55 -31 vhcurveto
          -75 24 -40 64 68 vvcurveto
          endchar
        </CharString>
        <CharString name="ellipsis">
          102 0 114 hstem
          52 113 97 113 97 113 cntrmask 01110000
          106 -34 callgsubr
          210 -34 callgsubr
          210 -34 callgsubr
          endchar
        </CharString>
        <CharString name="emdash">
          448 223 54 -37 -21 63 -20 hstemhm
          hintmask 01100000
          902 219 -16 callsubr
          -3 -75 -170 -2 -169 -6 callsubr
          -170 -169 2 3 -74 hvcurveto
          -5 -6 -1 -7 -9 vvcurveto
          -19 9 -22 0 vhcurveto
          hintmask 10000000
          3 74 168 1 168 -6 callsubr
          168 168 -1 -3 75 hvcurveto
          endchar
        </CharString>
        <CharString name="endash">
          118 221 -15 callgsubr
          572 219 rmoveto
          -59 callgsubr
        </CharString>
        <CharString name="equal">
          34 157 59 -40 -21 130 59 2 -20 hstemhm
          hintmask 10010000
          475 283 rmoveto
          0 callsubr
          hintmask 10010000
          -86 -86 19 callsubr
          hintmask 01100000
          1 21 84 1 85 hhcurveto
          23 callgsubr
          -128 vmoveto
          0 callsubr
          -86 -86 0 2 -21 hvcurveto
          -5 -6 -1 -7 -9 vvcurveto
          hintmask 01100000
          -19 9 -22 0 vhcurveto
          hintmask 10100000
          1 21 84 1 85 -6 callsubr
          23 callgsubr
          endchar
        </CharString>
        <CharString name="eth">
          36 -10 53 399 48 62 56 80 36 40 -20 hstem
          44 87 258 77 -77 180 vstem
          561 552 rmoveto
          6 6 2 10 10 vvcurveto
          16 -5 16 0 vhcurveto
          -1 -13 -44 -1 -49 hhcurveto
          -4 152 -33 callsubr
          36 -13 -38 -1 hvcurveto
          -1 -29 rlineto
          -65 -64 0 2 -16 34 callsubr
          142 hlineto
          -1 -121 rlineto
          30 -30 -46 29 -60 hhcurveto
          -131 -78 -127 -144 -128 70 -101 133 62 53 38 43 34 hvcurveto
          0 10 -81 71 52 33 25 12 10 -4 13 1 callsubr
          -6 -14 -13 -3 -10 hhcurveto
          -30 -14 25 45 -1 hvcurveto
          -13 437 rlineto
          -329 -327 -17 callsubr
          endchar
        </CharString>
        <CharString name="exclam">
          -286 0 114 656 -20 hstemhm
          78 70 -70 107 hintmask 11100000
          81 757 rmoveto
          -2 -2 -1 -87 -26 vvcurveto
          -134 26 -316 34 callgsubr
          2 316 1 206 21 41 rrcurveto
          11 -8 -14 4 -15 hhcurveto
          -24 -25 -9 -4 -5 hvcurveto
          45 -757 rmoveto
          hintmask 11010000
          -102 callsubr
          endchar
        </CharString>
        <CharString name="exclamdown">
          -290 -101 -21 657 114 hstemhm
          67 113 -101 70 hintmask 11100000
          121 649 rmoveto
          -32 -22 -24 -32 -33 21 -25 33 32 27 26 32 36 -23 20 -36 hvcurveto
          -39 -758 rmoveto
          -4 5 25 -9 24 hhcurveto
          15 14 4 11 8 hvcurveto
          hintmask 11010000
          -21 41 -1 206 -2 316 rrcurveto
          0 -21 5 -12 -3 -6 -1 -1 vhcurveto
          -2 -3 -26 -316 -134 vvcurveto
          -26 1 -87 2 -2 vhcurveto
          endchar
        </CharString>
        <CharString name="f">
          -195 -28 callgsubr
          200 120 -47 47 hstemhm
          34 167 -78 78 88 97 hintmask 10101101
          306 398 rmoveto
          6 6 2 9 9 vvcurveto
          14 -5 14 0 vhcurveto
          -114 hlineto
          -3 132 rlineto
          108 -2 52 33 32 38 callgsubr
          hintmask 10110011
          -76 callgsubr
          44 -50 25 -54 -110 -47 -103 -111 -2 vhcurveto
          -2 -106 rlineto
          -81 hlineto
          hintmask 10110101
          -97 callgsubr
          hintmask 01110101
          -107 callgsubr
          hintmask 10110101
          -91 callsubr
          hintmask 01110101
          35 60 -6 25 hhcurveto
          2 2 0 4 6 vvcurveto
          hintmask 10110101
          -71 callgsubr
          endchar
        </CharString>
        <CharString name="fb">
          363 -10 53 -43 -20 26 37 355 52 -8 48 233 -9 callgsubr
          227 70 268 87 hintmask 1000101101100000
          496 71 -18 callgsubr
          -9 329 rlineto
          -70 callsubr
          hintmask 1001010011100000
          0 -31 22 -63 -87 callgsubr
          -79 hlineto
          hintmask 0111010101100000
          -77 callsubr
          -6 1 -4 2 -2 vhcurveto
          25 67 6 35 35 60 -6 25 hhcurveto
          2 2 0 4 6 vvcurveto
          -84 callgsubr
          142 -3 89 44 53 hhcurveto
          15 callsubr
          hvcurveto
          -6 -655 rlineto
          hintmask 1000110101100000
          -3 2 8 -1 8 hhcurveto
          8 7 1 3 3 hvcurveto
          305 241 -21 callgsubr
          55 70 53 53 101 36 -79 -128 vhcurveto
          endchar
        </CharString>
        <CharString name="ff">
          125 6 30 -15 -21 398 -10 callgsubr
          hintmask 1010110101110000
          626 398 rmoveto
          6 6 2 9 9 vvcurveto
          14 -5 14 0 vhcurveto
          -114 -26 callsubr
          -9 -8 0 -18 vvcurveto
          hintmask 1011000101110000
          -48 callgsubr
          -246 -9 callsubr
          hintmask 1010101011110000
          -78 callgsubr
          -24 22 -10 24 30 21 21 30 -78 callsubr
          -81 hlineto
          hintmask 1011000101110000
          -97 callgsubr
          hintmask 0111000101110000
          -107 callgsubr
          hintmask 1011000101110000
          -91 callsubr
          hintmask 0111000101110000
          35 60 -6 25 hhcurveto
          2 2 0 4 6 vvcurveto
          hintmask 1011000101110000
          -71 callgsubr
          244 -80 callgsubr
          hintmask 0111000101110000
          -107 callgsubr
          hintmask 1011000101110000
          -91 callsubr
          hintmask 0111000101110000
          35 60 -6 25 hhcurveto
          2 2 0 4 6 vvcurveto
          hintmask 1011000101110000
          -71 callgsubr
          endchar
        </CharString>
        <CharString name="ffb">
          684 -10 46 -36 -20 26 30 362 52 -8 48 150 -55 callgsubr
          55 75 233 70 267 88 hintmask 1001001100101111
          -66 callsubr
          -6 -655 rlineto
          -3 2 8 -1 8 hhcurveto
          8 7 1 3 3 hvcurveto
          35 77 rlineto
          -43 34 58 -38 62 hhcurveto
          133 70 111 128 hvcurveto
          hintmask 1000101010101111
          144 -78 117 -131 -60 -51 -29 -30 -30 vhcurveto
          -9 329 rlineto
          hintmask 1001001001101111
          -70 callsubr
          hintmask 1001010000101111
          0 -31 22 -63 1 callgsubr
          hintmask 1001001100101111
          -78 callgsubr
          hintmask 1001010000101111
          -76 callgsubr
          vhcurveto
          hintmask 1001001010011111
          -78 callsubr
          -81 hlineto
          hintmask 0111010000101111
          -5 -6 -1 -7 -6 vvcurveto
          -17 9 -16 0 vhcurveto
          78 -56 callgsubr
          311 rlineto
          243 hlineto
          -2 -1 callsubr
          -25 -13 -52 vhcurveto
          -105 callgsubr
          25 67 6 35 35 60 -6 25 hhcurveto
          2 2 0 4 6 vvcurveto
          -72 callsubr
          567 -163 -21 callgsubr
          hintmask 1000110000101111
          55 70 53 53 101 36 -79 -128 vhcurveto
          endchar
        </CharString>
        <CharString name="ffh">
          706 -28 callgsubr
          -22 62 150 -55 callgsubr
          55 75 233 71 244 82 hintmask 1010011001011110
          -66 callsubr
          18 callsubr
          hintmask 0110100001011110
          -107 callgsubr
          hintmask 1010100001011110
          -91 callsubr
          hintmask 0110100001011110
          34 58 -88 callgsubr
          hintmask 1001100001011110
          -31 callsubr
          -9 -79 callgsubr
          hintmask 0110100001011110
          -107 callgsubr
          hintmask 1010100001011110
          25 callgsubr
          hintmask 0110100001011110
          35 59 -6 25 hhcurveto
          2 2 0 4 6 vvcurveto
          hintmask 1001010101011110
          9 -2 12 -3 3 vhcurveto
          -61 callsubr
          -83 -61 -64 -20 -21 hvcurveto
          -10 354 rlineto
          hintmask 1010010011011110
          -70 callsubr
          hintmask 1010100001011110
          0 -31 22 -63 1 callgsubr
          hintmask 1010011001011110
          -78 callgsubr
          hintmask 1010100001011110
          -76 callgsubr
          vhcurveto
          hintmask 1010010100111110
          -78 callsubr
          -81 hlineto
          hintmask 1010100001011110
          -97 callgsubr
          hintmask 0110100001011110
          -107 callgsubr
          hintmask 1010100001011110
          -91 callsubr
          hintmask 0110100001011110
          35 60 -6 25 hhcurveto
          2 2 0 4 6 vvcurveto
          hintmask 1010100001011110
          -83 callsubr
          hintmask 0110100001011110
          -107 callgsubr
          hintmask 1010100001011110
          -91 callsubr
          hintmask 0110100001011110
          35 60 -6 25 hhcurveto
          2 2 0 4 6 vvcurveto
          hintmask 1010100001011110
          -72 callsubr
          endchar
        </CharString>
        <CharString name="ffi">
          404 -50 callgsubr
          399 2 callsubr
          34 166 -78 78 88 97 55 81 176 107 -48 80 hintmask 1011100001011100
          705 691 rmoveto
          -38 callsubr
          hintmask 1011001101011100
          104 50 32 32 11 12 -6 -6 vhcurveto
          -35 callsubr
          hintmask 1011010001011100
          -76 callgsubr
          vhcurveto
          hintmask 1011001010111100
          -78 callsubr
          -80 hlineto
          hintmask 1011100001011100
          -97 callsubr
          77 -80 callgsubr
          hintmask 0111100001011100
          -107 callgsubr
          hintmask 1011100001011100
          -91 callsubr
          hintmask 0111100001011100
          35 60 -6 25 hhcurveto
          2 2 0 4 6 vvcurveto
          hintmask 1011100001011100
          -106 callgsubr
          -8 312 rlineto
          243 hlineto
          -2 -312 -99 callgsubr
          hintmask 0111100001011100
          -107 callgsubr
          hintmask 1011100001011100
          -91 callsubr
          hintmask 0111100001011100
          35 60 -6 25 hhcurveto
          2 2 0 4 6 vvcurveto
          hintmask 1011100001011010
          -106 callgsubr
          -7 314 155 2 rlineto
          50 1 34 -4 -50 vvcurveto
          -1 -263 -99 callgsubr
          hintmask 0111100001011100
          -107 callgsubr
          hintmask 1011100001011100
          -91 callsubr
          hintmask 0111100001011100
          35 60 -6 25 hhcurveto
          2 2 0 4 6 vvcurveto
          hintmask 1011001101011100
          -106 callgsubr
          -16 393 rlineto
          2 -3 -7 2 -8 hhcurveto
          -8 -8 -2 -2 -2 19 callgsubr
          86 44 53 21 30 -13 -19 vhcurveto
          endchar
        </CharString>
        <CharString name="ffj">
          372 23 callsubr
          167 -20 26 30 363 2 callsubr
          122 78 88 97 55 75 61 97 32 99 -43 71 hintmask 011111001101111010000000
          665 -65 callsubr
          hintmask 101111100001111100000000
          21 30 -13 -19 hvcurveto
          -38 callsubr
          hintmask 101111001101111010000000
          -78 callgsubr
          hintmask 101111010001111010000000
          -76 callgsubr
          vhcurveto
          hintmask 101111001011111010000000
          -78 callsubr
          -80 hlineto
          -97 callsubr
          77 -56 callgsubr
          312 rlineto
          243 hlineto
          -2 -312 rlineto
          -38 -25 -13 -52 vhcurveto
          -105 callgsubr
          25 67 6 35 35 60 -6 25 hhcurveto
          2 2 0 4 6 vvcurveto
          -106 callgsubr
          -7 314 155 2 50 1 33 -5 1 -49 3 callgsubr
        </CharString>
        <CharString name="ffk">
          650 -28 callgsubr
          30 -20 180 -55 callgsubr
          0 55 0 75 233 73 0 120 -120 166 hintmask 101101100101011000000000
          -66 callsubr
          18 callsubr
          24 callgsubr
          -107 callgsubr
          5 callgsubr
          -91 callsubr
          24 callgsubr
          35 60 -6 25 hhcurveto
          2 2 0 4 6 vvcurveto
          5 callgsubr
          -106 callgsubr
          -4 139 rlineto
          37 56 -78 -47 42 hvcurveto
          23 -25 13 -18 -10 vvcurveto
          -12 -22 0 -9 vhcurveto
          -106 callsubr
          24 callgsubr
          -107 callgsubr
          25 59 4 35 35 33 -4 25 hhcurveto
          2 2 0 4 6 vvcurveto
          5 callgsubr
          -103 callgsubr
          -57 -11 17 106 -104 hvcurveto
          -102 104 135 146 rlineto
          35 32 26 0 43 -38 callgsubr
          -90 callgsubr
          -25 -46 -6 -35 -35 -31 6 -25 hhcurveto
          hintmask 101110000101010100000000
          -2 -2 -1 -5 -5 vvcurveto
          hintmask 101101010101010010000000
          -44 46 28 -21 vvcurveto
          -5 -27 -25 -91 -98 vhcurveto
          -21 -20 -12 -4 -8 hhcurveto
          -15 482 rlineto
          hintmask 101101001101011000000000
          -70 callsubr
          hintmask 101110000100101000000000
          0 -31 22 -63 1 callgsubr
          hintmask 101101100101011000000000
          -78 callgsubr
          5 callgsubr
          -76 callgsubr
          vhcurveto
          hintmask 101101010011011000000000
          -78 callsubr
          -81 hlineto
          5 callgsubr
          -97 callgsubr
          24 callgsubr
          -107 callgsubr
          5 callgsubr
          -91 callsubr
          24 callgsubr
          35 60 -6 25 hhcurveto
          2 2 0 4 6 vvcurveto
          5 callgsubr
          -83 callsubr
          24 callgsubr
          -107 callgsubr
          5 callgsubr
          -91 callsubr
          24 callgsubr
          35 60 -6 25 hhcurveto
          2 2 0 4 6 vvcurveto
          5 callgsubr
          -72 callsubr
          endchar
        </CharString>
        <CharString name="ffl">
          399 -28 callgsubr
          190 -55 callgsubr
          55 75 233 76 hintmask 1010110010111000
          656 398 rmoveto
          6 6 2 9 9 vvcurveto
          14 -5 14 0 vhcurveto
          -141 hlineto
          -2 87 rlineto
          4 0 4 5 vvcurveto
          131 88 42 51 15 callsubr
          vhcurveto
          18 callsubr
          hintmask 0111000010111000
          -107 callgsubr
          hintmask 1011000010111000
          -91 callsubr
          hintmask 0111000010111000
          35 60 -6 25 hhcurveto
          2 2 0 4 6 vvcurveto
          hintmask 1010101010111000
          -106 callgsubr
          -20 673 rlineto
          hintmask 1010100110111000
          -70 callsubr
          hintmask 1011000010111000
          0 -31 22 -63 1 callgsubr
          hintmask 1010110010111000
          -78 callgsubr
          hintmask 1011000010111000
          -76 callgsubr
          vhcurveto
          hintmask 1010101001111000
          -78 callsubr
          -81 hlineto
          hintmask 1011000010111000
          -97 callgsubr
          hintmask 0111000010111000
          -107 callgsubr
          hintmask 1011000010111000
          -91 callsubr
          hintmask 0111000010111000
          35 60 -6 25 hhcurveto
          2 2 0 4 6 vvcurveto
          hintmask 1011000010111000
          -83 callsubr
          hintmask 0111000010111000
          -107 callgsubr
          hintmask 1011000010111000
          -91 callsubr
          hintmask 0111000010111000
          35 60 -6 25 hhcurveto
          2 2 0 4 6 vvcurveto
          hintmask 1011000010111000
          -72 callsubr
          endchar
        </CharString>
        <CharString name="fft">
          469 -10 62 -52 -20 26 30 362 -10 callgsubr
          32 81 hintmask 1001011010111100
          817 566 rmoveto
          2 -5 -7 -5 callsubr
          -8 -8 -57 callgsubr
          hvcurveto
          -56 -9 -35 -60 -74 hhcurveto
          -146 -26 callsubr
          -9 -8 0 -18 vvcurveto
          hintmask 1001100010111100
          -48 callgsubr
          -246 -9 callsubr
          hintmask 1001010101111100
          -78 callgsubr
          -24 22 -10 24 30 21 21 30 -78 callsubr
          -81 hlineto
          hintmask 0111100010111100
          -5 -6 -1 -7 -6 vvcurveto
          -17 9 -16 0 vhcurveto
          78 -56 callgsubr
          311 rlineto
          244 -56 callgsubr
          311 rlineto
          223 hlineto
          -4 -232 rlineto
          hintmask 1001100010111100
          -97 -2 25 -79 98 -90 callsubr
          -59 -8 42 80 -1 hvcurveto
          -3 224 rlineto
          128 -51 callsubr
          -132 hlineto
          endchar
        </CharString>
        <CharString name="fh">
          385 -28 callgsubr
          -22 62 233 -9 callgsubr
          227 71 244 82 hintmask 1001011011000000
          904 36 rmoveto
          -61 callsubr
          -83 -61 -64 -20 -21 hvcurveto
          -10 354 rlineto
          -70 callsubr
          hintmask 1010100111000000
          0 -31 22 -63 -87 callgsubr
          -79 hlineto
          hintmask 1010101011000000
          -77 callsubr
          hintmask 0110101011000000
          -107 callgsubr
          hintmask 1010101011000000
          -91 callsubr
          hintmask 0110101011000000
          35 60 -6 25 hhcurveto
          2 2 0 4 6 vvcurveto
          hintmask 1010101011000000
          -84 callgsubr
          4 0 4 5 vvcurveto
          131 89 42 50 15 callsubr
          vhcurveto
          18 callsubr
          hintmask 0110101011000000
          -107 callgsubr
          hintmask 1010101011000000
          -91 callsubr
          hintmask 0110101011000000
          34 58 -88 callgsubr
          hintmask 1001101011000000
          -31 callsubr
          -9 -79 callgsubr
          hintmask 0110101011000000
          -107 callgsubr
          hintmask 1010101011000000
          25 callgsubr
          hintmask 0110101011000000
          35 59 -6 25 hhcurveto
          2 2 0 4 6 vvcurveto
          hintmask 1010101011000000
          31 callsubr
        </CharString>
        <CharString name="fi">
          84 -50 callgsubr
          401 49 34 -20 161 145 -47 47 hstemhm
          34 167 -81 81 176 107 -48 80 hintmask 1011100110000000
          385 691 rmoveto
          -35 callsubr
          -28 25 -11 26 32 24 23 33 63 -68 26 -74 -87 callgsubr
          -79 hlineto
          hintmask 1011101010000000
          -97 callsubr
          76 1 -2 -312 -99 callgsubr
          hintmask 0111101010000000
          -107 callgsubr
          hintmask 1011101010000000
          -91 callsubr
          hintmask 0111101010000000
          35 60 -6 25 hhcurveto
          2 2 0 4 6 vvcurveto
          hintmask 1011101001000000
          -106 callgsubr
          -7 313 155 3 rlineto
          50 1 34 -4 -50 vvcurveto
          -1 -263 -99 callgsubr
          hintmask 0111101010000000
          -107 callgsubr
          hintmask 1011101010000000
          -91 callsubr
          hintmask 0111101010000000
          35 60 -6 25 hhcurveto
          2 2 0 4 6 vvcurveto
          hintmask 1011011010000000
          -106 callgsubr
          -16 393 rlineto
          2 -3 -7 2 -8 hhcurveto
          -8 -8 -2 -2 -2 29 callgsubr
          4 0 4 5 vvcurveto
          131 89 42 50 21 30 -13 -19 vhcurveto
          endchar
        </CharString>
        <CharString name="five">
          -69 -10 50 -50 172 223 46 217 55 55 -20 hstemhm
          46 74 -37 52 208 83 hintmask 10111011
          189 385 rmoveto
          90 64 -65 -102 -95 -49 -83 -90 hvcurveto
          hintmask 01111101
          -32 -52 16 23 hvcurveto
          41 callsubr
          -18 -31 -86 91 -37 72 142 75 111 126 107 -92 97 -135 -21 -28 -4 -5 -22 vhcurveto
          15 209 rlineto
          7 4 10 7 vhcurveto
          207 hlineto
          34 103 rlineto
          3 -4 -14 4 -9 hhcurveto
          -4 -4 -1 -1 -1 hvcurveto
          -58 -21 -28 5 -48 hhcurveto
          -157 hlineto
          -12 -6 -8 -10 hvcurveto
          -8 -277 rlineto
          -15 10 -29 7 vhcurveto
          5 41 21 47 hhcurveto
          endchar
        </CharString>
        <CharString name="fj">
          52 23 callsubr
          167 -20 26 30 365 49 34 -20 161 145 -47 47 hstemhm
          34 161 -75 75 61 97 32 99 -43 71 hintmask 0111110101101000
          345 -65 callsubr
          hintmask 1011111001110000
          21 30 -13 -19 -24 callsubr
          -28 25 -11 26 32 24 23 33 63 -68 26 -74 -87 callgsubr
          -79 hlineto
          hintmask 1011111010101000
          -97 callsubr
          76 1 -2 -312 rlineto
          -38 -25 -13 -52 vhcurveto
          -105 callgsubr
          25 67 6 35 35 60 -6 25 hhcurveto
          2 2 0 4 6 vvcurveto
          -106 callgsubr
          -7 313 155 3 50 1 33 -4 1 -50 3 callgsubr
        </CharString>
        <CharString name="fk">
          329 -28 callgsubr
          30 -20 263 -9 callgsubr
          0 227 0 73 0 120 -120 166 hintmask 1011101001000000
          426 87 rmoveto
          -51 callgsubr
          hintmask 0111101001000000
          -107 callgsubr
          hintmask 1011101001000000
          -91 callsubr
          hintmask 0111101001000000
          35 60 -6 25 hhcurveto
          2 2 0 4 6 vvcurveto
          hintmask 1011101001000000
          -106 callgsubr
          -4 139 rlineto
          37 56 -78 -47 42 hvcurveto
          23 -25 13 -18 -10 vvcurveto
          -11 -20 -1 -11 vhcurveto
          -106 callsubr
          hintmask 0111101001000000
          -107 callgsubr
          25 59 4 35 35 33 -4 25 hhcurveto
          2 2 0 4 6 vvcurveto
          hintmask 1011101001000000
          -103 callgsubr
          -57 -11 17 106 -104 hvcurveto
          -102 104 135 146 rlineto
          35 32 26 0 43 -38 callgsubr
          -90 callgsubr
          -25 -46 -6 -35 -35 -31 6 -25 hhcurveto
          hintmask 1011100010100000
          -2 -2 -1 -5 -5 vvcurveto
          hintmask 1011010010010000
          -44 46 28 -21 vvcurveto
          -5 -27 -25 -91 -98 vhcurveto
          -21 -20 -12 -4 -8 hhcurveto
          -15 482 rlineto
          -70 callsubr
          hintmask 1011100101000000
          0 -31 22 -63 -87 callgsubr
          -79 hlineto
          hintmask 1011101001000000
          -77 callsubr
          hintmask 0111101001000000
          -107 callgsubr
          hintmask 1011101001000000
          -91 callsubr
          hintmask 0111101001000000
          35 60 -6 25 hhcurveto
          2 2 0 4 6 vvcurveto
          hintmask 1011101001000000
          -84 callgsubr
          142 -3 89 44 53 hhcurveto
          15 callsubr
          hvcurveto
          endchar
        </CharString>
        <CharString name="fl">
          78 -28 callgsubr
          273 -9 callgsubr
          227 76 hintmask 10110101
          426 87 rmoveto
          -51 callgsubr
          hintmask 01110101
          -107 callgsubr
          hintmask 10110101
          -91 callsubr
          hintmask 01110101
          35 60 -6 25 hhcurveto
          2 2 0 4 6 vvcurveto
          hintmask 10101101
          -106 callgsubr
          -20 673 rlineto
          -70 callsubr
          hintmask 10110011
          0 -31 22 -63 -87 callgsubr
          -79 hlineto
          hintmask 10110101
          -77 callsubr
          hintmask 01110101
          -107 callgsubr
          hintmask 10110101
          -91 callsubr
          hintmask 01110101
          35 60 -6 25 hhcurveto
          2 2 0 4 6 vvcurveto
          hintmask 10110101
          -84 callgsubr
          4 0 4 5 vvcurveto
          131 89 42 50 15 callsubr
          vhcurveto
          endchar
        </CharString>
        <CharString name="florin">
          16 -111 47 -47 120 390 49 202 120 -47 47 hstemhm
          22 91 317 97 hintmask 10101110
          431 398 rmoveto
          6 6 2 9 9 vvcurveto
          14 -5 14 0 vhcurveto
          -2 -27 -43 0 -45 hhcurveto
          14 139 rlineto
          104 10 41 32 31 38 callgsubr
          hintmask 10110110
          -30 callsubr
          -109 -37 -108 -101 -13 vhcurveto
          -15 -113 rlineto
          -34 -31 1 1 -20 hvcurveto
          -97 callsubr
          76 2 -43 -328 rlineto
          -113 -15 -31 -23 -26 hhcurveto
          -11 -12 5 7 hvcurveto
          9 8 0 18 vvcurveto
          hintmask 01110110
          24 -22 10 -24 -26 -19 -21 -30 -49 51 -20 54 109 40 107 102 10 vhcurveto
          29 302 rlineto
          45 44 -1 -1 27 hvcurveto
          endchar
        </CharString>
        <CharString name="four">
          -28 4 32 -15 -21 193 55 459 -20 hstemhm
          301 65 hintmask 10111000
          469 193 rmoveto
          6 6 2 10 9 vvcurveto
          15 -5 15 0 vhcurveto
          -98 hlineto
          -16 455 rlineto
          -104 callgsubr
          -303 -455 rlineto
          -3 -3 -2 -12 -13 vvcurveto
          -12 2 -13 3 -2 vhcurveto
          279 hlineto
          2 -106 rlineto
          -38 -1 -23 -13 -53 hhcurveto
          -106 callsubr
          hintmask 01111000
          -107 callgsubr
          hintmask 10111000
          25 67 4 35 hhcurveto
          hintmask 01111000
          35 52 -4 25 hhcurveto
          2 2 0 4 6 vvcurveto
          hintmask 10111000
          -106 callgsubr
          -4 106 rlineto
          -76 399 rmoveto
          2 1 1 0 1 hhcurveto
          1 1 -1 -2 hvcurveto
          -7 -336 rlineto
          -4 -2 -3 -5 vhcurveto
          -190 hlineto
          -2 -2 2 3 2 hvcurveto
          endchar
        </CharString>
        <CharString name="fraction">
          -7 20 -21 792 -20 hstem
          539 752 -98 callsubr
          endchar
        </CharString>
        <CharString name="ft">
          148 -10 62 -52 -20 26 30 362 52 200 120 -47 47 hstemhm
          33 168 -78 78 88 97 31 81 hintmask 1001100111000000
          297 711 rmoveto
          25 callsubr
          -48 callgsubr
          -82 hlineto
          hintmask 0111101011000000
          -97 callsubr
          79 -56 callgsubr
          311 rlineto
          222 hlineto
          -4 -232 rlineto
          hintmask 1001011011000000
          -97 -2 25 -79 98 -90 callsubr
          -59 -8 42 80 -1 hvcurveto
          -3 224 rlineto
          128 -51 callsubr
          -132 hlineto
          -2 116 rlineto
          -104 callgsubr
          -56 -9 -35 -60 -74 hhcurveto
          -145 -26 callsubr
          endchar
        </CharString>
        <CharString name="g">
          -34 -290 52 352 54 224 98 -48 48 hstemhm
          31 88 -68 79 -57 57 201 79 -7 78 -78 90 hintmask 1110010100000000
          439 490 rmoveto
          -35 -33 -19 -24 -24 hvcurveto
          27 -30 -41 16 -48 hhcurveto
          -112 -65 -87 -101 -67 29 -61 52 -34 hvcurveto
          hintmask 1110001100000000
          -35 -15 -24 -24 -25 vvcurveto
          -36 22 -25 32 -17 vhcurveto
          hintmask 1110100010000000
          -59 -33 -37 -33 -59 vvcurveto
          -120 114 -43 120 102 114 67 102 110 -73 26 -110 19 vhcurveto
          -66 11 -93 5 39 vvcurveto
          9 13 14 24 9 vhcurveto
          -5 16 17 -2 19 hhcurveto
          hintmask 1110100100000000
          112 70 87 101 44 -14 42 -24 32 hvcurveto
          17 16 16 11 9 hhcurveto
          3 3 -2 -3 hvcurveto
          -4 -8 -4 -14 vvcurveto
          -20 19 -9 20 vhcurveto
          hintmask 1101100001000000
          25 18 19 27 30 -23 22 -31 hvcurveto
          -36 -628 rmoveto
          -68 -86 -32 -68 -73 -57 41 73 44 13 40 43 17 vhcurveto
          106 -35 122 26 -106 vvcurveto
          -169 306 rmoveto
          hintmask 1101010100000000
          -62 -42 70 78 58 20 68 77 62 42 -75 -79 -57 -21 -63 -76 hvcurveto
          endchar
        </CharString>
        <CharString name="germandbls">
          118 -12 48 -48 177 -165 -20 26 30 362 52 273 47 hstemhm
          34 166 -82 82 97 74 -52 52 -52 77 43 78 32 79 hintmask 1000110110011000
          342 770 rmoveto
          -152 -68 -133 -126 -2 hvcurveto
          -1 -61 rlineto
          -79 hlineto
          hintmask 0011111001011000
          -97 callsubr
          76 hlineto
          -2 -311 rlineto
          -38 -24 -13 -53 vhcurveto
          -105 callgsubr
          25 67 6 35 35 50 -6 25 hhcurveto
          2 2 0 4 6 vvcurveto
          -101 callgsubr
          -12 -84 callsubr
          -10 450 rlineto
          142 -3 89 44 53 hhcurveto
          81 24 -52 -52 hvcurveto
          -84 -120 -48 -114 -146 230 7 -96 vvcurveto
          -77 -61 -21 -37 -32 -48 16 23 vhcurveto
          15 24 6 28 vvcurveto
          hintmask 0100110110011000
          27 -24 10 -25 -30 -19 -20 -32 -86 76 -39 91 73 91 47 110 vhcurveto
          hintmask 1000110100111000
          148 -232 6 97 74 121 49 121 vvcurveto
          68 -60 62 -115 vhcurveto
          endchar
        </CharString>
        <CharString name="grave">
          -292 592 -21 194 -20 hstem
          34 692 -62 callgsubr
        </CharString>
        <CharString name="greater">
          -71 34 -21 452 -20 hstem
          428 221 28 callsubr
          -367 208 -30 callgsubr
          266 -163 -269 -163 -30 callgsubr
          endchar
        </CharString>
        <CharString name="greaterequal">
          -41 0 59 -40 -21 551 -20 hstemhm
          hintmask 01100000
          436 320 28 callsubr
          -352 193 -30 callgsubr
          251 -148 -254 -148 -30 callgsubr
          -18 -129 rmoveto
          10 callsubr
          0 9 22 19 vvcurveto
          9 -2 7 -4 6 vhcurveto
          hintmask 10100000
          -7 callgsubr
          0 -5 -18 -17 vvcurveto
          hintmask 01100000
          -11 2 -11 6 -6 vhcurveto
          endchar
        </CharString>
        <CharString name="guillemotleft">
          -104 46 236 rmoveto
          -92 callsubr
          145 hmoveto
          -92 callsubr
          endchar
        </CharString>
        <CharString name="guillemotright">
          -105 239 236 rmoveto
          3 3 1 4 4 vvcurveto
          5 -1 4 -3 3 vhcurveto
          -47 47 -61 58 -39 65 -3 2 -4 1 -12 -4 rrcurveto
          -10 -3 -10 -10 -1 vvcurveto
          -8 60 -96 46 -63 vhcurveto
          -46 -58 -60 -103 -8 vvcurveto
          -1 10 -10 10 -3 vhcurveto
          12 -4 4 1 3 2 39 66 61 60 47 47 rrcurveto
          145 hmoveto
          3 3 1 4 4 vvcurveto
          5 -1 4 -3 3 vhcurveto
          -47 47 -61 58 -39 65 -3 2 -4 1 -12 -4 rrcurveto
          -10 -3 -10 -10 -1 vvcurveto
          -8 60 -96 46 -63 vhcurveto
          -46 -58 -60 -103 -8 vvcurveto
          -1 10 -10 10 -3 vhcurveto
          12 -4 4 1 3 2 39 66 61 60 47 47 rrcurveto
          endchar
        </CharString>
        <CharString name="guilsinglleft">
          -249 46 236 rmoveto
          -92 callsubr
          endchar
        </CharString>
        <CharString name="guilsinglright">
          -249 239 236 rmoveto
          3 3 1 4 4 vvcurveto
          5 -1 4 -3 3 vhcurveto
          -47 47 -61 58 -39 65 -3 2 -4 1 -12 -4 rrcurveto
          -10 -3 -10 -10 -1 vvcurveto
          -8 60 -96 46 -63 vhcurveto
          -46 -58 -60 -103 -8 vvcurveto
          -1 10 -10 10 -3 vhcurveto
          12 -4 4 1 3 2 39 66 61 60 47 47 rrcurveto
          endchar
        </CharString>
        <CharString name="h">
          61 -50 callgsubr
          428 62 274 -20 hstemhm
          19 153 -69 69 247 82 hintmask 10110110
          580 36 rmoveto
          -61 callsubr
          -89 -65 -74 -13 -15 hvcurveto
          -8 357 rlineto
          -104 callgsubr
          -29 -29 -37 -4 -41 -3 rrcurveto
          hintmask 10111010
          -75 callsubr
          -3 -550 -99 callgsubr
          hintmask 01110110
          -107 callgsubr
          hintmask 10110110
          -91 callsubr
          hintmask 01110110
          34 57 -88 callgsubr
          hintmask 10110110
          -31 callsubr
          -8 -79 callgsubr
          hintmask 01110110
          -107 callgsubr
          hintmask 10110110
          25 callgsubr
          hintmask 01110110
          35 59 -6 25 hhcurveto
          2 2 0 4 6 vvcurveto
          hintmask 10110110
          31 callsubr
        </CharString>
        <CharString name="hbar">
          61 -50 callgsubr
          428 62 0 62 0 56 0 80 76 -20 hstemhm
          19 150 -66 66 -66 220 96 82 hintmask 1010101010100000
          316 551 rmoveto
          hintmask 1010011001100000
          5 5 2 11 10 vvcurveto
          16 -5 17 0 vhcurveto
          -2 -19 -63 0 -65 hhcurveto
          -3 152 rlineto
          -104 callgsubr
          -29 -29 -37 -4 -41 -3 rrcurveto
          hintmask 1010011100100000
          -35 callgsubr
          30 -12 -39 hvcurveto
          -29 vlineto
          -49 -44 0 2 -15 hvcurveto
          -5 -6 0 -7 -8 vvcurveto
          -18 7 -20 0 vhcurveto
          hintmask 1001011010100000
          15 44 1 46 hhcurveto
          -2 -465 rlineto
          -38 -25 -13 -52 vhcurveto
          hintmask 0110101100100000
          -105 callgsubr
          hintmask 1010101010100000
          -91 callsubr
          hintmask 0110101010100000
          34 57 -88 callgsubr
          hintmask 1010101010100000
          -31 callsubr
          -8 -79 callgsubr
          hintmask 0110101010100000
          -107 callgsubr
          hintmask 1010101010100000
          25 callgsubr
          hintmask 0110101010100000
          35 59 -6 25 hhcurveto
          2 2 0 4 6 vvcurveto
          hintmask 1001011010100000
          9 -2 12 -3 3 vhcurveto
          -61 callsubr
          -89 -65 -74 -13 -15 hvcurveto
          -3 149 rlineto
          63 61 0 -1 19 hvcurveto
          endchar
        </CharString>
        <CharString name="hyphen">
          -82 221 -15 callgsubr
          372 7 callgsubr
          -19 -65 0 -65 -6 callsubr
          -65 -65 0 2 -18 hvcurveto
          -5 -6 -1 -7 -9 vvcurveto
          -19 9 -22 0 vhcurveto
          hintmask 10000000
          1 18 63 1 64 -6 callsubr
          63 64 -1 -1 19 hvcurveto
          endchar
        </CharString>
        <CharString name="i">
          -10 callsubr
          94 114 hstemhm
          32 165 -101 113 -92 80 hintmask 10110100
          150 558 -55 callsubr
          39 -78 rmoveto
          -104 callgsubr
          -30 -30 -44 0 -41 -5 rrcurveto
          hintmask 10111000
          -105 callgsubr
          54 29 -13 -38 hvcurveto
          hintmask 10110010
          -21 callsubr
          hintmask 01111000
          -107 callgsubr
          hintmask 10111000
          -91 callsubr
          hintmask 01111000
          35 60 -6 25 hhcurveto
          2 2 0 4 6 vvcurveto
          hintmask 10111000
          -106 callgsubr
          endchar
        </CharString>
        <CharString name="iacute">
          -10 callsubr
          130 -21 194 -20 -86 callsubr
          hintmask 00011000
          41 607 -82 callsubr
        </CharString>
        <CharString name="icircumflex">
          -233 -28 -15 245 195 endchar
        </CharString>
        <CharString name="idieresis">
          -233 -24 18 245 200 endchar
        </CharString>
        <CharString name="igrave">
          -233 -37 2 245 193 endchar
        </CharString>
        <CharString name="ij">
          23 23 callsubr
          173 30 -15 -21 484 -20 94 114 hstemhm
          32 165 -101 113 -92 80 25 97 63 113 -88 73 hintmask 1010110101010000
          150 558 -55 callsubr
          39 -78 rmoveto
          -104 callgsubr
          -30 -30 -44 0 -41 -5 rrcurveto
          hintmask 1010111001010000
          -105 callgsubr
          54 29 -13 -38 hvcurveto
          hintmask 1010110011010000
          -21 callsubr
          hintmask 1001111001010000
          -107 callgsubr
          hintmask 1010111001010000
          -91 callsubr
          hintmask 1001111001010000
          35 60 -6 25 hhcurveto
          2 2 0 4 6 vvcurveto
          hintmask 1010111001010000
          -106 callgsubr
          231 471 rmoveto
          hintmask 0110111001100000
          34 25 20 36 32 -27 26 -32 -33 -21 -27 -31 -32 22 -24 32 hvcurveto
          -125 -789 -94 callsubr
          hintmask 1010111001010000
          -3 callgsubr
          endchar
        </CharString>
        <CharString name="integral">
          -144 -111 47 775 -20 32 47 hstem
          -11 -80 rmoveto
          -18 12 21 -13 38 hhcurveto
          108 40 107 102 10 hvcurveto
          48 489 rlineto
          104 10 29 32 23 hhcurveto
          16 8 -6 -6 10 hvcurveto
          6 32 2 36 hvcurveto
          12 -12 -21 9 -31 hhcurveto
          -95 -32 -108 -101 -11 hvcurveto
          -57 -489 rlineto
          -113 -13 -41 -23 -26 hhcurveto
          -21 -12 22 0 hvcurveto
          -6 -33 -2 -36 hvcurveto
          endchar
        </CharString>
        <CharString name="itilde">
          -10 callsubr
          121 57 -13 56 -86 callsubr
          hintmask 00010000
          76 591 -18 callsubr
          hintmask 00001000
          -93 callsubr
          hintmask 00010000
          -85 callgsubr
        </CharString>
        <CharString name="j">
          -278 23 callsubr
          651 -20 94 114 hstemhm
          -79 97 63 113 -88 73 hintmask 10111010
          135 558 rmoveto
          hintmask 01111100
          34 25 20 36 32 -27 26 -32 -33 -21 -27 -31 -32 22 -24 32 hvcurveto
          -125 -789 -94 callsubr
          hintmask 10111010
          -3 callgsubr
          endchar
        </CharString>
        <CharString name="jcircumflex">
          -278 -290 47 727 -20 114 9 callsubr
          -79 97 88 73 hintmask 11001100
          10 -231 -94 callsubr
          -3 callgsubr
          hintmask 00110000
          93 982 rmoveto
          -31 -61 -55 -53 -52 -44 -2 -2 0 -6 7 -12 rrcurveto
          -7 4 11 -9 1 hhcurveto
          3 83 60 46 49 hvcurveto
          -46 50 82 -60 3 hhcurveto
          1 11 9 7 4 hvcurveto
          7 12 0 6 -2 2 -48 48 -59 49 -31 61 rrcurveto
          -104 callgsubr
          endchar
        </CharString>
        <CharString name="k">
          4 4 32 -15 -21 444 30 6 -20 304 -20 hstemhm
          20 156 -72 72 0 180 hintmask 10101010
          169 760 rmoveto
          -73 callgsubr
          -30 -12 -41 -3 rrcurveto
          hintmask 10101100
          -75 callsubr
          -4 -550 -99 callgsubr
          hintmask 01101010
          -107 callgsubr
          hintmask 10101010
          25 67 4 35 hhcurveto
          hintmask 01101010
          35 60 -4 25 hhcurveto
          2 2 0 4 6 vvcurveto
          hintmask 10101010
          -106 callgsubr
          -5 139 rlineto
          19 7 -3 -17 16 hvcurveto
          hintmask 10101001
          52 -56 77 -83 -16 vvcurveto
          -15 -24 0 -7 vhcurveto
          -106 callsubr
          hintmask 01101010
          -107 callgsubr
          hintmask 10101010
          25 59 4 35 hhcurveto
          hintmask 01101010
          35 33 -4 25 hhcurveto
          2 2 0 4 6 vvcurveto
          hintmask 10101010
          -103 callgsubr
          -57 -11 17 106 -104 hvcurveto
          -102 104 135 146 rlineto
          29 27 31 6 43 -38 callgsubr
          hintmask 10011010
          -90 callgsubr
          hintmask 10101010
          -25 -46 -6 -35 hhcurveto
          hintmask 10011010
          -35 -31 -40 callgsubr
          hintmask 10101010
          -7 2 -13 4 -4 vhcurveto
          17 23 -2 -9 -13 -34 -29 -84 -88 hvcurveto
          -21 -21 -11 -4 -8 hhcurveto
          endchar
        </CharString>
        <CharString name="l">
          -247 -50 callgsubr
          764 -20 hstemhm
          104 75 hintmask 10110000
          -59 callsubr
          hintmask 01110000
          -107 callgsubr
          hintmask 10110000
          -91 callsubr
          hintmask 01110000
          35 60 -6 25 hhcurveto
          2 2 0 4 6 vvcurveto
          hintmask 10110000
          9 0 12 -5 3 vhcurveto
          -54 -21 -84 callsubr
          endchar
        </CharString>
        <CharString name="ldot">
          -157 -50 callgsubr
          333 114 317 -20 hstemhm
          104 75 71 113 hintmask 10011000
          -59 callsubr
          hintmask 01011000
          -107 callgsubr
          hintmask 10011000
          -91 callsubr
          hintmask 01011000
          35 60 -6 25 hhcurveto
          2 2 0 4 6 vvcurveto
          hintmask 10011000
          9 0 12 -5 3 vhcurveto
          -54 -21 -84 callsubr
          hintmask 00100100
          117 246 -55 callsubr
          endchar
        </CharString>
        <CharString name="less">
          -71 34 -21 452 -20 hstem
          399 13 -77 callgsubr
          -269 163 266 163 rlineto
          -102 callgsubr
          -367 -208 29 callsubr
          endchar
        </CharString>
        <CharString name="lessequal">
          -41 0 59 -40 -21 551 -20 hstemhm
          hintmask 01100000
          406 127 -77 callgsubr
          -254 148 251 148 rlineto
          -102 callgsubr
          -352 -193 29 callsubr
          367 -322 -77 callgsubr
          hintmask 10100000
          -7 callgsubr
          -5 -6 -1 -7 -9 vvcurveto
          hintmask 01100000
          -19 9 -22 0 vhcurveto
          10 callsubr
          endchar
        </CharString>
        <CharString name="logicalnot">
          8 52 227 -54 54 3 -20 hstemhm
          406 61 hintmask 10010000
          398 60 rmoveto
          -6 6 12 -2 12 hhcurveto
          19 20 5 0 hvcurveto
          -2 36 0 32 29 58 2 42 19 vvcurveto
          hintmask 00110000
          6 -1 3 -7 vhcurveto
          hintmask 01010000
          -25 -72 -3 -75 hhcurveto
          hintmask 00110000
          -91 -96 1 2 -23 hvcurveto
          -5 -6 -1 -7 -9 vvcurveto
          -19 9 -22 0 vhcurveto
          hintmask 01010000
          2 34 153 4 86 hhcurveto
          24 19 0 -1 9 hvcurveto
          1 -13 0 -16 -15 vvcurveto
          -52 -4 -55 -4 -13 vhcurveto
          endchar
        </CharString>
        <CharString name="lslash">
          -200 -50 callgsubr
          764 -20 hstemhm
          4 195 -154 154 -70 70 hintmask 10100100
          334 421 rmoveto
          1 1 4 2 vvcurveto
          22 -30 28 0 vhcurveto
          -19 -13 -38 -23 -44 -26 -10 344 rcurveline
          -73 callgsubr
          -30 -12 -41 -3 rrcurveto
          hintmask 10101000
          -75 callsubr
          -3 -266 rlineto
          hintmask 10110000
          -47 -27 -77 -38 -6 vvcurveto
          -27 35 -23 0 vhcurveto
          16 11 34 21 39 23 -2 -218 rcurveline
          -51 callgsubr
          hintmask 01100100
          -107 callgsubr
          hintmask 10100100
          -91 callsubr
          hintmask 01100100
          35 60 -6 25 hhcurveto
          2 2 0 4 6 vvcurveto
          hintmask 10100100
          -106 callgsubr
          -8 264 53 31 51 28 24 11 rlinecurve
          endchar
        </CharString>
        <CharString name="m">
          391 -50 callgsubr
          428 62 4 -20 hstemhm
          114 83 235 82 235 83 cntrmask 00001110
          hintmask 10101110
          912 36 rmoveto
          -53 -21 26 callgsubr
          -10 247 rlineto
          92 -4 -57 64 -92 hhcurveto
          -84 -69 -69 -23 -23 hvcurveto
          56 -22 -50 36 -68 hhcurveto
          -88 -67 -74 -13 -16 hvcurveto
          -8 87 rlineto
          hintmask 10011110
          4 callsubr
          hintmask 10101110
          -8 -8 -57 callgsubr
          hvcurveto
          -32 -32 -29 1 -89 callsubr
          25 -13 -38 hvcurveto
          -3 -280 -57 callsubr
          hintmask 01101110
          -107 callgsubr
          hintmask 10101110
          -91 callsubr
          hintmask 01101110
          35 60 -6 25 hhcurveto
          2 2 0 4 6 vvcurveto
          hintmask 10101110
          -106 callgsubr
          -8 264 rlineto
          21 27 51 56 58 hhcurveto
          67 39 -46 -66 -1 hvcurveto
          -4 -229 rlineto
          -38 -1 -23 -13 -53 hhcurveto
          -47 callsubr
          -53 -21 26 callgsubr
          -8 264 rlineto
          25 28 52 52 55 hhcurveto
          66 39 -46 -66 hvcurveto
          -1 -229 rlineto
          -38 -24 -13 -53 vhcurveto
          -47 callsubr
          endchar
        </CharString>
        <CharString name="macron">
          -102 591 -15 callgsubr
          402 589 -16 callsubr
          -2 -24 -83 0 -82 -6 callsubr
          -82 -82 0 2 -24 hvcurveto
          -5 -6 -1 -7 -9 vvcurveto
          -19 9 -22 0 vhcurveto
          hintmask 10000000
          1 24 80 1 81 -6 callsubr
          81 81 -1 -1 24 hvcurveto
          endchar
        </CharString>
        <CharString name="minus">
          40 221 -15 callgsubr
          478 7 callgsubr
          -22 -86 0 -86 -6 callsubr
          -86 -86 19 callsubr
          hintmask 10000000
          1 21 84 1 85 -6 callsubr
          23 callgsubr
          endchar
        </CharString>
        <CharString name="mu">
          89 -187 -21 198 62 431 -20 hstemhm
          112 74 -74 78 234 74 hintmask 11110100
          178 -195 rmoveto
          210 vlineto
          -17 24 30 -8 34 hhcurveto
          84 65 74 13 15 hvcurveto
          0 9 -87 71 52 33 25 12 10 -4 13 1 callsubr
          -6 -15 -12 -3 -11 hhcurveto
          -29 -17 24 44 -1 hvcurveto
          -10 367 rlineto
          2 -2 -8 1 -8 hhcurveto
          -9 -9 -1 -2 -3 hvcurveto
          -37 -27 -24 -4 -89 callsubr
          22 -14 -37 hvcurveto
          -228 vlineto
          -21 -26 -48 -56 -55 hhcurveto
          hintmask 11101100
          -66 -38 46 66 -1 hvcurveto
          -7 316 rlineto
          2 -2 -8 1 -8 hhcurveto
          -9 -9 -1 -2 -3 hvcurveto
          -37 -26 -24 -5 -41 -5 rrcurveto
          -4 -6 -2 -9 -8 vvcurveto
          -10 1 -3 7 49 21 -14 -37 vhcurveto
          -4 -550 rlineto
          -11 5 11 -4 11 hhcurveto
          18 20 9 4 3 hvcurveto
          endchar
        </CharString>
        <CharString name="multiply">
          -63 71 -21 388 -20 hstem
          106 438 rmoveto
          -27 -1 -19 -41 0 vvcurveto
          17 -16 59 -65 63 -69 -64 -71 -61 -66 -18 -16 rrcurveto
          -26 47 -17 0 vhcurveto
          15 18 58 65 62 69 62 -69 57 -66 16 -17 rrcurveto
          26 17 47 0 hvcurveto
          -18 15 -59 65 -62 69 60 67 58 63 17 16 rrcurveto
          25 -42 21 0 vhcurveto
          -15 -18 -56 -63 -61 -68 -61 68 -56 64 -15 17 rrcurveto
          endchar
        </CharString>
        <CharString name="n">
          67 -50 callgsubr
          428 62 4 -20 hstemhm
          114 83 228 82 hintmask 10101100
          586 36 rmoveto
          -61 callsubr
          -84 -65 -74 -13 -15 hvcurveto
          -8 87 rlineto
          hintmask 10011100
          4 callsubr
          hintmask 10101100
          -92 callgsubr
          hintmask 01101100
          -107 callgsubr
          hintmask 10101100
          -91 callsubr
          hintmask 01101100
          34 57 -88 callgsubr
          hintmask 10101100
          -31 callsubr
          -8 264 rlineto
          21 26 48 56 55 hhcurveto
          67 39 -46 -66 -1 hvcurveto
          -4 -229 rlineto
          -38 -1 -21 -13 -50 hhcurveto
          -106 callsubr
          hintmask 01101100
          -107 callgsubr
          hintmask 10101100
          25 callgsubr
          hintmask 01101100
          35 59 -6 25 hhcurveto
          2 2 0 4 6 vvcurveto
          hintmask 10101100
          31 callsubr
        </CharString>
        <CharString name="nacute">
          67 213 -10 110 194 endchar
        </CharString>
        <CharString name="nine">
          -12 -10 43 -43 157 131 44 341 50 hstemhm
          45 83 -50 69 -69 93 213 81 hintmask 10111001
          383 419 rmoveto
          -45 -22 -48 -52 -68 hhcurveto
          -53 -64 53 122 85 36 81 79 114 25 -127 -117 1 hvcurveto
          hintmask 10110101
          -236 -350 rmoveto
          hintmask 01110011
          10 24 9 25 vvcurveto
          25 -25 9 -24 -27 -17 -21 -33 -72 76 -31 75 185 51 220 185 177 -43 141 -177 vhcurveto
          hintmask 10111001
          -130 -70 -123 -103 -111 78 -98 97 77 53 31 41 34 hvcurveto
          -234 -65 -83 -98 vhcurveto
          hintmask 10110101
          -38 -36 12 24 hvcurveto
          endchar
        </CharString>
        <CharString name="notequal">
          -42 9 -21 160 59 69 59 142 -20 hstem
          147 9 rmoveto
          9 -21 52 0 0 vvcurveto
          7 31 15 61 19 68 rrcurveto
          83 83 -1 -1 22 -60 callsubr
          -21 -75 0 -79 hhcurveto
          19 69 rlineto
          70 64 12 callgsubr
          -17 -58 0 -64 hhcurveto
          16 54 15 47 9 25 rrcurveto
          13 -8 -22 3 -16 hhcurveto
          -9 -6 -1 0 hvcurveto
          -7 -29 -13 -53 -17 -59 rrcurveto
          -85 -84 19 callsubr
          1 19 74 1 78 hhcurveto
          -19 -69 rlineto
          -71 -67 0 2 -17 hvcurveto
          -5 -6 -1 -7 -9 vvcurveto
          -19 9 -22 0 vhcurveto
          16 1 55 0 63 1 -17 -60 -16 -52 -10 -27 rrcurveto
          endchar
        </CharString>
        <CharString name="ntilde">
          67 104 18 110 196 endchar
        </CharString>
        <CharString name="numbersign">
          11 11 -21 232 59 164 59 209 -20 hstemhm
          43 182 -62 62 -50 64 80 62 -50 50 -50 64 -64 170 hintmask 1111100010000000
          373 hmoveto
          3 52 2 80 3 90 rrcurveto
          -1 53 44 -1 15 hhcurveto
          hintmask 1111100000100000
          -102 callgsubr
          -1 -15 -45 -1 -53 hhcurveto
          2 54 2 55 4 54 rrcurveto
          48 39 -1 15 hhcurveto
          -102 callgsubr
          hintmask 1111001001000000
          -1 -14 -39 -1 -48 hhcurveto
          -16 callgsubr
          -92 hlineto
          -16 callgsubr
          -59 -51 0 2 -16 hvcurveto
          hintmask 1111100100000000
          -5 -6 -1 -7 -9 vvcurveto
          -19 9 -22 0 15 48 1 1 58 vhcurveto
          -2 -54 -2 -56 -3 -54 rrcurveto
          -55 -47 0 2 -15 hvcurveto
          -5 -6 -1 -7 -9 vvcurveto
          -19 9 -22 0 vhcurveto
          hintmask 1111010100000000
          14 44 1 1 53 hvcurveto
          -6 -84 -8 -77 -11 -55 rrcurveto
          -12 6 14 -4 15 hhcurveto
          20 21 7 3 3 hvcurveto
          3 52 2 80 3 90 rrcurveto
          94 hlineto
          -6 -84 -8 -77 -11 -55 rrcurveto
          -12 6 14 -4 15 hhcurveto
          20 21 7 3 3 hvcurveto
          -138 444 rmoveto
          94 hlineto
          -2 -54 -2 -56 -3 -54 rrcurveto
          -95 hlineto
          2 54 2 56 4 54 rrcurveto
          endchar
        </CharString>
        <CharString name="o">
          -17 -10 54 398 48 hstem
          45 85 258 85 vstem
          -89 callgsubr
          endchar
        </CharString>
        <CharString name="oacute">
          -17 -10 54 398 48 104 -21 194 -20 hstemhm
          45 85 258 85 hintmask 11001100
          -89 callgsubr
          hintmask 00110000
          102 650 -82 callsubr
        </CharString>
        <CharString name="ocircumflex">
          -17 79 -15 111 195 endchar
        </CharString>
        <CharString name="odieresis">
          -17 79 18 111 200 endchar
        </CharString>
        <CharString name="oe">
          286 -10 54 201 51 146 48 hstem
          45 85 258 78 226 85 vstem
          264 44 rmoveto
          -90 -44 93 121 94 16 90 108 90 44 -99 -121 -94 -16 -84 -108 hvcurveto
          427 258 rmoveto
          -5 -4 -32 -1 -45 -40 -50 1 -51 hhcurveto
          88 6 45 57 66 hhcurveto
          76 30 -69 -54 -6 0 -6 -1 -5 hvcurveto
          75 -243 rmoveto
          3 3 2 3 3 vvcurveto
          9 -12 17 -4 4 vhcurveto
          -34 -47 -64 -11 -41 hhcurveto
          -93 -44 91 101 hvcurveto
          311 hlineto
          134 -54 111 -134 -73 -55 -32 -50 -36 vhcurveto
          50 -35 -56 32 -78 hhcurveto
          -149 -62 -116 -134 -134 62 -116 149 78 56 31 50 35 hvcurveto
          -50 36 55 -31 74 hhcurveto
          74 56 23 46 46 hvcurveto
          endchar
        </CharString>
        <CharString name="ograve">
          -17 60 2 111 193 endchar
        </CharString>
        <CharString name="one">
          -111 8 28 -15 -21 598 36 73 -20 hstemhm
          192 80 hintmask 10111000
          262 703 rmoveto
          -104 callgsubr
          -49 -54 -73 -11 -61 -4 rrcurveto
          -5 -4 -2 -36 callgsubr
          -3 1 -4 2 -2 vhcurveto
          118 38 -4 -83 -1 hvcurveto
          -3 -384 rlineto
          -78 -1 -44 -13 -90 hhcurveto
          -5 -3 -3 -12 -9 vvcurveto
          hintmask 01111000
          -6 1 -4 3 -2 vhcurveto
          hintmask 10111000
          35 104 8 49 hhcurveto
          hintmask 01111000
          50 95 -8 35 hhcurveto
          2 2 2 4 6 vvcurveto
          hintmask 10111000
          9 -4 12 -4 3 vhcurveto
          -90 -40 13 78 -3 hvcurveto
          endchar
        </CharString>
        <CharString name="onehalf">
          316 6 13 -5 13 -7 -21 21 34 289 14 -9 18 -2 119 -34 34 248 24 34 13 -11 -20 hstemhm
          135 52 353 48 -48 64 124 56 hintmask 0010000000100000
          694 752 -98 callsubr
          hintmask 0000010011010000
          -514 47 -85 callsubr
          hintmask 0000100011010000
          -4 1 -3 2 -1 vhcurveto
          hintmask 0000010011010000
          23 67 5 32 hhcurveto
          hintmask 0000100011010000
          -4 callsubr
          hintmask 0000010011010000
          -8 callsubr
          hintmask 1001001000000110
          621 -284 rmoveto
          3 -4 -14 5 -9 hhcurveto
          -2 -2 -1 -1 -2 hvcurveto
          -89 -3 -6 -4 -107 -12 -18 0 -16 hhcurveto
          -16 -12 0 1 2 1 5 3 3 hvcurveto
          88 109 100 109 93 vvcurveto
          76 -58 31 -63 -57 -66 -28 -59 -19 12 -13 20 16 16 6 17 vhcurveto
          hintmask 1001000100001010
          -41 callsubr
          hintmask 0100001000001010
          53 54 0 -5 46 hvcurveto
          endchar
        </CharString>
        <CharString name="onequarter">
          270 46 callsubr
          14 -9 18 101 13 251 24 34 13 -11 -20 hstemhm
          136 52 467 42 hintmask 0000010110100000
          181 799 -85 callsubr
          hintmask 0000100110100000
          -4 1 -3 2 -1 vhcurveto
          hintmask 0000010110100000
          23 67 5 32 hhcurveto
          hintmask 0000100110100000
          -4 callsubr
          hintmask 0000010110100000
          -8 callsubr
          hintmask 0011001000010000
          569 -279 rmoveto
          4 4 1 7 6 vvcurveto
          9 -3 10 0 vhcurveto
          -64 hlineto
          -10 295 rlineto
          2 -2 -5 1 -5 hhcurveto
          -5 -5 -1 -2 -1 hvcurveto
          -197 -295 rlineto
          -2 -2 -1 -8 -8 vvcurveto
          -8 1 -8 2 -2 vhcurveto
          181 hlineto
          1 -69 rlineto
          -24 -15 -9 -35 vhcurveto
          -1 -2 -2 -7 -6 vvcurveto
          hintmask 0101001000010000
          -4 0 -3 2 -1 vhcurveto
          hintmask 0011001000010000
          16 43 3 23 hhcurveto
          hintmask 0101001000010000
          38 callsubr
          hintmask 0011001000010000
          6 -2 7 -47 callgsubr
          -34 -14 9 24 -1 hvcurveto
          -2 69 rlineto
          -50 259 rmoveto
          1 2 1 0 0 vvcurveto
          1 1 -1 -1 hvcurveto
          -5 -218 rlineto
          -3 -1 -2 -3 vhcurveto
          -124 hlineto
          -1 -1 1 2 1 hvcurveto
          hintmask 1000000001000000
          170 567 -98 callsubr
          endchar
        </CharString>
        <CharString name="onesuperior">
          -214 451 14 -9 18 365 24 34 13 hstemhm
          132 52 hintmask 01111000
          177 907 -85 callsubr
          hintmask 10111000
          -4 1 -3 2 -1 vhcurveto
          hintmask 01111000
          23 67 5 32 hhcurveto
          hintmask 10111000
          -4 callsubr
          hintmask 01111000
          -8 callsubr
          endchar
        </CharString>
        <CharString name="ordfeminine">
          -167 444 36 183 108 -34 34 hstemhm
          43 60 -48 64 101 50 hintmask 11010100
          43 525 rmoveto
          -45 38 -36 48 38 33 17 19 23 vhcurveto
          -24 13 17 -12 17 hhcurveto
          27 23 12 7 7 hvcurveto
          2 2 0 2 4 vvcurveto
          6 -3 6 -2 3 vhcurveto
          -4 -11 -8 -2 -8 hhcurveto
          -19 -10 14 28 1 hvcurveto
          3 150 rlineto
          58 1 -29 41 -86 hhcurveto
          hintmask 11001100
          -47 -56 -29 -47 -20 13 -12 19 20 12 9 13 hvcurveto
          18 -15 4 10 vvcurveto
          hintmask 10110100
          16 26 4 23 49 18 -27 -60 vhcurveto
          -5 0 -5 -6 vvcurveto
          -45 -9 rlineto
          -96 -20 -36 -31 -49 vvcurveto
          179 -18 rmoveto
          -12 -21 -36 -13 -18 hhcurveto
          -28 -16 22 25 33 16 13 68 17 hvcurveto
          34 8 rlineto
          endchar
        </CharString>
        <CharString name="ordmasculine">
          -168 444 36 259 31 hstem
          45 56 168 55 vstem
          45 607 rmoveto
          -87 41 -76 97 97 44 76 87 88 -44 75 -97 -97 -41 -75 -88 vhcurveto
          143 -127 rmoveto
          -59 -28 60 79 62 10 58 71 58 29 -64 -79 -62 -11 -54 -70 hvcurveto
          endchar
        </CharString>
        <CharString name="oslash">
          -17 -50 -21 61 54 398 48 66 -20 hstem
          45 85 258 85 vstem
          385 538 rmoveto
          -12 18 -48 0 0 vvcurveto
          -22 -71 rlineto
          3 -15 -15 2 -17 hhcurveto
          -149 -62 -116 -134 -96 31 -86 72 -42 hvcurveto
          -27 -73 rlineto
          -14 14 43 0 5 hhcurveto
          4 17 7 23 9 27 rrcurveto
          -4 16 18 -2 19 hhcurveto
          149 68 116 134 98 -37 88 -77 40 hvcurveto
          10 30 9 24 7 18 rrcurveto
          -121 -494 rmoveto
          -16 -15 2 6 -13 hvcurveto
          34 105 46 138 37 108 rrcurveto
          34 -40 17 -66 -75 vvcurveto
          -94 -16 -84 -108 vhcurveto
          -134 214 rmoveto
          94 16 90 108 12 11 -2 -4 11 vhcurveto
          -33 -102 -45 -136 -37 -108 rrcurveto
          -29 39 -14 60 69 vvcurveto
          endchar
        </CharString>
        <CharString name="otilde">
          -17 -10 54 398 48 95 57 -13 56 hstemhm
          45 85 258 85 hintmask 11001100
          -89 callgsubr
          hintmask 00100000
          129 634 -18 callsubr
          hintmask 00010000
          -93 callsubr
          hintmask 00100000
          -85 callgsubr
        </CharString>
        <CharString name="p">
          34 37 callgsubr
          102 74 261 87 hintmask 10111100
          437 245 rmoveto
          -128 -36 -79 -101 -51 -67 53 55 -2 vhcurveto
          -8 207 rlineto
          41 23 59 43 45 hhcurveto
          96 42 -96 -96 hvcurveto
          -312 241 rmoveto
          -39 -22 -20 -5 -41 -5 rrcurveto
          -37 callsubr
          -10 -9 vvcurveto
          -6 1 -6 2 -2 vhcurveto
          56 26 -13 -38 hvcurveto
          -3 -560 -99 callgsubr
          hintmask 01111100
          -107 callgsubr
          hintmask 10111100
          -91 callsubr
          hintmask 01111100
          35 60 -6 25 hhcurveto
          2 2 0 4 6 vvcurveto
          hintmask 10111100
          -106 callgsubr
          -8 -11 callsubr
          -62 -55 -38 -43 -34 hvcurveto
          -9 77 rlineto
          -14 callsubr
          -7 hhcurveto
          -8 -7 -2 -2 -4 hvcurveto
          endchar
        </CharString>
        <CharString name="paragraph">
          -5 -110 47 -47 128 634 45 -32 32 callgsubr
          hstemhm
          37 150 -37 97 94 67 hintmask 01010011
          238 -47 rmoveto
          7 9 4 17 vvcurveto
          25 -22 12 -24 -30 -21 -21 -30 -55 48 -22 51 99 58 77 122 1 vhcurveto
          3 525 rlineto
          35 11 16 71 vhcurveto
          32 callsubr
          14 10 vvcurveto
          hintmask 10001101
          -45 callgsubr
          hintmask 10100101
          -27 -52 -6 -38 hhcurveto
          hintmask 10001101
          -38 -84 6 -27 hhcurveto
          -107 -86 -76 -133 -143 112 -79 131 -3 hvcurveto
          5 4 14 21 9 vvcurveto
          3 -1 1 -2 vhcurveto
          -37 1 -72 53 119 vvcurveto
          hintmask 10100101
          114 62 58 43 14 19 -2 -5 14 vhcurveto
          4 -534 rlineto
          -131 1 -51 -43 -31 hhcurveto
          -16 -8 7 9 hvcurveto
          endchar
        </CharString>
        <CharString name="parenleft">
          -203 43 callsubr
          35 90 vstem
          125 239 rmoveto
          221 73 165 132 127 vhcurveto
          0 -2 14 -32 4 vhcurveto
          -155 -99 -106 -203 -229 vvcurveto
          -227 106 -203 155 -99 vhcurveto
          32 4 2 14 0 vvcurveto
          -132 127 -73 165 219 vvcurveto
          endchar
        </CharString>
        <CharString name="parenright">
          -203 43 callsubr
          206 90 vstem
          206 239 rmoveto
          -219 -73 -165 -132 -127 vhcurveto
          0 2 -14 32 -4 vhcurveto
          155 99 106 203 227 vvcurveto
          229 -106 203 -155 99 vhcurveto
          -32 -4 -2 -14 0 vvcurveto
          132 -127 73 -165 -221 vvcurveto
          endchar
        </CharString>
        <CharString name="percent">
          209 20 callgsubr
          34 60 181 60 73 60 181 60 hintmask 1011101111000000
          34 599 -96 callsubr
          314 -434 -96 callsubr
          hintmask 0100010000000000
          182 583 -98 callsubr
          endchar
        </CharString>
        <CharString name="period">
          -318 0 114 hstem
          52 113 vstem
          106 -34 callgsubr
          endchar
        </CharString>
        <CharString name="periodcentered">
          -299 196 114 hstem
          61 113 vstem
          115 196 -55 callsubr
          endchar
        </CharString>
        <CharString name="perthousand">
          567 20 callgsubr
          39 60 181 60 73 60 181 60 55 60 181 60 hintmask 1011101111110000
          39 599 -96 callsubr
          314 -434 -96 callsubr
          296 -2 -96 callsubr
          hintmask 0100010000000000
          -174 583 -98 callsubr
          endchar
        </CharString>
        <CharString name="plus">
          -62 45 235 -59 59 -59 223 hstemhm
          37 228 -59 59 -59 229 hintmask 00110000
          267 438 36 callgsubr
          hintmask 01001000
          1 -19 1 -64 -72 vvcurveto
          -75 -70 0 2 -18 hvcurveto
          hintmask 01010000
          -5 -6 -1 -7 -9 vvcurveto
          -19 9 -22 0 vhcurveto
          hintmask 01001000
          1 18 68 1 74 hhcurveto
          -78 -1 -73 -1 -19 vhcurveto
          hintmask 10010000
          39 callgsubr
          hintmask 01010000
          -2 19 0 72 76 vvcurveto
          73 69 -1 -1 20 hvcurveto
          hintmask 10000100
          -102 callgsubr
          hintmask 10010000
          -2 -20 -70 0 -75 hhcurveto
          70 0 69 2 19 vhcurveto
          endchar
        </CharString>
        <CharString name="plusminus">
          -39 0 59 -40 -21 133 225 -59 59 -59 213 hstemhm
          59 217 -59 59 -59 220 hintmask 01100001
          429 -2 -77 callgsubr
          hintmask 10100100
          -7 callgsubr
          -5 -6 -1 -7 -9 vvcurveto
          hintmask 01100100
          -19 9 -22 0 vhcurveto
          hintmask 10100100
          1 20 80 1 80 hhcurveto
          hintmask 01001100
          80 80 -1 -1 21 hvcurveto
          -151 506 36 callgsubr
          hintmask 10010010
          1 -18 1 -60 -67 vvcurveto
          -70 -66 0 2 -17 hvcurveto
          -5 -6 -1 -7 -9 vvcurveto
          -19 9 -22 0 vhcurveto
          1 17 64 1 69 hhcurveto
          -73 -1 -69 -1 -18 vhcurveto
          hintmask 10100100
          39 callgsubr
          hintmask 10010100
          -2 18 0 68 71 vvcurveto
          68 65 12 callgsubr
          -19 -66 0 -70 hhcurveto
          66 0 64 2 18 vhcurveto
          endchar
        </CharString>
        <CharString name="q">
          10 37 callgsubr
          44 87 263 76 hintmask 10111100
          131 235 rmoveto
          123 41 79 96 51 53 -43 -41 23 vhcurveto
          -2 -207 rlineto
          -55 -1 -78 -53 -45 hhcurveto
          -96 -42 106 91 hvcurveto
          262 196 rmoveto
          30 -30 -50 29 -60 hhcurveto
          -131 -78 -117 -144 -128 60 -111 143 62 53 29 30 30 hvcurveto
          -2 -242 rlineto
          -37 -24 -14 -86 callgsubr
          hintmask 01111100
          -107 callgsubr
          hintmask 10111100
          25 60 6 35 hhcurveto
          hintmask 01111100
          35 67 -6 25 hhcurveto
          2 2 0 4 6 vvcurveto
          hintmask 10111100
          -101 callgsubr
          -23 26 callgsubr
          -16 600 8 79 rlineto
          -104 callgsubr
          endchar
        </CharString>
        <CharString name="question">
          -107 0 114 483 173 -51 51 hstemhm
          33 75 -75 98 5 113 -101 62 97 84 hintmask 11010101
          190 -34 callgsubr
          hintmask 11001011
          -42 314 rmoveto
          -77 13 -43 34 callgsubr
          5 80 6 101 34 0 70 66 rlinecurve
          35 33 36 45 61 vvcurveto
          119 -82 71 -102 -83 -91 -47 -80 -28 21 -18 30 17 30 6 28 vhcurveto
          hintmask 10110011
          29 -23 6 15 vvcurveto
          26 40 12 45 62 52 -47 -74 -49 -21 -51 -40 -39 vhcurveto
          -54 -52 -44 -29 -64 vvcurveto
          endchar
        </CharString>
        <CharString name="questiondown">
          -107 -110 51 -51 173 483 114 hstemhm
          36 84 58 113 -74 62 17 98 -75 75 hintmask 10111010
          237 660 rmoveto
          -36 -23 -20 -36 -32 27 -26 32 33 21 25 33 32 -22 24 -32 hvcurveto
          hintmask 01110110
          42 -314 rmoveto
          77 -13 43 -2 3 vhcurveto
          1 -6 1 -3 -12 -21 -5 0 vhcurveto
          -5 -80 -6 -101 -34 0 -70 -66 rlinecurve
          -35 -33 -36 -45 -61 vvcurveto
          -119 82 -71 102 83 91 47 80 28 -21 18 -30 -17 -30 -6 -28 vhcurveto
          hintmask 10110101
          -29 23 -6 -15 vvcurveto
          -26 -40 -12 -45 -62 -52 47 74 49 21 51 40 39 vhcurveto
          54 52 44 29 64 vvcurveto
          endchar
        </CharString>
        <CharString name="quotedbl">
          -252 550 220 hstem
          240 757 rmoveto
          -80 callsubr
          -125 hmoveto
          -80 callsubr
          endchar
        </CharString>
        <CharString name="quotedblbase">
          -127 114 -20 hstemhm
          51 121 62 121 vstemhm
          172 36 rmoveto
          -40 callsubr
          hintmask 11100000
          -95 callgsubr
          183 hmoveto
          -40 callsubr
          -95 callgsubr
          endchar
        </CharString>
        <CharString name="quotedblleft">
          -144 559 -21 hstemhm
          45 55 -55 121 62 55 -55 121 hintmask 11001000
          228 616 rmoveto
          13 callsubr
          hintmask 10101000
          -61 callgsubr
          -183 hmoveto
          13 callsubr
          hintmask 10110000
          -61 callgsubr
          endchar
        </CharString>
        <CharString name="quotedblright">
          -145 770 -20 hstemhm
          53 121 62 121 vstemhm
          174 692 rmoveto
          -40 callsubr
          hintmask 11100000
          -95 callgsubr
          183 hmoveto
          -40 callsubr
          -95 callgsubr
          endchar
        </CharString>
        <CharString name="quoteleft">
          -327 559 -21 hstemhm
          45 121 vstemhm
          45 616 rmoveto
          13 callsubr
          hintmask 11000000
          -61 callgsubr
          endchar
        </CharString>
        <CharString name="quoteright">
          -328 770 -20 hstemhm
          53 121 vstemhm
          174 692 rmoveto
          -40 callsubr
          hintmask 11000000
          -95 callgsubr
          endchar
        </CharString>
        <CharString name="quotesinglbase">
          -310 114 -20 hstemhm
          51 121 vstemhm
          172 36 rmoveto
          -40 callsubr
          hintmask 11000000
          -95 callgsubr
          endchar
        </CharString>
        <CharString name="quotesingle">
          -377 571 -21 220 -20 hstem
          115 757 rmoveto
          -80 callsubr
          endchar
        </CharString>
        <CharString name="r">
          -124 6 18 callgsubr
          103 98 hintmask 10100110
          334 490 4 callgsubr
          hintmask 10001110
          4 callsubr
          hintmask 10010110
          -92 callgsubr
          hintmask 01100110
          -107 callgsubr
          hintmask 10100110
          -91 callsubr
          hintmask 01100110
          35 60 -6 25 hhcurveto
          2 2 0 4 6 vvcurveto
          hintmask 10010110
          -64 callgsubr
          hintmask 10100110
          -12 callgsubr
          endchar
        </CharString>
        <CharString name="rcaron">
          -124 -50 callgsubr
          377 113 -50 50 4 -20 109 9 callsubr
          114 83 103 98 hintmask 1010000110000000
          334 490 4 callgsubr
          hintmask 1000100110000000
          4 callsubr
          hintmask 1001000110000000
          -92 callgsubr
          hintmask 0110000110000000
          -107 callgsubr
          hintmask 1010000110000000
          -91 callsubr
          hintmask 0110000110000000
          35 60 -6 25 hhcurveto
          2 2 0 4 6 vvcurveto
          hintmask 1001000110000000
          -64 callgsubr
          hintmask 1010000110000000
          -12 callgsubr
          hintmask 0000011000000000
          -144 76 rmoveto
          -2 2 8 -2 8 hhcurveto
          8 8 2 2 2 hvcurveto
          31 61 59 49 48 48 2 2 0 6 -7 12 rrcurveto
          7 -4 -11 9 -1 hhcurveto
          -3 -82 -61 -46 -50 hvcurveto
          46 -50 -82 61 -3 hhcurveto
          -1 -11 -9 -7 -4 hvcurveto
          -7 -12 0 -6 2 -2 48 -48 59 -49 31 -61 rrcurveto
          endchar
        </CharString>
        <CharString name="rcommaaccent">
          -124 -202 -21 186 -20 63 18 callgsubr
          -79 89 93 98 hintmask 1100000010000000
          207 -44 callsubr
          hintmask 0010100101000000
          127 584 4 callgsubr
          hintmask 0010001101000000
          4 callsubr
          hintmask 0010010101000000
          -92 callgsubr
          hintmask 0001100101000000
          -107 callgsubr
          hintmask 0010100101000000
          -91 callsubr
          hintmask 0001100101000000
          35 60 -6 25 hhcurveto
          2 2 0 4 6 vvcurveto
          hintmask 0010010101000000
          -64 callgsubr
          hintmask 0010100101000000
          -12 callgsubr
          endchar
        </CharString>
        <CharString name="registered">
          93 191 36 -36 122 -16 167 128 25 60 36 hstemhm
          61 36 122 35 112 43 122 36 hintmask 1011111110000000
          -67 callsubr
          -122 83 rmoveto
          50 -50 34 -56 vhcurveto
          -12 -39 -3 -18 -15 -19 3 -10 hhcurveto
          -1 -1 -1 -2 -3 vvcurveto
          -7 2 -4 1 -2 vhcurveto
          16 13 -3 -20 hvcurveto
          -2 -239 rlineto
          hintmask 0101111110000000
          -18 -13 -5 -15 28 callgsubr
          hintmask 1011111110000000
          11 29 3 14 16 25 -3 11 43 callgsubr
          hintmask 0101111110000000
          5 -1 6 -47 callgsubr
          -24 -5 7 16 -1 hvcurveto
          -4 101 rlineto
          23 3 -8 -50 37 hvcurveto
          25 -33 14 -16 -9 vvcurveto
          -6 -7 -2 -14 28 callgsubr
          14 26 5 23 22 13 -5 18 43 callgsubr
          5 -1 6 -47 callgsubr
          -23 1 -17 17 -50 58 -46 53 rcurveline
          59 13 35 36 42 vvcurveto
          -125 59 rmoveto
          50 32 -22 -44 hvcurveto
          hintmask 1011111110000000
          -38 -34 -24 -50 vhcurveto
          -25 hlineto
          -6 123 rlineto
          3 10 11 2 12 hhcurveto
          endchar
        </CharString>
        <CharString name="ring">
          -284 571 35 132 32 hstem
          31 43 102 43 vstem
          31 670 rmoveto
          -60 33 -39 60 60 35 39 60 60 -35 40 -60 -60 -33 -40 -60 vhcurveto
          96 -64 rmoveto
          -37 -16 35 37 34 15 26 34 37 16 -38 -37 -33 -15 -24 -34 hvcurveto
          endchar
        </CharString>
        <CharString name="s">
          -107 -10 52 -52 179 181 140 -47 47 hstemhm
          42 74 -57 57 -57 77 145 87 -59 79 hintmask 1010010010000000
          236 490 rmoveto
          31 callgsubr
          -67 -16 -41 -34 -51 18 26 vhcurveto
          14 24 7 28 vvcurveto
          hintmask 0110100010000000
          25 -25 9 -24 -30 -19 -19 -30 -89 78 -41 94 77 97 39 93 vhcurveto
          hintmask 1001001100000000
          -5 callgsubr
          hintmask 1010100100000000
          -23 22 -11 24 30 19 21 30 52 -61 37 -71 vhcurveto
          endchar
        </CharString>
        <CharString name="scaron">
          -107 40 -10 115 207 endchar
        </CharString>
        <CharString name="section">
          -74 -109 46 730 47 -1 -20 hstemhm
          65 67 -44 67 165 69 -46 69 hintmask 10110100
          338 693 rmoveto
          -5 -1 -1 -2 -2 hhcurveto
          -3 -7 5 3 -5 hvcurveto
          hintmask 11001100
          9 -15 -24 11 -47 hhcurveto
          -71 -74 -55 -97 -55 26 -38 36 -29 hvcurveto
          hintmask 11010100
          -48 -22 -37 -48 -69 -171 255 -3 -101 vvcurveto
          -60 -51 -29 -44 -71 -65 42 74 -10 vhcurveto
          2 -2 -7 1 -6 hhcurveto
          -7 -6 -1 -2 -2 hvcurveto
          11 -159 rlineto
          -2 2 6 -1 7 hhcurveto
          6 6 1 2 2 hvcurveto
          3 17 rlineto
          5 1 1 2 2 hhcurveto
          1 2 -1 -1 2 hvcurveto
          -21 43 36 -4 36 hhcurveto
          69 104 43 100 60 -36 38 -44 31 hvcurveto
          hintmask 11001010
          54 20 49 42 69 162 -257 8 114 vvcurveto
          44 35 45 60 79 15 -53 -63 7 vhcurveto
          -2 2 6 -1 7 hhcurveto
          6 7 1 2 2 hvcurveto
          -11 159 rlineto
          hintmask 10110010
          2 -2 -7 1 -6 hhcurveto
          -7 -6 -1 -2 -1 hvcurveto
          2 -424 rmoveto
          -56 -46 -30 -42 -3 vhcurveto
          -63 35 -60 30 56 vvcurveto
          38 26 38 46 10 vhcurveto
          67 -38 72 -26 -54 vvcurveto
          endchar
        </CharString>
        <CharString name="semicolon">
          -282 366 114 hstemhm
          68 113 -46 46 hintmask 11000000
          122 366 -55 callsubr
          62 -330 rmoveto
          49 -31 23 -31 -31 -22 -23 -29 vhcurveto
          hintmask 10100000
          -55 66 8 -24 vvcurveto
          -31 -24 -14 -42 -37 vhcurveto
          -3 -3 -1 -5 4 -7 6 -12 15 37 callsubr
        </CharString>
        <CharString name="seven">
          -78 17 -21 644 60 13 -20 hstemhm
          hintmask 11000000
          15 561 rmoveto
          -4 3 14 -3 10 hhcurveto
          4 3 0 2 2 hvcurveto
          72 9 29 12 39 91 97 0 29 hhcurveto
          23 3 -1 -6 3 hvcurveto
          3 -6 -4 -10 0 vvcurveto
          -257 -617 rlineto
          -3 2 22 -1 22 hhcurveto
          22 22 1 3 3 hvcurveto
          230 646 rlineto
          0 4 14 15 vvcurveto
          11 -2 10 -6 7 vhcurveto
          -2 -56 -45 -1 -42 5 callsubr
          -73 -65 3 10 -100 hvcurveto
          endchar
        </CharString>
        <CharString name="six">
          4 -10 50 346 44 126 157 -43 43 hstemhm
          53 82 227 98 -74 74 -50 83 hintmask 11101001
          135 284 rmoveto
          47 22 48 55 68 hhcurveto
          62 75 -52 -118 -90 -39 -86 -86 -122 -27 127 117 -1 hvcurveto
          hintmask 11101010
          251 350 rmoveto
          hintmask 11101100
          -10 -24 -9 -25 vvcurveto
          -26 24 -8 25 30 19 19 30 73 -65 35 -86 -167 -89 -217 -231 -134 88 -141 134 vhcurveto
          hintmask 11011001
          138 80 88 138 109 -86 105 -109 -77 -53 -33 -44 -34 hvcurveto
          0 12 140 25 58 vhcurveto
          103 45 57 16 44 hhcurveto
          hintmask 11101010
          35 34 -12 -24 hvcurveto
          endchar
        </CharString>
        <CharString name="slash">
          -138 -10 -20 821 -20 hstem
          361 768 rmoveto
          -12 23 -54 0 0 vvcurveto
          -40 -142 -167 -502 -53 -139 rrcurveto
          -19 14 47 1 6 hhcurveto
          40 143 166 496 53 139 rrcurveto
          endchar
        </CharString>
        <CharString name="space">
          -298 endchar
        </CharString>
        <CharString name="st">
          243 -10 52 -52 179 249 36 -36 52 -27 47 177 46 hstemhm
          42 74 -57 57 -57 77 110 43 -8 87 -59 79 122 77 -56 56 -56 215 hintmask 1001011001010010
          738 -32 callgsubr
          hintmask 1000110101010100
          -2 96 rlineto
          101 -2 -77 46 -101 hhcurveto
          -80 -81 -64 -80 -21 5 -25 17 -36 hvcurveto
          2 -10 -11 1 -11 hhcurveto
          31 callgsubr
          -73 -16 -45 -30 -45 18 26 vhcurveto
          14 24 7 28 vvcurveto
          hintmask 0110011001011000
          25 -24 9 -25 -30 -19 -19 -30 -89 74 -41 88 81 103 39 93 vhcurveto
          hintmask 1000110010101000
          -5 callgsubr
          -23 22 -11 24 30 19 21 30 34 -22 22 -34 17 vhcurveto
          hintmask 1001011001010100
          -15 8 -8 31 43 vvcurveto
          62 56 49 62 72 52 -29 -72 -94 -56 -18 -58 vhcurveto
          -2 -2 -1 -5 -5 vvcurveto
          -63 callgsubr
          93 hlineto
          -5 -252 rlineto
          -97 -2 24 -79 99 -90 callsubr
          -60 -7 -2 callsubr
          endchar
        </CharString>
        <CharString name="sterling">
          23 -10 67 -10 66 210 56 212 123 -55 55 hstemhm
          162 73 -73 244 -51 97 hintmask 01110101
          235 113 rmoveto
          -17 -18 -3 -4 -21 hvcurveto
          47 41 15 64 54 3 0 4 3 vvcurveto
          -2 48 rlineto
          159 hlineto
          hintmask 10101010
          6 6 2 10 10 vvcurveto
          16 -5 16 0 vhcurveto
          -2 -20 -70 0 -74 hhcurveto
          -4 152 rlineto
          97 -3 67 31 42 hhcurveto
          14 11 -4 -6 hvcurveto
          hintmask 10110101
          -5 -9 -4 -15 vvcurveto
          -76 callgsubr
          51 -48 21 -51 -119 -72 -77 -122 -49 -2 -45 1 -42 vhcurveto
          -54 -49 0 2 -14 34 callsubr
          114 hlineto
          -3 -133 -15 -92 -73 -53 rrcurveto
          -4 -5 -5 -15 -15 vvcurveto
          -5 1 -13 1 -2 vhcurveto
          hintmask 01110101
          17 23 72 40 44 hhcurveto
          hintmask 10110101
          72 53 -57 45 hhcurveto
          56 77 61 45 18 hvcurveto
          1 3 1 2 3 vvcurveto
          9 -8 14 -5 5 vhcurveto
          -59 -43 -35 -16 -31 hhcurveto
          -22 -21 13 13 -26 hvcurveto
          hintmask 01110101
          23 -44 -27 7 -28 hhcurveto
          endchar
        </CharString>
        <CharString name="t">
          -176 45 callgsubr
          -83 236 hintmask 11101000
          318 -32 callgsubr
          -2 96 rlineto
          -104 callgsubr
          -11 -55 -18 -40 -75 -17 rrcurveto
          -2 -2 -1 -5 -5 vvcurveto
          -63 callgsubr
          63 hlineto
          -5 -252 rlineto
          -97 -2 25 -79 98 -90 callsubr
          hintmask 11110000
          -56 -11 -2 callsubr
          endchar
        </CharString>
        <CharString name="thorn">
          11 -274 30 -15 -21 36 234 0 48 399 53 274 -20 hstemhm
          -8 162 -78 78 260 87 hintmask 1001110110000000
          414 245 rmoveto
          -128 -36 -79 -101 -51 -68 53 55 -1 vhcurveto
          -5 207 rlineto
          41 23 56 43 45 hhcurveto
          96 42 -96 -96 hvcurveto
          -273 515 rmoveto
          -104 callgsubr
          -29 -29 -37 -4 -41 -3 rrcurveto
          hintmask 1001111010000000
          -105 callgsubr
          54 29 -13 -38 hvcurveto
          -3 -830 -57 callsubr
          hintmask 0101110110000000
          -107 callgsubr
          hintmask 1001110110000000
          -91 callsubr
          hintmask 0101110110000000
          35 60 -6 25 hhcurveto
          2 2 0 4 6 vvcurveto
          hintmask 0110110110000000
          -106 callgsubr
          -5 -11 callsubr
          -60 -54 -36 -41 -34 hvcurveto
          endchar
        </CharString>
        <CharString name="three">
          -48 -10 50 -50 172 362 189 -52 52 hstemhm
          49 74 -74 98 167 84 -45 84 hintmask 10101001
          152 342 rmoveto
          14 26 25 6 23 hhcurveto
          73 54 -65 -106 -81 -56 -70 -89 -34 -51 16 23 hvcurveto
          hintmask 01100101
          41 callsubr
          -19 -30 -86 90 -37 74 119 105 99 112 109 -80 71 -96 11 vhcurveto
          hintmask 10101010
          66 22 71 49 81 vvcurveto
          106 -75 63 -97 -78 -96 -56 -84 -30 19 -19 30 25 24 9 25 vhcurveto
          37 -23 -4 22 vvcurveto
          hintmask 10011010
          25 36 23 55 54 42 -43 -68 -92 -90 -50 -90 -25 vhcurveto
          -1 -1 0 -2 -1 vvcurveto
          -12 12 -25 6 vhcurveto
          0 1 0 0 vhcurveto
          endchar
        </CharString>
        <CharString name="threequarters">
          276 46 callsubr
          32 -32 111 13 13 209 123 -34 34 -21 -20 hstemhm
          40 48 -48 63 109 54 -29 55 369 42 hintmask 0011001000000010
          770 146 rmoveto
          4 4 1 7 6 vvcurveto
          9 -3 10 0 vhcurveto
          -64 hlineto
          -10 295 rlineto
          2 -2 -5 1 -5 hhcurveto
          -5 -5 -1 -2 -1 hvcurveto
          -197 -295 rlineto
          -2 -2 -1 -8 -8 vvcurveto
          -8 1 -8 2 -2 vhcurveto
          181 hlineto
          1 -69 rlineto
          -24 -15 -9 -35 vhcurveto
          -1 -2 -2 -7 -6 vvcurveto
          hintmask 0101001000000010
          -4 0 -3 2 -1 vhcurveto
          hintmask 0011001000000010
          16 43 3 23 hhcurveto
          hintmask 0101001000000010
          38 callsubr
          hintmask 0011001000000010
          6 -2 7 -47 callgsubr
          -34 -14 9 24 -1 hvcurveto
          -2 69 rlineto
          -50 259 rmoveto
          1 2 1 0 0 vvcurveto
          1 1 -1 -1 hvcurveto
          -5 -218 rlineto
          -3 -1 -2 -3 vhcurveto
          -124 hlineto
          -1 -1 1 2 1 hvcurveto
          hintmask 1000000001000000
          170 567 -98 callsubr
          hintmask 0000100100100100
          -593 -181 -4 callgsubr
          hintmask 0000010100010100
          -19 callsubr
          hintmask 0000100100101000
          -22 callgsubr
          hintmask 0000100010101000
          -26 callgsubr
        </CharString>
        <CharString name="threesuperior">
          -207 445 32 -32 111 235 123 -34 34 hstemhm
          37 48 -48 63 109 54 -29 55 hintmask 10101001
          104 673 -4 callgsubr
          hintmask 01100101
          -19 callsubr
          hintmask 10101010
          -22 callgsubr
          hintmask 10011010
          -26 callgsubr
        </CharString>
        <CharString name="tilde">
          -121 567 57 -13 56 hstemhm
          hintmask 10000000
          352 660 -18 callsubr
          hintmask 01000000
          -93 callsubr
          hintmask 10000000
          -85 callgsubr
        </CharString>
        <CharString name="trademark">
          341 392 -21 363 30 -3 -20 29 -20 hstemhm
          176 47 hintmask 11001000
          259 734 rmoveto
          47 8 -22 -38 7 hvcurveto
          0 5 -2 5 5 5 2 0 vhcurveto
          hintmask 10011000
          -8 96 rlineto
          hintmask 11001000
          -4 -43 -47 -2 -44 hhcurveto
          hintmask 10011000
          -46 -46 2 4 -44 hvcurveto
          -9 -96 rlineto
          0 5 -2 5 5 6 2 0 vhcurveto
          hintmask 11001000
          38 7 8 22 50 hhcurveto
          38 hlineto
          -4 -310 rlineto
          -20 -10 -9 -26 vhcurveto
          -2 -2 -1 -6 -5 vvcurveto
          -4 1 -3 1 -1 vhcurveto
          12 35 3 20 18 31 -3 15 hhcurveto
          1 1 0 3 3 vvcurveto
          5 -1 7 -1 2 vhcurveto
          -30 -7 9 20 -1 hvcurveto
          -12 310 rlineto
          357 -360 rmoveto
          -2 1 6 -1 5 hhcurveto
          5 6 1 2 1 hvcurveto
          119 293 9 -243 rlineto
          -20 1 -11 -9 -27 26 callsubr
          12 36 3 19 18 31 -3 13 43 callgsubr
          6 -1 7 -1 2 vhcurveto
          -28 -7 9 20 -2 hvcurveto
          -26 290 rlineto
          19 -2 10 9 29 hhcurveto
          2 2 1 6 6 vvcurveto
          4 -1 4 -1 1 vhcurveto
          hintmask 10101000
          -1 -8 -17 -3 -13 hhcurveto
          -13 -15 3 1 -9 hvcurveto
          -126 -320 -116 320 rlineto
          -1 -10 -18 -3 -14 hhcurveto
          -12 -21 3 1 -7 hvcurveto
          -1 -1 -1 -4 -4 vvcurveto
          -6 2 -6 2 -2 vhcurveto
          21 14 1 -29 -2 hvcurveto
          -25 -290 rlineto
          -20 -2 -7 -9 -28 26 callsubr
          13 24 3 19 18 35 -3 12 hhcurveto
          0 1 2 2 vvcurveto
          6 -2 9 -47 callgsubr
          -27 -11 9 20 1 hvcurveto
          13 243 rlineto
          endchar
        </CharString>
        <CharString name="tt">
          132 45 callgsubr
          226 83 -83 236 hintmask 11110100
          627 -32 callgsubr
          -2 96 rlineto
          -104 callgsubr
          -51 -11 -16 -53 -77 hhcurveto
          -167 hlineto
          -2 104 rlineto
          -104 callgsubr
          -11 -55 -18 -40 -75 -17 rrcurveto
          -2 -2 -1 -5 -5 vvcurveto
          -63 callgsubr
          63 hlineto
          -5 -252 rlineto
          -97 -2 25 -79 98 -90 callsubr
          -60 -7 -2 callsubr
          233 hlineto
          -5 -252 rlineto
          -97 -2 25 -79 98 -90 callsubr
          hintmask 11111000
          -60 -7 -2 callsubr
          endchar
        </CharString>
        <CharString name="two">
          -16 -1 -20 21 53 -42 -21 541 182 -52 52 hstemhm
          57 74 -74 98 191 86 hintmask 11010011
          480 186 rmoveto
          5 -6 -22 8 -13 hhcurveto
          -4 -3 -1 -2 -2 hvcurveto
          -137 -5 -10 -6 -164 -19 -28 0 -24 hhcurveto
          -24 -19 0 1 3 2 7 4 5 hvcurveto
          135 169 154 168 143 vvcurveto
          117 -89 47 -96 -89 -101 -42 -91 -30 18 -19 31 25 24 9 25 vhcurveto
          hintmask 11001101
          28 -24 6 15 vvcurveto
          29 42 18 57 60 56 -34 -84 -179 -276 -211 -29 -95 vhcurveto
          0 -9 -28 -18 vvcurveto
          -6 1 -5 4 -1 vhcurveto
          178 -1 rlineto
          hintmask 00110101
          82 84 -1 -8 70 hvcurveto
          endchar
        </CharString>
        <CharString name="twosuperior">
          -162 437 13 -5 13 -7 34 310 119 -34 34 hstemhm
          52 48 -48 64 124 56 hintmask 10110011
          327 572 rmoveto
          3 -4 -14 5 -9 hhcurveto
          -2 -2 -1 -1 -2 hvcurveto
          -89 -3 -6 -4 -107 -12 -18 0 -16 hhcurveto
          -16 -12 0 1 2 1 5 3 3 hvcurveto
          88 109 100 109 93 vvcurveto
          76 -58 31 -63 -57 -66 -28 -59 -19 12 -13 20 16 16 6 17 vhcurveto
          hintmask 10101101
          -41 callsubr
          hintmask 01010101
          53 54 0 -5 46 hvcurveto
          endchar
        </CharString>
        <CharString name="u">
          52 -10 62 431 -20 hstem
          95 73 238 74 vstem
          -105 callsubr
          endchar
        </CharString>
        <CharString name="uacute">
          52 174 -10 117 194 endchar
        </CharString>
        <CharString name="ucircumflex">
          52 -10 62 431 -20 115 9 callsubr
          95 73 238 74 hintmask 11001100
          -105 callsubr
          hintmask 00110000
          231 343 rmoveto
          -31 -61 -55 -53 -52 -44 -2 -2 0 -6 7 -12 rrcurveto
          -7 4 11 -9 1 hhcurveto
          3 83 60 46 49 hvcurveto
          -46 50 82 -60 3 hhcurveto
          1 11 9 7 4 hvcurveto
          7 12 0 6 -2 2 -48 48 -59 49 -31 61 rrcurveto
          -104 callgsubr
          endchar
        </CharString>
        <CharString name="udieresis">
          52 97 18 117 200 endchar
        </CharString>
        <CharString name="ugrave">
          52 -10 62 431 -20 131 -21 194 -20 hstemhm
          95 73 238 74 hintmask 11001100
          -105 callsubr
          hintmask 00110000
          105 286 -62 callgsubr
        </CharString>
        <CharString name="underscore">
          97 2 -15 callgsubr
          562 hmoveto
          -59 callgsubr
        </CharString>
        <CharString name="v">
          -4 17 -21 448 30 6 -20 hstemhm
          hintmask 11000000
          245 hmoveto
          -3 2 14 -1 15 hhcurveto
          14 15 1 3 3 hvcurveto
          151 401 rlineto
          32 12 14 11 42 -38 callgsubr
          hintmask 10100000
          -90 callgsubr
          hintmask 11000000
          -25 -31 -6 -35 5 callsubr
          -35 -55 6 11 callgsubr
          41 20 -7 -20 -5 -1 -4 -2 -7 hvcurveto
          -101 -320 -114 320 rlineto
          -2 7 -2 6 5 vvcurveto
          18 19 7 45 vhcurveto
          3 3 4 16 callgsubr
          hintmask 10100000
          5 -1 5 -3 2 vhcurveto
          hintmask 11000000
          -25 -60 -6 -35 5 callsubr
          -35 -54 6 11 callgsubr
          49 13 -11 -32 13 hvcurveto
          endchar
        </CharString>
        <CharString name="w">
          282 17 -21 448 31 5 -20 hstemhm
          hintmask 11000000
          531 hmoveto
          -3 2 14 -1 15 hhcurveto
          14 15 1 3 3 hvcurveto
          151 401 rlineto
          32 12 13 11 43 -38 callgsubr
          hintmask 10100000
          -90 callgsubr
          hintmask 11000000
          -25 -31 -5 -35 5 callsubr
          -35 -55 5 11 callgsubr
          41 20 -7 -20 -5 -1 -5 -2 -6 hvcurveto
          -101 -320 -114 320 rlineto
          -3 8 0 4 5 vvcurveto
          21 21 5 42 6 callgsubr
          -40 -25 -5 -38 5 callsubr
          -35 -44 5 -43 -22 callsubr
          43 9 -11 -32 14 hvcurveto
          13 -31 -92 -289 -114 320 rlineto
          -3 10 -1 3 5 vvcurveto
          18 19 7 45 6 callgsubr
          -25 -60 -5 -35 5 callsubr
          -35 -54 5 11 callgsubr
          49 13 -11 -32 13 hvcurveto
          168 -401 rlineto
          -3 2 14 -1 15 hhcurveto
          14 15 1 3 3 hvcurveto
          107 283 rlineto
          endchar
        </CharString>
        <CharString name="x">
          -4 -50 callgsubr
          444 30 6 -20 hstemhm
          hintmask 10100000
          321 101 rmoveto
          19 -25 10 -16 -10 vvcurveto
          -15 -22 1 -12 vhcurveto
          -106 callsubr
          hintmask 01100000
          -107 callgsubr
          hintmask 10100000
          25 59 6 35 -6 callsubr
          35 33 6 callsubr
          -57 -18 37 86 -67 hvcurveto
          -77 99 106 151 rlineto
          38 27 12 -3 42 -38 callgsubr
          hintmask 10010000
          -90 callgsubr
          hintmask 10100000
          -25 -26 -6 -35 hhcurveto
          hintmask 10010000
          -35 -31 6 -25 hhcurveto
          -3 -3 0 -4 -5 vvcurveto
          hintmask 10100000
          -63 callgsubr
          16 29 0 -15 -4 -2 -5 -5 -7 hvcurveto
          -83 -118 -66 86 rlineto
          -19 25 -10 15 10 vvcurveto
          14 20 -1 14 vhcurveto
          32 callsubr
          16 callgsubr
          hintmask 10010000
          5 -1 -63 callsubr
          hintmask 10100000
          -25 -49 -6 -35 hhcurveto
          hintmask 10010000
          -35 -33 -40 callgsubr
          hintmask 10100000
          -63 callgsubr
          58 1 20 -35 64 -87 63 -86 rcurveline
          -115 -166 rlineto
          -38 -27 -12 3 -42 hhcurveto
          -106 callsubr
          hintmask 01100000
          -107 callgsubr
          hintmask 10100000
          25 26 6 35 -6 callsubr
          35 22 6 callsubr
          -15 -22 0 10 5 3 6 6 9 hvcurveto
          91 129 rlineto
          endchar
        </CharString>
        <CharString name="y">
          -8 callgsubr
          hstemhm
          42 97 hintmask 10101000
          -56 callsubr
          hintmask 10011000
          -90 callgsubr
          hintmask 10101000
          -23 -61 -6 -32 hhcurveto
          hintmask 10011000
          -35 -50 -40 callgsubr
          hintmask 10101000
          -74 callgsubr
          hintmask 01101000
          24 -17 18 -30 -23 -27 -17 -30 -58 56 -25 42 97 49 160 88 30 vhcurveto
          149 443 rlineto
          33 10 15 10 43 -38 callgsubr
          hintmask 10011000
          -90 callgsubr
          hintmask 10101000
          -25 -31 -6 -35 hhcurveto
          hintmask 10011000
          -32 -50 6 -23 -87 callsubr
          hintmask 10101000
          -25 callgsubr
          endchar
        </CharString>
        <CharString name="yacute">
          4 193 -10 121 194 endchar
        </CharString>
        <CharString name="ycircumflex">
          -8 callgsubr
          118 9 callsubr
          42 97 hintmask 10100010
          -56 callsubr
          hintmask 10010010
          -90 callgsubr
          hintmask 10100010
          -23 -61 -6 -32 hhcurveto
          hintmask 10010010
          -35 -50 -40 callgsubr
          hintmask 10100010
          -74 callgsubr
          hintmask 01100010
          24 -17 18 -30 -23 -27 -17 -30 -58 56 -25 42 97 49 160 88 30 vhcurveto
          149 443 rlineto
          33 10 15 10 43 -38 callgsubr
          hintmask 10010010
          -90 callgsubr
          hintmask 10100010
          -25 -31 -6 -35 hhcurveto
          hintmask 10010010
          -32 -50 6 -23 -87 callsubr
          hintmask 10100010
          -25 callgsubr
          hintmask 00001100
          -123 350 rmoveto
          -31 -61 -55 -53 -52 -44 -2 -2 0 -6 7 -12 rrcurveto
          -7 4 11 -9 1 hhcurveto
          3 83 60 46 49 hvcurveto
          -46 50 82 -60 3 hhcurveto
          1 11 9 7 4 hvcurveto
          7 12 0 6 -2 2 -48 48 -59 49 -31 61 rrcurveto
          -104 callgsubr
          endchar
        </CharString>
        <CharString name="ydieresis">
          -8 callgsubr
          129 105 hstemhm
          42 97 7 103 76 103 hintmask 10100100
          -56 callsubr
          hintmask 10010100
          -90 callgsubr
          hintmask 10100100
          -23 -61 -6 -32 hhcurveto
          hintmask 10010100
          -35 -50 -40 callgsubr
          hintmask 10100100
          -74 callgsubr
          hintmask 01100100
          24 -17 18 -30 -23 -27 -17 -30 -58 56 -25 42 97 49 160 88 30 vhcurveto
          149 443 rlineto
          33 10 15 10 43 -38 callgsubr
          hintmask 10010100
          -90 callgsubr
          hintmask 10100100
          -25 -31 -6 -35 hhcurveto
          hintmask 10010100
          -32 -50 6 -23 -87 callsubr
          hintmask 10100100
          -25 callgsubr
          hintmask 00001011
          -194 188 -98 callgsubr
        </CharString>
        <CharString name="yen">
          211 -20 callgsubr
          222 59 138 59 187 29 9 -20 hstemhm
          347 84 hintmask 10111010
          644 417 -77 callgsubr
          -1 -17 -43 -1 -55 hhcurveto
          51 97 rlineto
          53 28 26 37 68 hhcurveto
          32 callsubr
          14 10 vvcurveto
          hintmask 10110110
          -45 callgsubr
          hintmask 10111010
          -35 -22 -9 -48 hhcurveto
          hintmask 10110110
          -47 -30 9 -35 hhcurveto
          hintmask 10111010
          -88 callsubr
          25 18 -5 -19 -16 -11 -23 -14 -27 hvcurveto
          -118 -227 -137 227 rlineto
          -12 20 -8 20 15 vvcurveto
          22 17 13 45 -28 callsubr
          hintmask 10110110
          4 -1 3 -1 2 vhcurveto
          hintmask 10111010
          -41 -38 -9 -57 hhcurveto
          hintmask 10110110
          -57 -42 9 -40 hhcurveto
          hintmask 10111010
          -88 callsubr
          79 24 -38 -52 29 hvcurveto
          55 -97 rlineto
          -55 -43 1 1 -16 hvcurveto
          -5 -6 -1 -7 -9 vvcurveto
          -19 9 -22 0 vhcurveto
          20 1 56 0 68 1 79 -138 rcurveline
          -103 -97 0 2 -26 hvcurveto
          -5 -6 -1 -7 -9 vvcurveto
          -19 9 -22 0 vhcurveto
          1 28 101 1 107 hhcurveto
          -4 -132 rlineto
          -35 -1 -17 -24 callgsubr
          hintmask 01111010
          -107 callgsubr
          hintmask 10111010
          23 64 6 32 hhcurveto
          hintmask 01111010
          33 55 -6 23 hhcurveto
          2 2 0 4 6 vvcurveto
          hintmask 10111010
          10 -2 3 callsubr
          -9 132 rlineto
          99 92 -1 -1 26 -60 callsubr
          -26 -94 0 -100 hhcurveto
          73 138 68 -1 57 0 19 -1 rlinecurve
          endchar
        </CharString>
        <CharString name="ygrave">
          4 113 2 121 193 endchar
        </CharString>
        <CharString name="z">
          46 callgsubr
          hstemhm
          372 30 hintmask 10101000
          41 callgsubr
          hintmask 10011000
          -77 -73 3 8 -83 hvcurveto
          -18 -127 rlineto
          -2 2 4 -1 6 hhcurveto
          9 12 32 callsubr
          hvcurveto
          hintmask 10101000
          -49 callsubr
          hintmask 01101000
          -23 callsubr
          hintmask 10101000
          -27 callgsubr
          endchar
        </CharString>
        <CharString name="zcaron">
          46 callgsubr
          113 9 callsubr
          372 30 hintmask 10100010
          41 callgsubr
          hintmask 10010010
          -77 -73 3 8 -83 hvcurveto
          -18 -127 rlineto
          -2 2 4 -1 6 hhcurveto
          9 12 32 callsubr
          hvcurveto
          hintmask 10100010
          -49 callsubr
          hintmask 01100010
          -23 callsubr
          hintmask 10100010
          -27 callgsubr
          hintmask 00001100
          -166 86 rmoveto
          -2 2 8 -2 8 hhcurveto
          8 8 2 2 2 hvcurveto
          31 61 59 49 48 48 2 2 0 6 -7 12 rrcurveto
          7 -4 -11 9 -1 hhcurveto
          -3 -82 -61 -46 -50 hvcurveto
          46 -50 -82 61 -3 hhcurveto
          -1 -11 -9 -7 -4 hvcurveto
          -7 -12 0 -6 2 -2 48 -48 59 -49 31 -61 rrcurveto
          endchar
        </CharString>
        <CharString name="zero">
          54 -10 52 620 52 hstem
          57 84 306 84 vstem
          57 351 rmoveto
          -192 60 -169 177 177 60 169 192 192 -60 171 -177 -177 -60 -171 -192 vhcurveto
          84 hmoveto
          146 49 165 104 103 50 -165 -146 -151 -50 -158 -103 -104 -49 158 151 vhcurveto
          endchar
        </CharString>
      <CharString index="0">
        -6 1 -4 2 -2 vhcurveto
        return
      </CharString>
      <CharString index="1">
        -101 callgsubr
        -22 -84 callsubr
        return
      </CharString>
      <CharString index="2">
        -106 callsubr
        -107 callgsubr
        return
      </CharString>
      <CharString index="3">
        4 callsubr
        -8 -8 -57 callgsubr
        hvcurveto
        return
      </CharString>
      <CharString index="4">
        9 -2 12 -3 3 vhcurveto
        return
      </CharString>
      <CharString index="5">
        6 6 2 11 11 vvcurveto
        17 -5 18 0 vhcurveto
        return
      </CharString>
      <CharString index="6">
        -103 callgsubr
        -53 return
      </CharString>
      <CharString index="7">
        432 59 -25 callsubr
        19 -5 4 vhcurveto
        -34 -47 -64 -11 -41 hhcurveto
        -93 -44 91 101 hvcurveto
        311 hlineto
        134 -54 111 -134 -138 -73 -112 -138 -140 74 -110 138 74 56 23 46 46 vhcurveto
        -77 243 rmoveto
        -5 -4 -32 -1 -45 -40 -50 1 -51 hhcurveto
        88 6 45 57 66 hhcurveto
        76 30 -69 -54 -6 0 -6 -1 -5 hvcurveto
        return
      </CharString>
      <CharString index="8">
        rlineto
        -38 -25 -13 -86 callgsubr
        return
      </CharString>
      <CharString index="9">
        rmoveto
        33 1 19 18 34 vvcurveto
        29 -27 23 -27 -32 -17 -25 -29 -31 21 -20 30 vhcurveto
        179 hmoveto
        33 1 19 18 34 vvcurveto
        29 -27 23 -27 -32 -17 -25 -29 -31 21 -20 30 vhcurveto
        endchar
      </CharString>
      <CharString index="10">
        -97 callsubr
        78 -80 callgsubr
        return
      </CharString>
      <CharString index="11">
        -627 -81 callsubr
        hintmask 10100110
        -45 callgsubr
        hintmask 11000110
        -32 -64 -6 -33 hhcurveto
        hintmask 10100110
        -32 -69 6 -24 -87 callsubr
        hintmask 11000110
        -93 callgsubr
        hintmask 10100110
        -90 callgsubr
        hintmask 11000110
        -23 -74 -6 -33 hhcurveto
        hintmask 10100110
        -32 -82 6 -23 -87 callsubr
        hintmask 11000110
        -41 callgsubr
        69 16 -17 callgsubr
        endchar
      </CharString>
      <CharString index="12">
        -55 66 8 -24 vvcurveto
        -23 -25 -11 -48 -28 vhcurveto
        -5 -3 2 -5 4 -6 7 -12 16 -15 3 1 rrcurveto
        90 56 11 53 44 vvcurveto
        return
      </CharString>
      <CharString index="13">
        -2 callgsubr
        hintmask 11000101
        39 113 rmoveto
        -69 58 -54 73 58 51 25 29 34 vhcurveto
        -37 20 26 -17 26 hhcurveto
        42 35 18 11 11 hvcurveto
        2 2 0 4 5 vvcurveto
        10 -4 9 -3 5 vhcurveto
        -7 -16 -13 -3 -12 hhcurveto
        -29 -15 21 43 1 hvcurveto
        4 230 rlineto
        88 2 -44 64 -132 hhcurveto
        hintmask 11000011
        -54 callgsubr
        hintmask 10100101
        24 41 7 35 75 27 -42 -91 vhcurveto
        -8 0 -8 -9 vvcurveto
        -69 -14 rlineto
        -147 -30 -54 -48 -75 vvcurveto
        273 -27 rmoveto
        -19 -32 -55 -19 -28 hhcurveto
        -42 -25 33 39 49 24 20 104 26 hvcurveto
        52 13 rlineto
        return
      </CharString>
</ttFont>
